<?xml version="1.0" encoding="utf-8"?>
<!-- Generator: Adobe Illustrator 27.8.1, SVG Export Plug-In . SVG Version: 6.00 Build 0)  -->
<svg version="1.1" id="Layer_1" xmlns="http://www.w3.org/2000/svg" xmlns:xlink="http://www.w3.org/1999/xlink" x="0px" y="0px"
	 viewBox="0 0 676.4 603.7" style="enable-background:new 0 0 676.4 603.7;" xml:space="preserve">
<style type="text/css">
	.st0{fill:#662D91;stroke:#231F20;stroke-width:10;stroke-miterlimit:10;}
	.st1{fill:#ED1C24;stroke:#231F20;stroke-width:10;stroke-miterlimit:10;}
	.st2{fill:#ED5479;stroke:#231F20;stroke-width:10;stroke-miterlimit:10;}
	.st3{fill:#28858E;stroke:#231F20;stroke-width:10;stroke-miterlimit:10;}
	.st4{fill:#231F20;}
	.st5{fill:#EE8522;stroke:#231F20;stroke-width:10;stroke-miterlimit:10;}
	.st6{fill:#F6E108;stroke:#231F20;stroke-width:10;stroke-miterlimit:10;}
	.st7{fill:#67CADA;stroke:#231F20;stroke-width:10;stroke-miterlimit:10;}
	.st8{fill:#231F20;stroke:#231F20;stroke-width:10;stroke-miterlimit:10;}
	.st9{fill:none;stroke:#231F20;stroke-width:10;stroke-miterlimit:10;}
	.st10{fill:#0AB26A;stroke:#231F20;stroke-width:10;stroke-miterlimit:10;}
	.st11{fill:#662D91;}
	.st12{stroke:#000000;stroke-miterlimit:10;}
</style>
<g id="Layer_1_00000090979355022529015660000000203043218895364503_">
	<polygon class="st0" points="229.6,51.6 224.7,16.3 368.1,41.4 358.1,79.6 	"/>
	<path class="st0" d="M276.1,294l363.5,96.8c0,0-45,18.5-47.3,39.3s2.6,67.1-11.6,66.5L276.1,294"/>
	<path class="st1" d="M276.1,294l328,87.4c0,0-34.7,15.7-37.1,36.5s-6.3,52.2-20.5,51.7L276.1,294"/>
	<path class="st2" d="M276.1,295.7l276.5,73.1c0,0-29.3,13.1-31.2,30.5s-5.3,43.7-17.3,43.2L276.1,295.7"/>
	<path class="st1" d="M228.4,41.4l20.4,188.5c22.5-3.6,45.4-3,67.7,1.6l47.9-175.2C325,48.3,269.9,44.7,228.4,41.4z"/>
	<path class="st1" d="M49.1,225.8L202,294c8.9-21.7,21.6-41.6,37.6-58.8l-152-159C59.5,106.7,64.7,186.6,49.1,225.8z"/>
	<path class="st2" d="M233.3,84.4l15.6,145.6c22.5-3.6,45.4-3,67.7,1.6l37.6-145.6C314.3,78,273.3,77.5,233.3,84.4z"/>
	<path class="st2" d="M79.4,234.4L202,294c8.9-21.7,21.6-41.6,37.6-58.8l-108.5-110C103,155.8,97,195.4,79.4,234.4z"/>
	<path class="st1" d="M530.9,60.1L356.3,181c16.4,29.3,27.5,61.2,33,94.3l263.3-56.9C642.2,158.6,560.4,111,530.9,60.1z"/>
	<path class="st2" d="M495.2,84.8l-138.9,96.8c16.4,29.3,27.5,61.2,33,94.2l202.2-47.9C581.1,168.3,524.7,135.7,495.2,84.8z"/>
	<path class="st3" d="M471.6,399.6h-391v38.5l0,0C80,473.8,184,517.6,275.2,517.6c89.3,0,195.4-47.2,196.4-79.5l0,0L471.6,399.6z"/>
	<path class="st4" d="M149.7,522.6c-0.3,0.2-0.7,0.3-1,0.3c-0.3,0.1-0.6,0.1-0.9,0c-0.3-0.1-0.5-0.2-0.7-0.5
		c-0.2-0.3-0.3-0.6-0.2-0.9c0-0.3,0-0.5,0-0.8s0-0.5-0.1-0.7c0-0.3-0.1-0.5-0.3-0.8c-0.2-0.4-0.6-0.7-1.1-0.6
		c-0.2,0-0.4,0.1-0.6,0.2c-0.2,0.1-0.3,0.3-0.4,0.5c-0.1,0.2-0.1,0.4-0.2,0.6c0,0.2,0,0.4,0.1,0.6c0.2,0.3,0.3,0.7,0.5,1
		s0.4,0.7,0.6,1s0.4,0.8,0.7,1.2c0.2,0.4,0.5,0.8,0.7,1.2c0.4,0.7,0.5,1.4,0.5,2.2c0,0.8-0.2,1.5-0.6,2.2c-0.3,0.5-0.6,1-1,1.4
		c-0.4,0.4-0.9,0.7-1.4,0.9c-0.9,0.3-1.8,0.4-2.7,0.3c-0.9-0.2-1.7-0.6-2.5-1.2c-0.6-0.5-1.1-1.1-1.5-1.7c-0.4-0.6-0.7-1.3-0.9-2
		c-0.1-0.4-0.2-0.9-0.2-1.3c0-0.4,0.1-0.9,0.1-1.3c0.1-0.4,0.4-0.8,0.8-1.1c0.3-0.2,0.6-0.4,1-0.5c0.4-0.1,0.8-0.1,1.1,0
		c0.3,0.1,0.6,0.2,0.8,0.5c0.2,0.2,0.4,0.5,0.4,0.9c0,0.2,0,0.4,0,0.7s0,0.4,0,0.7c0,0.4,0.1,0.8,0.3,1.1c0.2,0.3,0.4,0.6,0.7,0.8
		c0.2,0.2,0.5,0.3,0.8,0.3c0.3,0,0.6-0.2,0.7-0.5c0.1-0.3,0.2-0.5,0.2-0.8c0-0.3-0.1-0.7-0.2-1l-0.6-1.1c-0.2-0.3-0.4-0.7-0.6-1
		c-0.7-1.1-1.3-2.3-1.6-3.5c-0.1-0.7-0.1-1.4,0.2-2.1c0.2-0.6,0.6-1.2,1.1-1.6c0.5-0.5,1.1-0.8,1.7-1c0.7-0.2,1.4-0.3,2.1-0.2
		c0.8,0.1,1.5,0.4,2.3,0.7c0.6,0.3,1.2,0.7,1.7,1.2c0.4,0.4,0.7,0.9,0.9,1.4c0.3,0.5,0.5,1.1,0.6,1.7c0.1,0.6,0.1,1.1-0.1,1.7
		C150.7,522,150.2,522.4,149.7,522.6z"/>
	<path class="st4" d="M155.3,525.5c-0.3,0.7-0.6,1.5-0.9,2.2c-0.3,0.6-0.5,1.2-0.6,1.9c-0.1,0.5,0,1,0.1,1.5
		c0.1,0.4,0.3,0.8,0.6,1.1c0.5,0.6,1.4,0.8,2.1,0.5c0.4-0.1,0.8-0.4,1.2-0.7c0.5-0.5,1-1.1,1.4-1.8c0.4-0.8,0.8-1.6,1.2-2.4
		s0.7-1.7,1-2.5s0.5-1.6,0.7-2.2c0.1-0.6,0.7-0.9,1.3-0.8c0.8,0.1,1.5,0.4,2.2,0.9c0.2,0.1,0.3,0.3,0.4,0.5c0.1,0.2,0.1,0.5,0,0.7
		c-0.2,1-0.6,2.1-0.9,3.2c-0.4,1.2-0.8,2.3-1.3,3.4c-0.5,1.1-1.1,2.1-1.8,3.1c-0.6,0.9-1.4,1.7-2.3,2.3c-1.8,1.3-4.2,1.6-6.3,0.7
		c-0.8-0.3-1.5-0.7-2.2-1.2c-0.5-0.5-1-1-1.3-1.7c-0.3-0.6-0.5-1.3-0.7-2c-0.1-0.7-0.2-1.5-0.1-2.2c0.1-0.8,0.2-1.6,0.4-2.3
		c0.2-0.8,0.4-1.5,0.7-2.3s0.5-1.5,0.8-2.2l0.9-2.1c0.1-0.2,0.2-0.4,0.3-0.8c0.1-0.3,0.3-0.6,0.5-0.9c0.2-0.2,0.4-0.5,0.6-0.7
		c0.2-0.2,0.4-0.2,0.7-0.2c0.5,0.1,0.9,0.2,1.4,0.4c0.4,0.2,0.9,0.4,1.3,0.6c0.3,0.1,0.5,0.4,0.6,0.7c0.1,0.3,0,0.6-0.1,0.9
		c-0.1,0.4-0.2,0.7-0.4,1c-0.1,0.3-0.3,0.7-0.4,1l0,0C155.9,524.1,155.6,524.8,155.3,525.5z"/>
	<path class="st4" d="M175.1,536.9l-0.9,0.8c-0.3,0.3-0.6,0.5-0.9,0.8l-0.1,0.1c0,0-0.1,0.1-0.1,0.1c-0.4,0.5-1.2,0.7-1.8,0.5
		c-0.2-0.1-0.4-0.2-0.6-0.2l-0.7-0.2c-0.2-0.1-0.4-0.2-0.5-0.4c-0.1-0.2-0.2-0.4-0.2-0.6c-0.1-0.5-0.2-0.9-0.2-1.4
		c0-0.4-0.1-0.9-0.2-1.3c-0.1-0.2-0.1-0.4-0.2-0.4s-0.2,0.1-0.3,0.5l-1.5,4.6l-0.1,0.2c-0.1,0.5-0.4,0.9-0.7,1.2
		c-0.4,0.2-0.9,0.2-1.4,0c-0.3-0.1-0.6-0.2-0.8-0.3l-0.8-0.3c-0.3-0.1-0.5-0.4-0.6-0.7c-0.1-0.3-0.1-0.7,0-1
		c0.1-0.2,0.2-0.5,0.3-0.8s0.2-0.6,0.3-0.9s0.2-0.6,0.3-0.9s0.2-0.6,0.3-0.8c0.6-1.8,1.1-3.6,1.7-5.3c0.6-1.7,1.1-3.5,1.7-5.3
		l0.1-0.2c0.1-0.3,0.3-0.6,0.5-0.8c0.3-0.1,0.6-0.1,0.9,0c0.3,0.1,0.6,0.2,0.9,0.3l0.9,0.4c0.2,0.1,0.4,0.2,0.5,0.4
		c0.1,0.2,0.2,0.4,0.2,0.6c0.2,1,0.5,2,0.7,2.9s0.4,2,0.6,2.9c0,0.1,0,0.1,0.1,0.2c0,0.1,0.1,0.1,0.1,0.2c0.1,0.3,0.2,0.5,0.3,0.5
		s0.3,0,0.5-0.2l0.2-0.2l0.2-0.2c0.5-0.5,1-1,1.6-1.5s1-1,1.6-1.5c0.2-0.2,0.3-0.3,0.5-0.5s0.3-0.3,0.5-0.5c0.2-0.2,0.4-0.3,0.7-0.4
		c0.2,0,0.5,0,0.8,0c0.3,0.1,0.6,0.1,0.8,0.2c0.3,0.1,0.5,0.2,0.8,0.3c0.7,0.2,1.1,1,0.9,1.7c0,0.2-0.1,0.3-0.1,0.5
		c0,0.2-0.1,0.3-0.1,0.5c-0.4,1.2-0.8,2.5-1.2,3.7s-0.8,2.4-1.2,3.7c-0.1,0.4-0.3,0.9-0.4,1.4s-0.3,1-0.5,1.5s-0.3,1-0.5,1.5
		s-0.3,1-0.4,1.4c0,0.3-0.2,0.6-0.4,0.8c-0.3,0.1-0.6,0.1-0.9,0l-0.8-0.2l-0.8-0.2c-0.3-0.1-0.6-0.3-0.8-0.6c-0.1-0.3-0.1-0.7,0-1
		c0.1-0.4,0.2-0.8,0.4-1.3s0.3-1,0.4-1.5s0.3-1,0.4-1.4s0.2-0.9,0.4-1.3c0,0,0-0.1,0-0.1L175.1,536.9L175.1,536.9L175.1,536.9z"/>
	<path class="st4" d="M191.7,541.5l-0.9,0.9l-0.9,0.9l-0.1,0.1c0,0-0.1,0.1-0.1,0.1c-0.4,0.6-1.1,0.8-1.8,0.5
		c-0.2-0.1-0.4-0.2-0.7-0.2l-0.7-0.2c-0.2-0.1-0.4-0.2-0.6-0.4c-0.1-0.2-0.2-0.4-0.3-0.6c-0.1-0.4-0.2-0.9-0.2-1.4
		c0-0.4-0.1-0.9-0.2-1.3c-0.1-0.2-0.1-0.4-0.2-0.4s-0.2,0.1-0.3,0.5l-1.2,4.7l-0.1,0.2c0,0.8-0.6,1.4-1.4,1.4c-0.2,0-0.4,0-0.6-0.1
		c-0.3-0.1-0.6-0.1-0.8-0.2l-0.8-0.3c-0.3-0.1-0.5-0.3-0.6-0.6c-0.1-0.3-0.2-0.7-0.1-1c0.1-0.2,0.1-0.5,0.2-0.8s0.2-0.6,0.3-0.9
		s0.2-0.6,0.3-0.9s0.2-0.6,0.2-0.8c0.5-1.8,1-3.6,1.4-5.4s0.9-3.5,1.4-5.4V530c0.1-0.3,0.2-0.6,0.5-0.8c0.3-0.1,0.6-0.2,0.9-0.1
		c0.3,0.1,0.6,0.1,0.9,0.2l0.9,0.3c0.2,0.1,0.4,0.2,0.5,0.4c0.1,0.2,0.2,0.4,0.3,0.6l0.9,2.9c0.3,1,0.5,1.9,0.8,2.9
		c0,0.1,0,0.1,0.1,0.2l0.1,0.2c0.1,0.3,0.2,0.5,0.3,0.5s0.3,0,0.5-0.2l0.2-0.2c0.1-0.1,0.2-0.1,0.2-0.2c0.5-0.6,1-1.1,1.5-1.6
		s1-1,1.5-1.6c0.2-0.2,0.3-0.3,0.5-0.5s0.3-0.3,0.5-0.5c0.2-0.2,0.4-0.4,0.6-0.4c0.2,0,0.5,0,0.8,0c0.3,0,0.6,0.1,0.8,0.2
		c0.3,0.1,0.6,0.1,0.8,0.2c0.7,0.2,1.1,0.9,1,1.6c0,0.2,0,0.3-0.1,0.5c0,0.2-0.1,0.3-0.1,0.5l-1,3.7c-0.3,1.2-0.7,2.5-1,3.7
		c-0.1,0.4-0.2,0.9-0.4,1.4l-0.4,1.5c-0.1,0.5-0.2,1-0.4,1.5s-0.2,1-0.4,1.4c0,0.3-0.2,0.6-0.4,0.8c-0.3,0.1-0.6,0.2-0.9,0.1
		c-0.3,0-0.6-0.1-0.8-0.2c-0.3-0.1-0.6-0.1-0.8-0.2c-0.3-0.1-0.7-0.3-0.9-0.5c-0.1-0.3-0.1-0.7,0-1l0.3-1.3c0.1-0.5,0.2-1,0.3-1.5
		s0.2-1,0.3-1.5s0.2-0.9,0.3-1.3c0,0,0-0.1,0-0.1s0-0.1,0-0.1l0,0L191.7,541.5z"/>
	<path class="st4" d="M204.6,547.9c0.8,0.2,1.2,0.6,1,1.4c-0.1,0.4-0.1,0.7-0.2,1s-0.2,0.6-0.3,0.9c-0.1,0.5-0.6,0.7-1.1,0.6
		c0,0,0,0,0,0c-1.3-0.3-2.6-0.5-3.7-0.7c-1.1-0.2-2.3-0.5-3.3-0.9c-0.3-0.1-0.5-0.3-0.7-0.6c-0.2-0.3-0.2-0.6-0.1-0.9
		c0.4-2.4,0.9-4.7,1.4-6.8s0.9-4.3,1.3-6.2c0.1-0.3,0.1-0.6,0.2-0.9c0.1-0.3,0.2-0.6,0.3-0.8c0.1-0.2,0.3-0.4,0.5-0.5
		c0.3-0.1,0.6-0.2,0.8-0.1c0.4,0.1,0.8,0.1,1.1,0.2s0.7,0.2,1.1,0.2s0.5,0.1,0.7,0.1l0.7,0.1l1.4,0.2l1.3,0.2
		c0.3,0.1,0.6,0.2,0.8,0.4c0.2,0.2,0.4,0.4,0.4,0.7c0.1,0.8,0,1.5-0.3,2.2c-0.1,0.3-0.3,0.6-0.6,0.8c-0.3,0.2-0.7,0.2-1,0.1
		l-1.1-0.3l-1.1-0.3c-0.4-0.1-0.8-0.1-1.2-0.2c-0.2,0-0.4,0-0.6,0.1c-0.1,0.1-0.3,0.3-0.3,0.4c-0.1,0.3-0.2,0.5-0.2,0.8
		c-0.1,0.3-0.1,0.7-0.3,1.2c-0.1,0.2,0,0.4,0.2,0.5c0.2,0.1,0.4,0.2,0.6,0.2l1,0.2c0.3,0.1,0.7,0.2,1,0.3c0.2,0.1,0.3,0.2,0.5,0.3
		c0.1,0.2,0.2,0.4,0.1,0.6c-0.1,0.3-0.1,0.6-0.1,0.9c0,0.3-0.1,0.6-0.2,0.9c-0.1,0.5-0.7,0.9-1.2,0.8c0,0-0.1,0-0.1,0
		c-0.2,0-0.3-0.1-0.5-0.1l-0.5-0.2l-0.6-0.2c-0.2-0.1-0.4-0.1-0.6-0.1c-0.1,0-0.3,0-0.4,0c-0.1,0.1-0.2,0.2-0.2,0.3
		c-0.1,0.2-0.1,0.5-0.2,0.7s-0.1,0.5-0.1,0.7c-0.1,0.2-0.1,0.4,0,0.6c0.2,0.1,0.3,0.2,0.5,0.2l1.4,0.3l0.9,0.2l0.7,0.1
		C204.3,547.8,204.4,547.9,204.6,547.9z"/>
	<path class="st4" d="M214.2,547.9c0.1,0.1,0.2,0.2,0.2,0.4c0.1,0.1,0.2,0.2,0.2,0.3c0.2,0.2,0.5,0.5,0.8,0.7s0.5,0.5,0.8,0.7
		c0.1,0.1,0.3,0.2,0.5,0.3c0.2,0.1,0.3,0.2,0.5,0.3c0.5,0.3,0.8,0.9,0.5,1.4c0,0,0,0,0,0c-0.1,0.6-0.4,1.1-0.8,1.5
		c-0.4,0.4-1.1,0.6-1.6,0.4c-0.5-0.1-0.9-0.3-1.3-0.6c-0.4-0.3-0.7-0.6-1-1c-0.3-0.4-0.5-0.7-0.8-1.1s-0.5-0.8-0.7-1.1
		c-0.1-0.1-0.2-0.3-0.2-0.4c-0.1-0.1-0.2-0.3-0.3-0.4c0,0.3-0.1,0.5-0.1,0.8c0,0.3-0.1,0.5-0.1,0.8c0,0.2,0,0.4-0.1,0.6
		c0,0.2-0.1,0.4-0.2,0.6c-0.1,0.5-0.5,0.8-1,0.7c0,0,0,0,0,0l-0.9-0.1c-0.3,0-0.6-0.1-0.9-0.2c-0.5-0.1-0.9-0.6-0.8-1.1
		c0,0,0-0.1,0-0.1c0-0.3,0-0.6,0.1-0.8s0.1-0.5,0.1-0.8c0.4-2.3,0.7-4.5,1.1-6.7s0.8-4.3,1.3-6.5c0-0.1,0-0.2,0.1-0.2
		c0-0.1,0.1-0.2,0.1-0.2c0.1-0.3,0.4-0.5,0.8-0.4c1,0,2,0.2,3,0.5l0.7,0.2c0.2,0.1,0.4,0.1,0.7,0.2c1.6,0.5,2.9,1.7,3.6,3.1
		c0.7,1.5,0.7,3.1,0.2,4.6c-0.3,1-0.9,1.9-1.6,2.6C216.2,547.5,215.2,547.9,214.2,547.9z M211.9,544.5l0.2,0.1c0,0,0.1,0,0.1,0
		c0.4,0.1,0.9,0,1.3-0.2c0.4-0.1,0.7-0.4,1-0.7c0.3-0.3,0.5-0.6,0.6-1c0.1-0.4,0.1-0.8,0-1.2c-0.1-0.2-0.2-0.4-0.3-0.6
		c-0.2-0.2-0.3-0.4-0.6-0.5c-0.2-0.1-0.4-0.3-0.7-0.3c-0.2-0.1-0.5-0.1-0.7-0.1L211.9,544.5z"/>
	<path class="st4" d="M239.9,545.6c-0.2,0.2-0.5,0.5-0.8,0.6c-0.3,0.1-0.6,0.2-0.9,0.2c-0.3,0-0.5-0.1-0.8-0.2
		c-0.3-0.2-0.4-0.5-0.5-0.8c-0.1-0.2-0.2-0.5-0.2-0.7c-0.1-0.2-0.2-0.5-0.3-0.7c-0.1-0.2-0.3-0.5-0.5-0.6c-0.3-0.4-0.8-0.5-1.2-0.2
		c-0.2,0.1-0.4,0.2-0.5,0.4c-0.1,0.2-0.2,0.4-0.2,0.6c0,0.2,0,0.4,0,0.6c0,0.2,0.1,0.4,0.3,0.5c0.3,0.3,0.5,0.5,0.8,0.8
		s0.5,0.5,0.8,0.8s0.7,0.6,1,0.9c0.4,0.3,0.7,0.6,1,0.9c0.6,0.5,1,1.2,1.2,1.9c0.2,0.7,0.3,1.5,0.1,2.3c-0.1,0.6-0.3,1.1-0.6,1.6
		c-0.3,0.5-0.6,0.9-1.1,1.3c-0.7,0.6-1.6,1-2.5,1.1c-0.9,0.1-1.8,0-2.7-0.3c-0.7-0.2-1.4-0.6-1.9-1.1c-0.6-0.5-1.1-1-1.5-1.6
		c-0.3-0.4-0.5-0.8-0.6-1.2c-0.1-0.4-0.2-0.9-0.3-1.3c0-0.5,0.1-0.9,0.4-1.3c0.2-0.3,0.5-0.6,0.8-0.8c0.3-0.2,0.7-0.3,1.1-0.4
		c0.3,0,0.7,0,1,0.2c0.3,0.2,0.5,0.4,0.6,0.7c0.1,0.2,0.2,0.4,0.2,0.6c0.1,0.2,0.1,0.4,0.2,0.6c0.1,0.4,0.3,0.7,0.6,1
		c0.3,0.2,0.6,0.4,0.9,0.5c0.3,0.1,0.6,0.1,0.9,0c0.3-0.1,0.5-0.4,0.5-0.7c0.1-0.3,0-0.6-0.1-0.9c-0.1-0.3-0.3-0.6-0.5-0.8l-0.9-0.8
		c-0.3-0.3-0.6-0.5-0.9-0.8c-1-0.8-1.9-1.7-2.6-2.8c-0.3-0.6-0.5-1.3-0.5-2c0-0.7,0.2-1.3,0.5-1.9c0.3-0.6,0.7-1.1,1.3-1.5
		c0.6-0.4,1.2-0.7,1.9-0.8c0.8-0.1,1.6-0.2,2.4-0.1c0.7,0.1,1.4,0.3,2,0.6c0.5,0.3,0.9,0.6,1.3,1c0.4,0.4,0.8,0.9,1.1,1.4
		c0.3,0.5,0.4,1.1,0.4,1.6C240.6,544.6,240.4,545.1,239.9,545.6z"/>
	<path class="st4" d="M246.5,558.2c-0.9-0.1-1.8-0.4-2.7-0.9c-0.7-0.4-1.3-1-1.7-1.7c-0.4-0.7-0.8-1.4-0.9-2.2
		c-0.2-0.8-0.3-1.6-0.3-2.5c0-0.9,0.1-1.7,0.2-2.5c0.1-0.8,0.3-1.6,0.6-2.4c0.2-0.6,0.4-1.1,0.7-1.7c0.3-0.6,0.7-1.1,1.1-1.5
		c0.4-0.5,0.9-0.9,1.5-1.2c0.5-0.3,1.1-0.6,1.8-0.7c0.6-0.1,1.3-0.1,1.9,0c0.6,0.1,1.2,0.4,1.8,0.7c0.5,0.3,1,0.8,1.4,1.3
		c0.4,0.5,0.6,1,0.8,1.6c0.1,0.4,0.1,0.8,0,1.2c-0.1,0.4-0.3,0.7-0.7,0.9c-0.3,0.2-0.6,0.4-1,0.4c-0.4,0-0.7,0-1.1-0.2
		c-0.4-0.1-0.6-0.4-0.7-0.8c0-0.1,0-0.2-0.1-0.3c0-0.1,0-0.2-0.1-0.3c-0.1-0.4-0.3-0.7-0.7-0.8c-0.3-0.2-0.7-0.2-1.1,0
		c-0.1,0.1-0.2,0.1-0.3,0.2c-0.1,0.1-0.2,0.2-0.3,0.3c-0.1,0.1-0.3,0.3-0.4,0.4c-0.1,0.2-0.2,0.3-0.3,0.5c-0.4,0.8-0.6,1.6-0.8,2.5
		c-0.2,0.9-0.2,1.7,0,2.6c0.1,0.7,0.3,1.4,0.6,2.1c0.2,0.4,0.6,0.8,1,0.9c0.5,0.1,1,0,1.3-0.3c0.6-0.4,1.1-1,1.5-1.6
		c0.1-0.2,0.3-0.4,0.5-0.5c0.2-0.1,0.5-0.1,0.7,0c0.2,0.1,0.4,0.1,0.6,0.2c0.2,0.1,0.4,0.2,0.6,0.3c0.2,0.1,0.4,0.2,0.5,0.4
		c0.1,0.2,0.1,0.3,0.1,0.5c0,0.2,0,0.4-0.1,0.6c-0.1,0.2-0.1,0.4-0.2,0.5c-0.2,0.6-0.5,1.1-0.9,1.6c-0.4,0.5-0.8,0.9-1.3,1.3
		c-0.5,0.4-1.1,0.6-1.7,0.8C247.9,558.2,247.2,558.2,246.5,558.2z"/>
	<path class="st4" d="M259.8,549.5l1.4,0.1c0.5,0,1,0.1,1.4,0.1s0.8,0,1,0c0.1-1.1,0.3-2.2,0.3-3.3s0.2-2.2,0.3-3.3
		c0-0.3,0.2-0.6,0.5-0.8c0.3-0.2,0.6-0.3,1-0.3c0.4,0,0.8,0,1.1,0c0.4,0,0.7,0.1,1,0.2c0.2,0,0.4,0.1,0.5,0.3
		c0.1,0.2,0.2,0.3,0.2,0.5c0,0.2,0,0.4,0,0.6c0,0.2,0,0.4-0.1,0.5c-0.1,1-0.2,2.1-0.2,3.2s-0.1,2.2-0.2,3.3s-0.1,2.2-0.1,3.2
		s-0.1,2.1-0.1,3c0,0.6,0,1,0,1.3c0,0.3-0.1,0.6-0.3,0.8c-0.2,0.2-0.5,0.3-0.8,0.4c-0.5,0.1-1,0.1-1.5,0.1c-0.4,0-0.8,0-1.2-0.2
		c-0.3-0.1-0.5-0.3-0.7-0.5c-0.2-0.3-0.3-0.6-0.3-0.9c0-0.4,0-0.8,0-1.2c0-0.2,0-0.5,0-0.8s0-0.6,0-0.9s0-0.6,0-0.9s0-0.6,0-0.8
		c-0.8-0.1-1.6-0.1-2.4-0.1c-0.8,0-1.6-0.1-2.4-0.2c0,0.2,0,0.3,0,0.5s0,0.3,0,0.4c0,0.6-0.1,1.2-0.1,1.9s-0.1,1.3-0.1,1.8
		c0,0.4-0.2,0.7-0.4,1c-0.2,0.3-0.6,0.4-1,0.4c-0.3,0-0.6,0-0.9,0c-0.3,0-0.6,0-0.9-0.1c-0.4,0-0.7-0.2-1-0.5
		c-0.2-0.2-0.3-0.6-0.2-0.9c0.1-1.3,0.1-2.6,0.2-3.9c0.1-1.3,0.2-2.6,0.3-3.8s0.2-2.4,0.2-3.5s0.1-2.2,0.2-3.2s0.4-1.5,1.6-1.5
		c0.3,0,0.6,0,0.9,0s0.6,0,1,0.1c0.4,0,0.7,0.1,1,0.3c0.2,0.3,0.3,0.6,0.2,0.9c0,1-0.1,2-0.2,3s-0.1,2-0.2,3v0.4
		C259.1,549.3,259.4,549.4,259.8,549.5z"/>
	<path class="st4" d="M282.3,550.4c0,1.1-0.1,2.3-0.4,3.4c-0.3,1-0.7,2-1.2,2.8c-0.5,0.8-1.1,1.5-1.9,2c-0.5,0.4-1.1,0.7-1.8,0.8
		c-0.6,0.2-1.2,0.2-1.8,0.2c-0.6-0.1-1.2-0.2-1.8-0.5c-0.6-0.3-1.1-0.7-1.6-1.2c-0.6-0.6-1.1-1.3-1.5-2c-0.4-0.8-0.7-1.6-0.8-2.4
		c-0.3-1.2-0.4-2.5-0.2-3.8c0.1-1.3,0.5-2.5,1-3.6c0.3-0.5,0.6-1.1,1-1.6c0.4-0.5,0.8-0.9,1.3-1.3c0.5-0.4,1.2-0.7,1.8-0.9
		c1.2-0.4,2.5-0.3,3.7,0.3c0.6,0.3,1.2,0.7,1.7,1.2c0.6,0.6,1.1,1.3,1.5,2.1c0.4,0.8,0.7,1.6,0.8,2.4c0.1,0.4,0.1,0.8,0.2,1.1
		C282.2,549.9,282.3,550.2,282.3,550.4z M273.3,551.2c-0.1,1.4,0.4,2.9,1.4,3.9c0.3,0.3,0.7,0.5,1.1,0.5c0.4,0,0.8-0.2,1.1-0.5
		c0.1-0.1,0.3-0.2,0.4-0.4c0.1-0.1,0.2-0.3,0.3-0.4c1.1-2,1.1-4.4,0.1-6.4c-0.1-0.2-0.2-0.4-0.4-0.6c-0.2-0.2-0.3-0.3-0.5-0.5
		c-0.3-0.2-0.6-0.4-0.9-0.4c-0.4,0-0.7,0.1-1,0.3c-0.2,0.2-0.4,0.3-0.6,0.5c-0.2,0.2-0.3,0.4-0.4,0.6
		C273.5,548.9,273.3,550,273.3,551.2L273.3,551.2z"/>
	<path class="st4" d="M296.6,549.9c0.1,1.1,0,2.3-0.3,3.4c-0.2,1-0.6,2-1.1,2.9c-0.4,0.8-1.1,1.6-1.8,2.1c-0.5,0.4-1.1,0.7-1.7,0.9
		c-1.2,0.4-2.5,0.3-3.6-0.1c-0.6-0.3-1.2-0.6-1.7-1.1c-0.6-0.6-1.2-1.3-1.6-2c-0.4-0.7-0.8-1.5-1-2.3c-0.3-1.2-0.5-2.5-0.4-3.8
		c0.1-1.3,0.4-2.5,0.9-3.7c0.3-0.6,0.6-1.1,0.9-1.6c0.4-0.5,0.8-1,1.2-1.3c0.5-0.4,1.1-0.8,1.8-1c0.6-0.2,1.2-0.3,1.9-0.3
		c0.6,0,1.3,0.2,1.8,0.4c0.6,0.3,1.2,0.6,1.7,1.1c0.6,0.6,1.2,1.2,1.6,2c0.4,0.8,0.7,1.6,0.9,2.4c0.1,0.4,0.2,0.8,0.2,1.1
		S296.6,549.7,296.6,549.9z M287.7,551.1c0,0.4,0,0.9,0.1,1.3c0.1,0.4,0.3,0.9,0.5,1.3c0.2,0.5,0.6,0.9,0.9,1.3
		c0.3,0.3,0.7,0.5,1.2,0.5c0.4,0,0.8-0.2,1.1-0.5c0.1-0.1,0.2-0.2,0.4-0.4c0.1-0.1,0.2-0.3,0.3-0.5c1-2,0.9-4.5-0.2-6.4
		c-0.1-0.2-0.2-0.4-0.4-0.5l-0.5-0.5c-0.3-0.2-0.6-0.3-0.9-0.3c-0.4,0-0.7,0.1-1,0.3c-0.2,0.2-0.4,0.4-0.5,0.6
		c-0.2,0.2-0.3,0.4-0.4,0.6C287.8,548.8,287.6,550,287.7,551.1z"/>
	<path class="st4" d="M303.3,554.3l0.4-0.1l0.4,0l1.2-0.1l1.2-0.1c0.2,0,0.4,0,0.6,0.2c0.2,0.1,0.3,0.3,0.4,0.5
		c0.3,0.8,0.3,1.7,0.2,2.5c0,0.3-0.1,0.5-0.3,0.7c-0.2,0.2-0.4,0.3-0.7,0.3l-0.4,0.1l-0.4,0.1c-0.9,0.1-1.8,0.2-2.7,0.4
		c-0.9,0.1-1.8,0.2-2.7,0.2c-0.8,0-1.4-0.6-1.6-1.3c-0.1-0.3-0.1-0.5-0.2-0.8l-0.1-0.8c-0.2-2.1-0.4-4.3-0.6-6.5s-0.4-4.4-0.6-6.5
		c0-0.3,0-0.5,0.1-0.8c0.1-0.2,0.3-0.4,0.5-0.5c0.5-0.1,1.1-0.2,1.6-0.2c0.6,0,1.1-0.1,1.7-0.1c0.2,0,0.4,0.1,0.5,0.2
		c0.1,0.1,0.2,0.3,0.2,0.5c0,0.3,0.1,0.6,0.1,0.9s0.1,0.6,0.1,0.9c0.2,1.5,0.4,3,0.5,4.5s0.3,3.1,0.5,4.6c0,0.2,0.1,0.4,0.1,0.6
		C303.3,553.8,303.3,554,303.3,554.3z"/>
	<path class="st4" d="M324,551.5l1-0.2l1-0.3l0.5-0.1h0.5c0.2,0,0.4,0,0.6,0.1c0.2,0.1,0.3,0.3,0.3,0.5c0.1,0.2,0.1,0.3,0.2,0.5
		c0,0.2,0.1,0.3,0.1,0.5c0.1,0.4,0.1,0.8,0.2,1.2c0.1,0.4,0.1,0.8-0.1,1.2c-0.2,0.3-0.6,0.6-1,0.6l-1.2,0.2
		c-0.4,0.1-0.8,0.2-1.2,0.2l-2,0.2c-0.7,0.1-1.4,0.2-2,0.2c-0.1,0-0.2,0-0.3,0h-0.3c-0.5,0.1-0.9-0.3-1-0.7
		c-0.1-0.4-0.3-0.8-0.4-1.3c-0.1-0.4-0.1-0.9-0.1-1.3c0-0.4,0-0.8,0.1-1.3c0.1-0.4,0.3-0.8,0.5-1.2c0.1-0.4,0.3-0.7,0.6-1
		c0.2-0.3,0.4-0.6,0.6-0.9s0.5-0.7,0.8-1.1c0.3-0.4,0.6-0.9,0.8-1.3c0.2-0.4,0.4-0.9,0.6-1.4c0.1-0.4,0.1-0.9,0-1.3
		c-0.1-0.3-0.3-0.5-0.5-0.6c-0.3-0.1-0.5-0.1-0.8,0.1c-0.3,0.1-0.5,0.4-0.6,0.7c-0.1,0.3-0.1,0.7-0.1,1c0,0.2,0,0.4,0,0.7
		c0,0.2,0,0.5,0,0.7c0,0.2-0.1,0.5-0.3,0.6c-0.2,0.2-0.4,0.3-0.7,0.4c-0.3,0.1-0.6,0.2-0.8,0.2c-0.3,0-0.6,0-0.9,0
		c-0.2,0-0.5-0.1-0.7-0.2c-0.2-0.1-0.3-0.3-0.4-0.5c-0.2-0.9-0.3-1.8-0.3-2.7c0-0.9,0.3-1.8,0.8-2.5c0.7-1.2,1.8-2,3.2-2.3
		c0.5-0.1,1.1-0.2,1.6-0.2c0.5,0,1.1,0.2,1.5,0.5c0.7,0.4,1.3,1,1.8,1.6c0.5,0.7,0.8,1.5,0.9,2.3c0.1,0.7,0.1,1.4,0,2.1
		c-0.1,0.7-0.3,1.5-0.5,2.2c-0.3,0.7-0.6,1.4-0.9,2c-0.3,0.6-0.7,1.1-1.2,1.6h0c0-0.1,0.1-0.1,0.1-0.1
		C324,551.4,324,551.5,324,551.5z"/>
	<path class="st4" d="M328.6,540c0.3-0.7,0.8-1.4,1.4-1.9c0.6-0.5,1.2-0.8,2-1c0.7-0.2,1.5-0.2,2.2,0c0.8,0.2,1.5,0.5,2,1
		c0.4,0.4,0.8,0.8,1.1,1.4c0.4,0.6,0.7,1.2,1,1.9c0.3,0.7,0.5,1.5,0.7,2.2c0.2,0.8,0.4,1.5,0.5,2.3c0.1,0.7,0.2,1.4,0.3,2.2
		c0,0.6,0,1.2,0,1.8c-0.1,0.9-0.4,1.8-0.8,2.6c-0.5,0.8-1.2,1.4-2,1.7c-1.2,0.5-2.6,0.5-3.9,0.2c-1.3-0.4-2.3-1.3-2.9-2.4
		c-0.5-0.9-0.9-1.8-1.2-2.8c-0.3-1-0.6-2.1-0.7-3.2c-0.1-1-0.2-2.1-0.2-3.1C328.2,541.8,328.3,540.9,328.6,540z M333.3,541.5
		c-0.4,0.2-0.7,0.5-0.8,0.9c-0.1,0.6-0.2,1.2-0.1,1.8c0.1,0.7,0.2,1.5,0.3,2.2c0.2,0.7,0.4,1.4,0.7,2c0.2,0.5,0.5,1,0.9,1.4
		c0.2,0.3,0.6,0.4,1,0.3c0.4-0.2,0.6-0.6,0.7-1c0.1-0.6,0.2-1.2,0.2-1.8c0-0.7-0.1-1.4-0.3-2.1c-0.1-0.7-0.4-1.4-0.6-2
		c-0.2-0.5-0.5-1-0.9-1.4C334.2,541.5,333.7,541.3,333.3,541.5L333.3,541.5z"/>
	<path class="st4" d="M347.6,546.8l1-0.3l1-0.3c0.1-0.1,0.3-0.1,0.5-0.1l0.5-0.1c0.2-0.1,0.4,0,0.6,0.1c0.2,0.1,0.3,0.3,0.3,0.5
		c0.1,0.2,0.1,0.3,0.2,0.5s0.1,0.3,0.1,0.5c0.1,0.4,0.2,0.8,0.3,1.2c0.1,0.4,0.1,0.8,0,1.2c-0.2,0.3-0.5,0.6-0.9,0.7l-1.1,0.3
		l-1.2,0.3l-2,0.4l-2,0.4h-0.3c-0.1,0-0.2,0-0.3,0c-0.5,0.1-0.9-0.2-1.1-0.7c-0.2-0.4-0.3-0.8-0.4-1.2c-0.1-0.4-0.2-0.8-0.2-1.3
		c0-0.4,0-0.8,0-1.3c0.1-0.4,0.2-0.9,0.4-1.3c0.1-0.3,0.3-0.7,0.5-1c0.2-0.3,0.4-0.6,0.6-0.9s0.5-0.7,0.7-1.2
		c0.3-0.4,0.5-0.9,0.7-1.4c0.2-0.5,0.4-0.9,0.5-1.4c0.1-0.4,0.1-0.9-0.1-1.3c-0.1-0.3-0.3-0.5-0.6-0.6c-0.3-0.1-0.5,0-0.7,0.2
		c-0.3,0.2-0.5,0.4-0.6,0.7c-0.1,0.3-0.1,0.7,0,1c0,0.2,0.1,0.4,0.1,0.7c0,0.2,0.1,0.4,0.1,0.7c0,0.2-0.1,0.5-0.2,0.7
		c-0.2,0.2-0.4,0.3-0.6,0.5c-0.3,0.1-0.5,0.2-0.8,0.2c-0.3,0-0.6,0-0.9,0c-0.2,0-0.5-0.1-0.7-0.2c-0.2-0.1-0.3-0.3-0.4-0.5
		c-0.3-0.9-0.4-1.7-0.5-2.7c0-0.9,0.2-1.8,0.6-2.6c0.6-1.2,1.7-2.1,3-2.5c0.5-0.2,1-0.3,1.6-0.3c0.5,0,1.1,0.1,1.5,0.4
		c0.7,0.4,1.4,0.9,1.9,1.5c0.5,0.7,0.9,1.4,1.1,2.2c0.2,0.7,0.2,1.4,0.2,2.1c0,0.7-0.2,1.5-0.4,2.2c-0.2,0.7-0.5,1.4-0.8,2.1
		c-0.3,0.6-0.6,1.2-1,1.7c0,0,0,0,0.1,0C347.7,546.7,347.7,546.7,347.6,546.8C347.7,546.8,347.7,546.8,347.6,546.8z"/>
	<path class="st4" d="M360.2,538"/>
	<path class="st4" d="M372.2,538.5c-0.4-1.2,0.3-2.5,1.5-2.9c1.2-0.4,2.5,0.3,2.9,1.5c0.4,1.2-0.3,2.5-1.5,2.9c0,0,0,0,0,0
		C373.9,540.3,372.6,539.7,372.2,538.5C372.2,538.5,372.2,538.5,372.2,538.5z"/>
	<path class="st4" d="M390,529.3c0.8,0.3,1.4,0.7,2,1.3c0.5,0.6,1,1.3,1.2,2c0.2,0.6,0.3,1.3,0.2,1.9c-0.1,0.6-0.4,1.2-0.7,1.8
		c-0.3,0.6-0.8,1.1-1.3,1.5c-0.5,0.4-1,0.7-1.5,1l-1.7,0.7l-1.7,0.7c-0.2,0.1-0.3,0.1-0.5,0.2l-0.5,0.1c-0.7,0.1-1.5-0.3-1.7-1.1
		c-0.1-0.3-0.2-0.6-0.3-0.9s-0.2-0.6-0.3-0.9s-0.3-0.8-0.4-1.2s-0.3-0.8-0.4-1.2c-0.3-0.8-0.6-1.6-0.9-2.4l-1-2.4
		c-0.3-0.6-0.5-1.3-0.8-1.9l-0.9-1.8c-0.1-0.3-0.2-0.6-0.2-0.9c0-0.2,0-0.5,0-0.7c0.1-0.2,0.2-0.4,0.4-0.5c0.2-0.2,0.5-0.4,0.7-0.5
		l1.7-0.6c0.6-0.2,1.2-0.4,1.8-0.5c0.6-0.1,1.2-0.2,1.7-0.3c0.5,0,1.1,0,1.6,0.1c0.5,0.1,1,0.2,1.5,0.5c0.4,0.2,0.8,0.5,1.1,0.9
		c0.3,0.4,0.6,0.8,0.8,1.2c0.2,0.5,0.3,1,0.3,1.5c0,0.4,0,0.8,0,1.3c0,0.2,0,0.4-0.1,0.6C390.1,528.9,390.1,529.1,390,529.3z
		 M384.1,529.3c0.2-0.1,0.5-0.1,0.7-0.2c0.2-0.1,0.4-0.3,0.6-0.4c0.2-0.2,0.3-0.4,0.4-0.6c0.1-0.2,0.1-0.5,0-0.7
		c-0.1-0.2-0.3-0.5-0.5-0.6c-0.2-0.1-0.4-0.2-0.7-0.1c-0.2,0-0.4,0.1-0.5,0.2l-0.5,0.2c-0.2,0.1-0.3,0.3-0.2,0.4c0,0,0,0,0,0
		c0.1,0.3,0.3,0.6,0.4,0.9C383.8,528.7,384,529,384.1,529.3L384.1,529.3z M386.5,535.6c0.3-0.1,0.6-0.2,0.9-0.4
		c0.3-0.2,0.5-0.4,0.7-0.7c0.1-0.1,0.2-0.3,0.3-0.5c0-0.2,0-0.4-0.1-0.6c-0.2-0.4-0.6-0.7-1-0.6c-0.3,0-0.6,0-0.9,0.1
		c-0.3,0.1-0.6,0.2-0.8,0.5l0.7,1.9c0,0.1,0,0.1,0.1,0.2C386.5,535.5,386.5,535.5,386.5,535.6L386.5,535.6z"/>
	<path class="st4" d="M404.9,523.2c0.4,1.1,0.7,2.2,0.9,3.3c0.1,1,0.1,2.1-0.1,3.1c-0.2,0.9-0.5,1.8-1,2.6c-0.4,0.5-0.8,1-1.3,1.5
		c-0.5,0.4-1,0.7-1.6,0.9c-0.6,0.2-1.2,0.3-1.8,0.2c-0.7,0-1.3-0.2-1.9-0.4c-0.8-0.3-1.5-0.8-2.2-1.3c-0.6-0.6-1.2-1.2-1.7-1.9
		c-0.7-1-1.3-2.2-1.7-3.4c-0.4-1.2-0.5-2.5-0.4-3.8c0.1-0.6,0.2-1.2,0.4-1.8c0.2-0.6,0.4-1.2,0.7-1.7c0.3-0.6,0.8-1.1,1.3-1.5
		c0.5-0.4,1-0.7,1.6-0.9c0.6-0.2,1.2-0.3,1.9-0.2c0.7,0,1.4,0.2,2,0.5c0.8,0.3,1.5,0.8,2.2,1.3c0.6,0.6,1.2,1.2,1.7,1.9
		c0.2,0.3,0.4,0.7,0.6,1L404.9,523.2z M396.9,527.3c0.1,0.4,0.3,0.8,0.6,1.2c0.3,0.4,0.6,0.7,0.9,1c0.4,0.4,0.8,0.7,1.3,0.9
		c0.4,0.2,0.9,0.2,1.3,0.1c0.4-0.2,0.7-0.5,0.9-0.9c0.1-0.2,0.1-0.3,0.2-0.5c0.1-0.2,0.1-0.3,0.1-0.5c0.3-2.3-0.6-4.5-2.4-6
		c-0.2-0.2-0.3-0.3-0.5-0.4c-0.2-0.1-0.4-0.2-0.6-0.3c-0.3-0.1-0.7-0.1-1,0c-0.3,0.1-0.6,0.3-0.8,0.6c-0.1,0.2-0.2,0.5-0.3,0.7
		c-0.1,0.2-0.1,0.5-0.2,0.7C396.2,525.1,396.4,526.3,396.9,527.3L396.9,527.3z"/>
	<path class="st4" d="M414.9,515.9c-0.1,0.3-0.2,0.6-0.4,0.9c-0.2,0.3-0.4,0.5-0.6,0.7c-0.2,0.2-0.5,0.2-0.8,0.2
		c-0.3,0-0.6-0.2-0.9-0.4l-0.6-0.5l-0.6-0.4c-0.2-0.1-0.5-0.2-0.8-0.3c-0.4-0.2-0.9,0-1.1,0.4c-0.1,0.2-0.2,0.4-0.2,0.6
		c0,0.2,0,0.4,0.1,0.6c0.1,0.2,0.2,0.4,0.4,0.5c0.1,0.1,0.3,0.3,0.5,0.3l1.1,0.3c0.4,0.1,0.7,0.2,1.1,0.2s0.9,0.2,1.4,0.2
		c0.4,0.1,0.9,0.1,1.3,0.2c0.7,0.2,1.4,0.5,2,1c0.6,0.5,1,1.2,1.3,1.9c0.2,0.5,0.3,1.1,0.4,1.7c0,0.6-0.1,1.1-0.3,1.7
		c-0.3,0.9-0.8,1.6-1.5,2.2c-0.7,0.6-1.6,1-2.5,1.1c-0.7,0.2-1.5,0.2-2.2,0.1c-0.7-0.1-1.5-0.3-2.2-0.6c-0.4-0.2-0.8-0.4-1.1-0.7
		c-0.3-0.3-0.7-0.6-0.9-1c-0.3-0.4-0.4-0.8-0.3-1.3c0-0.4,0.1-0.8,0.3-1.1c0.2-0.4,0.4-0.7,0.7-0.9c0.3-0.2,0.6-0.3,0.9-0.3
		c0.3,0,0.6,0.1,0.9,0.3c0.2,0.1,0.4,0.3,0.5,0.4l0.5,0.4c0.3,0.3,0.6,0.4,1,0.5c0.3,0.1,0.7,0.1,1,0c0.3-0.1,0.6-0.2,0.8-0.4
		c0.2-0.2,0.2-0.6,0.1-0.8c-0.1-0.3-0.3-0.5-0.5-0.7c-0.3-0.2-0.6-0.4-0.9-0.4l-1.2-0.2c-0.4-0.1-0.8-0.1-1.2-0.2
		c-1.3-0.1-2.5-0.5-3.7-1.1c-0.6-0.4-1.1-0.9-1.5-1.5c-0.3-0.6-0.5-1.2-0.6-1.9c-0.1-0.7,0-1.4,0.3-2c0.3-0.7,0.7-1.2,1.2-1.7
		c0.6-0.5,1.3-1,2-1.3c0.6-0.3,1.3-0.5,2-0.5c0.6,0,1.1,0,1.7,0.2c0.6,0.1,1.2,0.3,1.7,0.6c0.5,0.3,0.9,0.7,1.2,1.2
		C415,514.6,415.1,515.3,414.9,515.9z"/>
	<path class="st4" d="M422.3,510.8c0.1,0.2,0.2,0.4,0.3,0.6s0.2,0.4,0.3,0.6l1.8,3.5c0.6,1.2,1.2,2.3,1.8,3.5
		c0.2,0.4,0.4,0.7,0.6,1.1s0.4,0.7,0.6,1.1c0.1,0.2,0.2,0.4,0.2,0.5c0,0.2,0.1,0.4,0.1,0.6c0,0.2,0,0.4-0.1,0.5
		c-0.1,0.2-0.3,0.3-0.4,0.4c-0.2,0.1-0.5,0.2-0.7,0.4s-0.5,0.2-0.7,0.3c-0.2,0.1-0.3,0.1-0.5,0.2c-0.3,0.1-0.6,0.1-0.9,0
		c-0.2-0.2-0.4-0.4-0.5-0.7l-1.6-3.3c-0.5-1.1-1.1-2.2-1.6-3.3c-0.3-0.6-0.5-1.2-0.9-1.8s-0.6-1.2-0.9-1.8c0-0.1-0.1-0.2-0.1-0.3
		c-0.1-0.1-0.1-0.2-0.1-0.2l-0.9,0.4c-0.3,0.1-0.6,0.3-0.8,0.4c-0.2,0.1-0.5,0.2-0.8,0.3c-0.2,0.1-0.3,0.1-0.5,0
		c-0.2-0.1-0.3-0.2-0.4-0.3c-0.1-0.2-0.3-0.4-0.4-0.7c-0.1-0.2-0.2-0.4-0.3-0.6c-0.1-0.2-0.2-0.4-0.3-0.6c-0.1-0.2-0.2-0.5-0.2-0.7
		c0.1-0.2,0.2-0.5,0.4-0.6l0.5-0.4c0.1-0.1,0.3-0.2,0.5-0.3l1.8-1l1.9-1l1.6-0.8l1.5-0.7c0.1,0,0.2-0.1,0.3-0.1l0.3-0.1
		c0.4-0.1,0.9,0.1,1.1,0.5c0.2,0.3,0.3,0.6,0.5,0.9s0.3,0.6,0.4,0.9c0.1,0.2,0.2,0.5,0.1,0.7c-0.1,0.2-0.3,0.4-0.5,0.5l-1.1,0.6
		L422.3,510.8z"/>
	<path class="st4" d="M439.6,506c0.6,1,1,2.1,1.3,3.2c0.3,1,0.4,2.1,0.3,3.1c0,0.9-0.3,1.9-0.6,2.7c-0.3,0.6-0.7,1.1-1.1,1.6
		c-0.4,0.4-0.9,0.8-1.5,1c-0.6,0.3-1.2,0.4-1.8,0.4c-0.7,0-1.3,0-2-0.2c-0.8-0.2-1.6-0.6-2.3-1c-0.7-0.5-1.3-1-1.9-1.7
		c-0.8-1-1.5-2-2-3.2c-0.5-1.2-0.8-2.4-0.9-3.7c0-0.6,0-1.2,0.1-1.9c0.1-0.6,0.3-1.2,0.5-1.8c0.3-0.6,0.7-1.2,1.1-1.7
		c0.4-0.5,0.9-0.8,1.5-1.1c0.6-0.3,1.2-0.4,1.8-0.5c0.7,0,1.3,0,2,0.2c0.8,0.2,1.6,0.6,2.3,1c0.7,0.5,1.3,1.1,1.9,1.7
		c0.3,0.3,0.5,0.6,0.7,0.9L439.6,506z M432.2,511c0.2,0.4,0.4,0.8,0.7,1.1c0.3,0.3,0.6,0.7,1,0.9c0.4,0.3,0.9,0.6,1.4,0.7
		c0.4,0.1,0.9,0.1,1.3-0.1c0.4-0.2,0.7-0.6,0.8-1c0.1-0.2,0.1-0.3,0.2-0.5c0-0.2,0.1-0.4,0-0.5c0-2.3-1.2-4.4-3.1-5.6
		c-0.2-0.1-0.4-0.2-0.6-0.3c-0.2-0.1-0.4-0.1-0.7-0.2c-0.3-0.1-0.7,0-1,0.1c-0.3,0.2-0.6,0.4-0.7,0.7c-0.1,0.2-0.2,0.5-0.2,0.7
		c0,0.2-0.1,0.5-0.1,0.8C431.2,509,431.6,510.1,432.2,511L432.2,511z"/>
	<path class="st4" d="M444.6,504c0.6,0.8,1.1,1.7,1.7,2.5l1.7,2.5c0.2,0.2,0.3,0.5,0.4,0.7l0.4,0.7c0.2,0.4,0.2,0.8-0.2,1.1
		l-0.2,0.2c-0.1,0.1-0.2,0.1-0.2,0.2l-0.7,0.4l-0.7,0.4c-0.6,0.4-1.3,0.2-1.7-0.3c0,0,0,0,0-0.1c-0.2-0.2-0.3-0.5-0.4-0.7
		c-0.1-0.2-0.3-0.5-0.4-0.7c-0.3-0.5-0.5-1-0.8-1.5l-0.8-1.5l-1.2-2.2c-0.4-0.7-0.8-1.4-1.3-2.1s-0.8-1.4-1.3-2s-0.9-1.4-1.4-2
		c-0.2-0.3-0.4-0.6-0.4-0.9c0-0.2,0.2-0.5,0.6-0.8c0.6-0.4,1.2-0.8,1.9-1c0.2-0.1,0.5-0.1,0.7-0.1c0.2,0.1,0.5,0.1,0.7,0.2l0.6,0.3
		l0.6,0.3c1,0.6,2,1.2,3,1.9c1,0.6,2,1.2,3,1.6c-0.2-0.3-0.4-0.7-0.6-1c-0.2-0.3-0.4-0.7-0.6-1c-0.4-0.6-0.8-1.3-1.2-2
		s-0.9-1.3-1.2-1.9c-0.4-0.5-0.3-1.3,0.2-1.7c0,0,0,0,0,0c0.3-0.2,0.5-0.5,0.8-0.6c0.3-0.2,0.6-0.3,1-0.4c0.6-0.3,1.3-0.1,1.7,0.5
		c0.2,0.4,0.5,0.8,0.9,1.3s0.6,0.9,0.8,1.3c0.4,0.6,0.8,1.2,1.2,1.9s0.8,1.3,1.2,1.9c0.3,0.4,0.6,0.9,0.8,1.3
		c0.3,0.5,0.6,0.9,0.9,1.3l1,1.6l1,1.6c0.2,0.2,0.3,0.5,0.3,0.7c0.1,0.3,0,0.5-0.2,0.7c-0.3,0.3-0.6,0.6-1,0.9l-1.1,0.7
		c-0.2,0.2-0.5,0.3-0.8,0.3c-0.3,0-0.6-0.1-0.8-0.2l-0.4-0.2l-0.4-0.2c-0.5-0.4-1.1-0.8-1.6-1.1c-0.6-0.3-1.1-0.6-1.8-0.9
		c-0.6-0.2-1.2-0.5-1.7-0.8c-0.5-0.3-1.1-0.6-1.7-0.8C444.8,504,444.7,504,444.6,504C444.7,504,444.6,504,444.6,504L444.6,504
		L444.6,504z"/>
	<path class="st4" d="M460.5,501.4c0.2,0.3,0.4,0.7,0.5,1.1c0.1,0.4,0.1,0.8,0.1,1.2c0.1,0.8-0.4,1.5-1.1,1.8
		c-0.4,0.2-0.8,0.1-1-0.3c0,0,0,0,0-0.1c0,0,0-0.1-0.1-0.2c0-0.1,0-0.1-0.1-0.2c-0.2-0.5-0.5-1-1-1.3c-0.4-0.3-0.7-0.7-0.8-1.2
		c0-0.5,0.2-1,0.6-1.3c0.4-0.4,0.9-0.7,1.5-0.6C459.7,500.5,460.2,500.9,460.5,501.4z"/>
	<path class="st4" d="M474.4,482.8c0.1,0.4,0.2,0.8,0.3,1.2s0.2,0.8,0.3,1.2c0,0,0,0.1,0,0.1c0,0,0,0.1,0,0.1
		c0.3,0.6,0.1,1.4-0.5,1.8c-0.2,0.1-0.4,0.3-0.5,0.5c-0.1,0.2-0.3,0.3-0.5,0.5c-0.2,0.1-0.4,0.2-0.6,0.3c-0.2,0-0.4,0-0.6-0.1
		c-0.4-0.1-0.9-0.3-1.3-0.5c-0.4-0.2-0.8-0.4-1.2-0.5c-0.1,0-0.3,0-0.4,0c-0.1,0,0,0.2,0.3,0.5l3.4,3.5l0.1,0.2
		c0.4,0.3,0.6,0.7,0.7,1.2c-0.1,0.5-0.3,0.9-0.6,1.2c-0.2,0.2-0.4,0.4-0.6,0.6l-0.6,0.5c-0.3,0.2-0.6,0.3-0.9,0.2
		c-0.3-0.1-0.6-0.2-0.9-0.5c-0.1-0.2-0.3-0.4-0.5-0.6s-0.4-0.5-0.6-0.7l-0.6-0.7c-0.2-0.2-0.4-0.4-0.6-0.6l-3.8-4
		c-1.2-1.3-2.5-2.6-3.9-4l-0.1-0.1c-0.2-0.2-0.4-0.5-0.5-0.8c0-0.3,0.2-0.6,0.4-0.8c0.2-0.2,0.4-0.4,0.7-0.6l0.7-0.6
		c0.2-0.1,0.4-0.2,0.6-0.2c0.2,0,0.4,0,0.6,0.1l2.9,0.8c1,0.3,1.9,0.5,2.9,0.8h0.2h0.2c0.3,0.1,0.5,0,0.6,0s0.1-0.3,0.1-0.6v-0.3
		c0-0.1,0-0.2-0.1-0.3c-0.2-0.7-0.4-1.4-0.6-2.1s-0.4-1.4-0.6-2.1c0-0.2-0.1-0.5-0.2-0.6c-0.1-0.2-0.1-0.4-0.2-0.7
		c-0.1-0.2-0.1-0.5,0-0.8c0.1-0.2,0.2-0.5,0.4-0.6c0.2-0.2,0.4-0.4,0.6-0.6c0.2-0.2,0.4-0.4,0.6-0.6c0.5-0.5,1.4-0.5,1.9,0
		c0.1,0.1,0.3,0.2,0.4,0.3c0.1,0.1,0.2,0.2,0.4,0.4l2.6,2.8l2.7,2.8l1,1.1l1.1,1.1l1.1,1.1l1,1c0.4,0.2,0.6,0.8,0.4,1.2
		c-0.1,0.1-0.2,0.3-0.3,0.3c-0.2,0.2-0.4,0.4-0.6,0.6s-0.4,0.4-0.6,0.6c-0.2,0.3-0.6,0.4-0.9,0.4c-0.4-0.1-0.7-0.2-0.9-0.5l-1-1
		l-1.1-1l-1.1-1l-1-1L474.4,482.8l0-0.2l0,0L474.4,482.8z"/>
	<path class="st4" d="M487.1,472.4c-0.3,0.6-0.5,1.3-0.8,1.9s-0.5,1.2-0.8,1.8l0.6,0.4l0.6,0.4c0.3,0.1,0.5,0.4,0.6,0.7
		c0.1,0.3,0.1,0.6,0,0.9c-0.2,0.6-0.5,1.2-0.9,1.8c-0.1,0.3-0.4,0.4-0.6,0.5c-0.3,0-0.6,0-0.8-0.1c-1-0.5-2-1-3.1-1.6
		c-1.1-0.6-2.2-1.3-3.3-2c-1-0.7-2-1.5-2.9-2.3c-0.8-0.8-1.5-1.7-2-2.7c-0.3-0.7-0.5-1.4-0.6-2.2c-0.1-0.7,0-1.5,0.3-2.2
		c0.2-0.6,0.5-1.1,1-1.5c0.4-0.4,0.9-0.7,1.5-0.9c0.6-0.2,1.2-0.3,1.8-0.4c0.6,0,1.3,0,1.9,0c0.6,0.1,1.2,0.1,1.8,0.3
		c0.5,0.1,1.1,0.3,1.6,0.4c1.3,0.4,2.5,0.9,3.7,1.5c1.2,0.6,2.4,1.2,3.5,1.8c0.3,0.2,0.6,0.4,0.8,0.6c0.2,0.2,0.3,0.6,0.2,0.9
		c-0.1,0.3-0.3,0.7-0.4,1s-0.3,0.7-0.5,1s-0.4,0.5-0.6,0.6c-0.3,0-0.7,0-0.9-0.2l-0.8-0.3L487.1,472.4z M483.5,470.9
		c-0.3-0.2-0.7-0.3-1.1-0.5s-0.9-0.4-1.3-0.5c-0.8-0.3-1.7-0.5-2.5-0.4c-0.6,0.1-0.9,0.3-1,0.6c0,0.2,0,0.5,0.1,0.7
		c0.2,0.3,0.3,0.6,0.6,0.8c0.3,0.3,0.5,0.6,0.9,0.9c0.3,0.3,0.7,0.6,1,0.8s0.7,0.5,1,0.7c0.3,0.2,0.6,0.3,0.9,0.5
		c0.3-0.6,0.5-1.2,0.8-1.8L483.5,470.9z"/>
	<circle class="st5" cx="276.1" cy="295.3" r="175.2"/>
	<circle class="st6" cx="276.1" cy="295.3" r="99.8"/>
	<path class="st7" d="M463.2,379.7c-36.8-26.1-80.3-43.8-188-43.8c-108.6,0-162.4,17.7-188,43.8c-36.3,37,84.2,93.8,188,93.8
		S505.5,409.7,463.2,379.7z"/>
	<path class="st6" d="M262.4,394.5l102.1-52.9c-23.9-3.7-53-5.7-89.3-5.7c-36,0-66,2-90.9,5.5L262.4,394.5z"/>
	<path class="st6" d="M133.2,167l66.3,58.8c9.9-9.9,21.4-17.9,34-23.8l-40.1-78C170.9,134.6,150.6,149.2,133.2,167z"/>
	<path class="st8" d="M214.6,499.8c0.9,6.4,3.3,12.5,6.9,17.9c4.2,5.9,55.6,21.9,59.4-6.2c0,0-7.7-82.3-8.8-93l-8.2-4.9
		c0,0-31.6,9-51.2,0.8l-5.8,7.8L214.6,499.8z"/>
	<path class="st9" d="M447.8,304.1c0,0,20.1,2.2,26.2,8.7c0,0,20.1,47.3-43.6,73.2"/>
	<path class="st9" d="M479.8,335.4c0,0,32.7-7.5,27.3,8c-5.9,17.2-27.6,74.9,0,79.1"/>
	<path class="st9" d="M466.8,304.1c0,0,12-43.6,2.2-75.8c0,0,20.2,2.7,25.1-7.6s108.4-6.9,92.1,116.2"/>
	<path class="st9" d="M486.4,226.9c0,0-34.7-95.8-85.9-55"/>
	<circle class="st6" cx="586.2" cy="335.9" r="22.9"/>
	<circle class="st5" cx="516.7" cy="433.4" r="22.9"/>
	<circle class="st1" cx="406.6" cy="395.1" r="25.5"/>
	<path class="st9" d="M567,249.4c0,0-23.3,14.6-40.8,17.7c0,0,3.9,10-4,24.9"/>
	<circle class="st10" cx="522.2" cy="301.9" r="19.6"/>
	<path class="st9" d="M463.4,185.1c0,0,17.4-4.8,16.4-16.7c0,0,33.4,23.3,47.2,8.4"/>
	<circle class="st7" cx="536.3" cy="178.7" r="14.1"/>
	<path class="st6" d="M382.2,142.8l-48.4,68.4c9.1,6.9,17.1,15.2,23.7,24.5l66.4-48.7C412.3,170.1,398.3,155.2,382.2,142.8z"/>
	<path class="st6" d="M456.3,328.2c2.3-10.8,3.4-21.8,3.4-32.9c0-5.2-0.3-10.3-0.8-15.4l-83.6,4.8c1.1,9.2,0.7,18.5-1,27.6
		L456.3,328.2z"/>
	<path class="st4" d="M214.2,343.2c13.6-2.1,27.3-3.5,40.9-4.6c13.7-1,27.4-1.7,41.2-1.6c3.5,0,6.9,0.1,10.5,0.3
		c0.9,0,1.8,0.1,2.7,0.2s1.8,0.1,2.7,0.3c0.5,0.1,0.9,0.1,1.4,0.2l1.5,0.3c1,0.2,2,0.4,3,0.8c0.4,0.1,0.8,0.3,1.2,0.5
		c0.5,0.2,0.9,0.5,1.3,0.8c0.2,0.2,0.4,0.4,0.6,0.6c0.1,0.1,0.2,0.3,0.4,0.5c0.2,0.3,0.3,0.5,0.5,0.8c0.2,0.3,0.3,0.7,0.3,1.1
		c0.1,0.5,0.1,0.9,0.1,1.4c0,0.5-0.1,0.9-0.3,1.3c-0.1,0.4-0.3,0.7-0.5,1c-0.2,0.3-0.3,0.5-0.5,0.7l-0.4,0.4
		c-0.1,0.1-0.3,0.3-0.4,0.3l-0.3,0.2l-0.3,0.2l-0.2,0.1l-0.4,0.2c-0.3,0.1-0.6,0.2-0.9,0.3c-0.5,0.1-0.8,0.2-1.1,0.3
		c-1.2,0.2-2.1,0.3-3,0.4c-1.8,0.2-3.5,0.3-5.3,0.4l-10.2,0.7c-6.8,0.5-13.5,1-20,1.9c-3.3,0.5-6.5,1-9.7,1.7c-3,0.6-6,1.6-8.8,2.9
		l-2-7.6c2.9,0.1,5.6,0.3,8.3,0.6s5.5,0.7,8.2,1.2c2.8,0.5,5.5,1.2,8.2,2c2.9,0.8,5.6,2.2,8,4.1l3.1,2.6l-3.7,1.1
		c-2.6,0.8-5.2,1.7-7.8,2.6s-5.1,2-7.6,3.1c-2.5,1.1-4.9,2.5-7.2,4c-1.1,0.8-2.1,1.7-3,2.7c-0.9,1-1.5,2.3-1.4,3.7
		c-0.3-1.4,0.1-2.9,0.9-4.1c0.8-1.2,1.7-2.3,2.8-3.3c2.1-1.9,4.4-3.6,6.8-5.1c2.4-1.5,4.9-2.9,7.4-4.2c2.5-1.3,5.1-2.5,7.7-3.6
		l-0.6,3.7c-2.1-1.1-4.4-1.9-6.8-2.2c-2.5-0.4-5.1-0.7-7.7-0.9c-2.6-0.2-5.2-0.2-7.8-0.3s-5.3,0-7.8,0.1l-16.5,0.8l14.5-8.4
		c3.3-1.8,6.8-3.2,10.5-4.2c3.4-1,6.9-1.8,10.4-2.4c6.9-1.3,13.9-2,20.7-2.6l10.3-0.8l5-0.4c0.8-0.1,1.6-0.2,2.1-0.3
		c0.1,0,0.2,0,0.2,0c-0.1,0-0.2,0.1-0.3,0.1l-0.2,0.1l-0.1,0.1l-0.2,0.1l-0.2,0.1l-0.3,0.3l-0.3,0.3c-0.2,0.2-0.4,0.4-0.5,0.7
		c-0.2,0.3-0.3,0.6-0.5,0.9c-0.1,0.4-0.2,0.8-0.3,1.3c0,0.4,0,0.9,0.1,1.3c0.1,0.3,0.2,0.7,0.3,1c0.1,0.3,0.3,0.5,0.4,0.8
		c0.1,0.2,0.2,0.3,0.3,0.4c0.2,0.2,0.3,0.4,0.5,0.5c0.2,0.2,0.5,0.4,0.8,0.5c0.2,0.1,0.1,0,0,0c-2.9-0.7-5.9-1.2-8.9-1.4
		c-3.3-0.3-6.6-0.4-10-0.6c-13.5-0.6-27.2-0.9-40.8-1.3S228,344.3,214.2,343.2z"/>
</g>
<g id="Layer_2_00000150811440263204376320000008986800778133421467_">
	<path class="st4" d="M75.4,180c0.1-0.4,0.1-0.9,0.2-1.3C75.6,178.7,75.5,179.2,75.4,180z"/>
	<path class="st4" d="M118.7,412.1c-11.2-91.6-2.6-143.6,4.7-168.5c2-6.3,4.4-12.5,7.2-18.6c-27.5-13.5-27.5-43.3-27.5-43.3l-27.5-3
		l-0.3,2.3c0-0.4,0.1-0.7,0.1-1c-1.9,12.6-3.4,25-4.8,37.1v0.3l0,0c-14.1,132.4,5,231.9,5,231.9c3.3,21.6,27.5,33.2,27.5,33.2
		l33.2,10.6C128.8,466.5,122.9,439.4,118.7,412.1z"/>
	<path class="st4" d="M73.1,433.2c0,0-14.6,2.9-14.6-20.8s-7.4-98,0-164.7c2.9-11.5,12.4-20.1,24.1-22l9.6,9.8l-16.6,49.1
		L73.1,433.2z"/>
	<path class="st4" d="M127.1,257.7c0,0-7.4,78.5,6.5,92.5c0,0,27.3-8.9,31.6-5.6c0,0-9.3-75.2,0-85.5l-10.4-9l-24.8,0.3L127.1,257.7
		z"/>
	<path class="st4" d="M147,496.2c0,0-43.7-88-11.4-195l17.2-3.9c0,0,23.7,10.1,40.1,7.7c0,0-12.7,139.8,14.1,203.5
		C206.9,508.5,177,535.6,147,496.2z"/>
	<path class="st11" d="M216,414.4l-9.1,12l9.1,74.9c0,0-2.2-71.3,8-68.8s41.8,6.7,50.3-0.9C274.4,431.6,216.5,436.8,216,414.4z"/>
	<path class="st11" d="M82.6,200.4c0,0,2.3,15.9,20.5,21.7c0,0-9.5,47-10.6,73.2c0,0,13.1-72.9,19.3-72.2
		C93.1,213.6,89,214.5,82.6,200.4z"/>
	<path class="st11" d="M93.2,333.6c0,0-7.1,78.1,16.3,137C109.5,470.5,99.6,349.7,93.2,333.6z"/>
	<path class="st11" d="M131.8,257.7c0,0,21.2,1.5,28.9,0.4c0,0-4.3,12.3-3.6,21.8c0,0-3.4-12.3,0.7-19.4
		C157.7,260.5,133.8,261.5,131.8,257.7z"/>
	<path class="st11" d="M133.7,332c0,0-2.6-21.1,4.6-28.5c0,0,25.5,6.7,35,7.4c0,0-26.6,0.9-33-4.2
		C140.2,306.7,135.2,308.8,133.7,332z"/>
	<path class="st11" d="M67.9,247.8c0,0-6.7,73.7-2.5,97.6S52.5,248.8,67.9,247.8"/>
	<path class="st11" d="M136.8,379.9c0,0-8.6,53.5,20.9,116.8C157.7,496.6,139.2,438.3,136.8,379.9z"/>
	<polygon class="st10" points="55.3,334.2 82.6,281.2 114.4,371.2 158.5,339.6 239.1,464.6 319.7,424.5 302.4,398.8 400.5,394.4 
		356.7,476.8 329.5,441.9 233.5,501.3 153.2,371.2 108.9,400.5 80.6,323.8 55.8,356.2 	"/>
	<path class="st4" d="M244,250.1c1.2-2.8,2.1-5.7,2.9-8.7c0.8-3.1,1.4-6.2,2.1-9.3s1.2-6.1,1.8-9.1c0.5-2.8,1.2-5.5,2-8.2
		c0.2-0.8,0.5-1.6,0.8-2.6c0.3-0.9,0.7-1.8,1.2-2.6c0.4-0.8,1-1.4,1.6-2c0.7-0.6,1.5-0.9,2.4-1c1.5-0.1,3-0.2,4.3-0.2
		c1.4-0.1,2.7,0,4.1,0.1c0.7,0,1.4,0.1,2,0.2c0.5,0.1,1,0.3,1.4,0.6c0.4,0.4,0.6,0.9,0.6,1.4c0,0.8-0.1,1.6-0.4,2.4
		c-2.8,8.5-5.6,17.2-8.5,25.9c-2.8,8.6-5.2,17.4-7.2,26.3c-0.1,0.6-0.4,1.2-0.7,1.7c-0.3,0.5-0.6,1-0.9,1.6
		c-0.6,1.3-1.9,2.1-3.3,2.1c-1.8,0.1-3.7,0.2-5.5,0.4c-1.8,0.1-3.7,0.1-5.5,0c-1.8-0.1-3.5-0.6-5-1.6c-1.5-1.2-2.5-2.9-2.8-4.8
		c-0.4-1.7-0.8-3.4-1.1-5.1c-0.3-1.7-0.6-3.4-1-5.1c-0.9-4.8-2-9.5-3.3-14.1s-2.7-9.3-4.2-13.9c-0.7-1.9-1.3-3.9-2-5.8
		c-0.6-2-1.1-4-1.3-6c-0.3-1.3-0.1-2.7,0.6-3.9c0.7-1.1,1.8-1.8,3.1-1.9c1.2-0.2,2.5-0.3,3.7-0.2c1.3,0.1,2.5,0.1,3.8,0
		c0.9-0.1,1.8,0.1,2.6,0.6c0.7,0.6,1.3,1.3,1.6,2.2c0.4,0.8,0.7,1.6,1,2.4c0.3,0.8,0.6,1.6,0.8,2.5c0.7,2.5,1.4,5.3,2.1,8.4
		s1.2,6.3,1.9,9.5s1.3,6.4,2,9.5C242.2,244.6,243,247.4,244,250.1z"/>
	<path class="st4" d="M291.7,261.4c0,1.3-0.1,2.6-0.2,3.9c-0.1,1.6-1.3,2.9-2.9,3.1c-0.5,0-1.1,0.1-1.8,0.1l-2.2,0.2
		c-0.7,0-1.4,0.1-2.1,0.1c-0.6,0-1.1,0-1.7-0.1c-1.5,0-2.9-0.5-4-1.6c-0.9-1.2-1.4-2.7-1.2-4.2v-5.9c0-3.5,0.1-7,0.1-10.8
		s0-7.5,0.1-11.3s0.1-7.6,0.2-11.3s0.2-7.3,0.4-10.8v-1.5c0-0.5,0-1,0.1-1.5c0-0.8,0.3-1.6,0.8-2.2c0.6-0.6,1.4-0.9,2.2-0.8
		c0.6,0,1.4,0,2.2,0s1.7,0,2.6,0l2.6,0.1c0.8,0,1.6,0.1,2.2,0.1c0.8,0,1.6,0.3,2.2,0.9c0.5,0.7,0.7,1.5,0.7,2.3
		c0.1,0.8,0.1,1.6,0.1,2.5c0,0.8-0.1,1.7-0.1,2.6v30.6c0,3.6,0,6.6,0,9C291.8,257.3,291.7,259.5,291.7,261.4z"/>
	<path class="st4" d="M335.3,226.3c-0.7,1-1.6,1.8-2.6,2.5c-0.9,0.6-1.9,1.1-3,1.2c-1,0.2-2,0-2.8-0.4c-1-0.6-1.8-1.5-2.2-2.6
		c-0.4-0.8-0.8-1.6-1.2-2.4s-0.9-1.6-1.3-2.3c-0.5-0.8-1.2-1.5-2-2c-1.2-1.1-3-1.2-4.3-0.2c-0.7,0.4-1.3,0.9-1.6,1.6
		c-0.3,0.7-0.5,1.4-0.5,2.1c0,0.7,0.1,1.5,0.4,2.2c0.2,0.7,0.7,1.3,1.3,1.8c1,0.8,2.1,1.6,3.2,2.4s2.2,1.6,3.3,2.3
		c1.3,0.9,2.7,1.8,4.1,2.7c1.4,0.8,2.7,1.7,3.9,2.7c2.2,1.7,4,3.8,5.1,6.3c1.1,2.5,1.6,5.3,1.5,8c-0.1,2.1-0.5,4.1-1.2,6
		c-0.7,1.9-1.8,3.6-3.3,5c-2.2,2.4-5.1,4.2-8.3,5.1c-3.2,0.8-6.5,0.9-9.7,0.1c-2.6-0.5-5.1-1.5-7.4-3c-2.3-1.4-4.3-3.1-6.2-5.1
		c-1.1-1.2-2-2.5-2.7-3.9c-0.7-1.4-1.2-3-1.6-4.5c-0.3-1.6,0-3.3,0.8-4.7c0.6-1.2,1.5-2.3,2.5-3.2c1-0.9,2.3-1.5,3.6-1.8
		c1.2-0.3,2.4-0.2,3.5,0.3c1.1,0.4,2,1.2,2.5,2.2c0.4,0.6,0.8,1.3,1.1,2c0.3,0.7,0.6,1.4,1,2.1c0.6,1.2,1.4,2.3,2.5,3.1
		c1,0.8,2.2,1.3,3.4,1.6c1,0.2,2.1,0.1,3.1-0.3c1-0.5,1.6-1.5,1.6-2.6c0.1-1-0.1-2.1-0.6-3c-0.5-1.1-1.3-2-2.2-2.7l-3.6-2.5
		c-1.2-0.8-2.4-1.6-3.7-2.4c-4-2.3-7.6-5.4-10.5-8.9c-1.5-2-2.4-4.4-2.6-6.9c-0.2-2.4,0-4.8,0.8-7c0.8-2.3,2.1-4.3,3.9-6
		c1.8-1.8,4.1-3.1,6.5-3.8c2.7-0.8,5.5-1.3,8.4-1.3c2.5-0.1,5,0.3,7.3,1.2c1.8,0.8,3.5,1.8,5.1,3c1.8,1.2,3.3,2.8,4.6,4.5
		c1.2,1.6,1.9,3.5,2.2,5.5C337.4,222.5,336.7,224.7,335.3,226.3z"/>
	<path class="st4" d="M225.7,331.3c0,0.7-0.1,1.5-0.1,2.3s0,1.5-0.1,2.3c-0.1,0.8-0.3,1.5-0.7,2.2c-0.5,0.7-1.4,1.1-2.2,1.1
		c-1.4,0-2.7,0.1-4.1,0.1s-2.7-0.1-4.1-0.2c-1.7-0.1-3.1-1.5-3.1-3.2c-0.1-0.4-0.2-0.8-0.2-1.3v-1.3c0.2-8.4,0.3-16.3,0.5-23.6
		c0.2-7.4,0.2-14.7,0.2-21.8c0-0.9-0.1-1.9-0.2-2.8c-0.1-1-0.2-1.9-0.4-2.8c-0.3-1.1-0.1-2.2,0.3-3.2c0.7-0.8,1.7-1.3,2.8-1.4
		c2.3-0.3,4.7-0.5,7-0.5c2.5,0,4.9,0.2,7.4,0.5c2.4,0.4,4.8,1,7.1,1.8c2.2,0.8,4.3,1.9,6.3,3.3c2.2,1.6,4.1,3.6,5.5,6
		c1.4,2.3,2.4,4.9,2.9,7.6c0.5,2.7,0.7,5.5,0.4,8.2c-0.2,2.7-0.9,5.4-1.9,7.9c-1,2.5-2.4,4.7-4.2,6.7c-1.8,2-4,3.6-6.5,4.6
		c-1.1,0.5-2.3,0.9-3.4,1.1c-1.2,0.2-2.5,0.3-3.7,0.3h-5.6L225.7,331.3z M226.7,294.4c-0.1,2.5-0.2,4.9-0.2,7.2
		c-0.1,2.4,0,4.7,0.1,7.1c0.9,0,1.8,0,2.7,0s1.7,0,2.6,0c1.2-0.1,2.4-0.5,3.3-1.3c0.9-0.7,1.5-1.8,1.7-3c0.3-1,0.4-2.1,0.3-3.2
		c-0.1-1.1-0.4-2.2-0.9-3.1c-1-2.1-3-3.5-5.3-3.8c-0.7-0.1-1.3-0.1-2-0.1C228.3,294.4,227.5,294.4,226.7,294.4L226.7,294.4z"/>
	<path class="st4" d="M272.3,304.8c1.5,0.1,3.1,0.1,4.9,0.2s3.4,0,5,0s2.8-0.1,3.6-0.2c0.3-4.1,0.5-8.1,0.6-11.9s0.2-7.8,0.5-11.7
		c0-1.2,0.5-2.3,1.5-2.9c1-0.7,2.1-1.1,3.3-1.3c1.3-0.2,2.7-0.3,4-0.2c1.4,0.1,2.6,0.2,3.6,0.4c0.7,0.1,1.3,0.5,1.8,1
		c0.4,0.5,0.7,1.2,0.8,1.8c0.2,0.7,0.2,1.4,0.2,2.1c-0.1,0.7-0.1,1.3-0.2,1.9c-0.1,3.7-0.2,7.5-0.3,11.4s-0.1,7.8-0.1,11.7
		s0,7.7,0.1,11.5s0.2,7.4,0.4,10.8c0.1,2,0.2,3.6,0.2,4.8c0,1-0.2,2-0.8,2.8c-0.7,0.8-1.6,1.3-2.6,1.5c-1.7,0.4-3.5,0.6-5.3,0.7
		c-1.4,0.1-2.9,0-4.2-0.4c-1-0.3-1.9-0.9-2.6-1.7c-0.7-0.9-1.1-2-1.3-3.1c-0.3-1.5-0.4-3-0.4-4.4c0-0.8,0-1.8,0-2.8s0-2.1,0-3.3
		v-6.2c-2.8-0.1-5.7-0.1-8.5,0c-2.9,0.1-5.8,0.1-8.6-0.2c-0.1,0.6-0.1,1.1-0.1,1.7s0,1.1,0,1.5c0,2-0.1,4.3-0.1,6.8v6.6
		c0.1,1.4-0.4,2.7-1.2,3.8c-0.8,1-2,1.6-3.3,1.6c-1.2,0-2.2,0.1-3.3,0.1c-1.1,0-2.1-0.1-3.1-0.2c-1.3,0-2.6-0.6-3.5-1.5
		c-0.7-0.8-1.1-1.9-1-3c0-4.7,0-9.4,0.1-14.1c0.1-4.7,0.2-9.2,0.2-13.6c0.1-4.4,0.1-8.6,0.1-12.6s0-7.8,0-11.3
		c-0.5-3.5,1.3-5.4,5.3-5.6c1-0.1,2.1-0.2,3.2-0.2s2.2,0,3.5,0.1c1.3,0,2.5,0.3,3.5,1c0.8,0.9,1.1,2.1,1,3.2c0,3.6,0,7.2,0,10.8
		s0,7.1,0,10.8v1.4C270.2,304.6,271.3,304.7,272.3,304.8z"/>
	<path class="st4" d="M343.5,319.1c-0.5,2.1-1.3,4.2-2.3,6.2c-1.1,2.2-2.5,4.2-4.2,6c-1.8,1.9-4,3.6-6.3,4.9
		c-2.6,1.5-5.5,2.4-8.5,2.8c-3.4,0.4-6.8,0.4-10.1-0.1c-0.8-0.2-1.6-0.4-2.4-0.8c-0.7-0.4-1.4-0.8-2-1.4c-1.2-1.1-1.8-2.6-1.8-4.2
		c0-2,0.1-4.1,0.2-6.1s0.1-4.1,0-6.1c-0.1-5.9-0.2-11.3-0.3-16.5s-0.1-10.2-0.1-15.2c0-1.2,0.1-2.4,0.1-3.6v-3.7
		c-0.1-1,0.2-2,0.8-2.9c0.8-0.6,1.7-1,2.7-1.1c4.7-0.8,9.5-0.7,14.1,0.5c8.7,1.7,15.9,7.7,19.1,15.9c1.5,3.9,2.4,8.1,2.4,12.4
		C345,310.4,344.5,314.8,343.5,319.1z M320.3,322.8c0.9,0.1,1.8,0,2.6-0.2c0.8-0.3,1.6-0.7,2.2-1.2c1.1-0.8,2-1.8,2.6-3
		c0.6-1.2,1.1-2.5,1.5-3.8c0.3-1.3,0.6-2.7,0.7-4.1c0.1-1.4,0.2-2.7,0.2-3.9c0-1.9-0.1-3.9-0.4-5.8c-0.2-1.8-0.8-3.5-1.6-5.1
		c-0.7-1.4-1.8-2.6-3.1-3.4c-1.6-0.8-3.4-1-5.1-0.6c0.5,5.1,0.8,10.3,0.8,15.5C320.7,312.4,320.6,317.5,320.3,322.8L320.3,322.8z"/>
	<path class="st11" d="M68.2,411.3c-0.1,0-0.2,0-0.2,0c-0.1,0-0.1,0-0.2-0.1c-0.1,0-0.1-0.1-0.2-0.1c0-0.1,0-0.2,0-0.2
		c0-0.2,0-0.3,0.1-0.5c0-0.2,0-0.3,0-0.5c0-0.2,0.1-0.3,0.2-0.4c0.1-0.1,0.3-0.1,0.4-0.1h0.4c0.2,0,0.3,0,0.5,0
		c0.1,0,0.3-0.1,0.4-0.2c0.1-0.1,0.2-0.2,0.2-0.4c0-0.1,0-0.3-0.1-0.4c-0.1-0.1-0.2-0.2-0.3-0.3c-0.1-0.1-0.2-0.1-0.4-0.2l-0.4-0.1
		c-0.3,0-0.7,0-1,0c-0.4,0-0.7,0.1-1.1,0.1c-0.4,0.1-0.7,0.2-1.1,0.3c-0.3,0.1-0.6,0.2-0.9,0.4c-0.1,0.1-0.3,0.1-0.4,0.1
		c-0.1-0.1-0.2-0.2-0.3-0.3c0-0.1-0.1-0.3-0.1-0.4c0-0.1-0.1-0.3-0.1-0.4c-0.1-0.2,0-0.4,0.1-0.6c0.1-0.1,0.3-0.3,0.4-0.3
		c0.3-0.1,0.7-0.2,1-0.3c0.4-0.1,0.8-0.2,1.2-0.2c0.4-0.1,0.9-0.1,1.3-0.1c0.4,0,0.9,0,1.3,0c0.4,0,0.8,0.1,1.2,0.3
		c0.4,0.1,0.7,0.3,1,0.5c0.3,0.2,0.5,0.5,0.6,0.9c0.2,0.4,0.2,0.8,0.2,1.3c0,0.5-0.1,0.9-0.4,1.3c-0.2,0.3-0.5,0.6-0.8,0.8
		c-0.4,0.2-0.7,0.3-1.2,0.4C69.1,411.3,68.6,411.3,68.2,411.3z"/>
	<path class="st11" d="M70.5,405.1c-0.1,0-0.3,0-0.4,0c-0.1,0-0.2-0.1-0.3-0.2c-0.1-0.1-0.2-0.2-0.2-0.3c0-0.1-0.1-0.2-0.1-0.4
		c0-0.1,0-0.3,0.1-0.4c0-0.1,0.1-0.2,0.2-0.3c0.1-0.1,0.2-0.2,0.3-0.2c0.1-0.1,0.2-0.1,0.4-0.1c0.5,0,1,0.3,1,0.8c0,0,0,0,0,0.1
		c0,0.1,0,0.2,0,0.4c0,0.1-0.1,0.2-0.2,0.3c-0.1,0.1-0.2,0.2-0.3,0.2C70.8,405,70.6,405.1,70.5,405.1z"/>
	<path class="st11" d="M69.8,394.7c0,0.3,0.1,0.6,0.1,0.9s0.1,0.6,0.1,0.9h0.3h0.3c0.2,0,0.3,0.1,0.4,0.2c0.1,0.1,0.2,0.2,0.2,0.4
		c0,0.3,0,0.6,0,0.9c0,0.1-0.1,0.3-0.2,0.3c-0.1,0.1-0.2,0.1-0.4,0.1c-0.5,0-1,0-1.6,0.1s-1.2,0-1.8-0.1c-0.6,0-1.1-0.1-1.7-0.3
		c-0.5-0.1-1-0.3-1.4-0.6c-0.3-0.2-0.5-0.5-0.7-0.8c-0.2-0.3-0.3-0.6-0.3-1c0-0.3,0-0.6,0.1-0.8c0.1-0.3,0.2-0.5,0.4-0.7
		c0.2-0.2,0.4-0.4,0.6-0.5c0.3-0.2,0.5-0.3,0.8-0.4c0.3-0.1,0.5-0.2,0.8-0.3c0.2-0.1,0.5-0.1,0.7-0.2c0.6-0.1,1.2-0.2,1.8-0.2
		c0.6,0,1.2,0,1.8,0c0.2,0,0.3,0,0.5,0.1c0.1,0,0.2,0.2,0.3,0.3c0,0.2,0,0.3,0,0.5s0,0.3,0,0.5c0,0.1,0,0.3-0.1,0.4
		c-0.1,0.1-0.3,0.1-0.4,0.1l-0.4,0.1L69.8,394.7z M68,394.9h-0.6l-0.6,0.1c-0.4,0-0.8,0.2-1.1,0.4c-0.2,0.2-0.3,0.3-0.3,0.5
		c0,0.1,0.1,0.2,0.2,0.2c0.1,0.1,0.3,0.2,0.4,0.2c0.2,0.1,0.4,0.1,0.5,0.2l0.6,0.1l0.6,0.1h0.5c0-0.3,0-0.6-0.1-0.9L68,394.9z"/>
	<path class="st11" d="M68.2,387.3c0.3,0.1,0.5,0.1,0.8,0.3c0.3,0.1,0.6,0.3,0.8,0.5c0.3,0.2,0.5,0.5,0.7,0.8
		c0.2,0.3,0.3,0.7,0.4,1.1c0.1,0.4,0.1,0.9,0.1,1.3c0,0.1,0,0.2-0.1,0.3c0,0.1-0.1,0.2-0.2,0.3c-0.1,0.2-0.3,0.2-0.5,0.2h-0.8
		c-0.3,0-0.5,0-0.8,0l-2.1,0.1c-0.7,0-1.3,0.1-2,0.1H64h-0.5c-0.1,0-0.3,0-0.4-0.1c-0.1-0.1-0.1-0.2-0.2-0.4c-0.1-0.6-0.1-1.2,0-1.8
		c0.2-1.1,0.9-2.1,1.9-2.5c0.5-0.2,1-0.3,1.6-0.4C67.1,387.1,67.6,387.2,68.2,387.3z M68.8,390.2c0-0.1,0-0.2-0.1-0.3
		c-0.1-0.3-0.3-0.5-0.6-0.6c-0.2-0.1-0.3-0.1-0.5-0.2c-0.2,0-0.3-0.1-0.5-0.1h-0.5c-0.2,0-0.5,0-0.7,0.1c-0.2,0-0.4,0.1-0.6,0.2
		c-0.2,0.1-0.3,0.2-0.4,0.4c-0.1,0.2-0.1,0.4,0,0.6c0.7-0.1,1.3-0.1,2-0.2C67.4,390.2,68.1,390.2,68.8,390.2L68.8,390.2z"/>
	<path class="st11" d="M69.2,382.7c0,0.3,0.1,0.6,0.1,0.9s0,0.6,0.1,0.9h0.3h0.3c0.2,0,0.3,0,0.4,0.1c0.1,0.1,0.2,0.2,0.2,0.4
		c0,0.3,0,0.6,0,0.9c0,0.1-0.1,0.3-0.2,0.3c-0.1,0.1-0.2,0.1-0.4,0.1l-1.6,0c-0.6,0-1.2,0-1.8-0.1c-0.6-0.1-1.1-0.2-1.7-0.3
		c-0.5-0.1-1-0.3-1.4-0.6c-0.3-0.2-0.5-0.5-0.7-0.8c-0.2-0.3-0.3-0.6-0.3-0.9c0-0.3,0-0.6,0.1-0.8c0.1-0.3,0.2-0.5,0.4-0.7
		c0.2-0.2,0.4-0.4,0.7-0.5c0.2-0.2,0.5-0.3,0.8-0.4c0.3-0.1,0.5-0.2,0.8-0.3c0.2-0.1,0.5-0.1,0.7-0.2c0.6-0.1,1.2-0.2,1.8-0.2
		c0.6,0,1.2,0,1.8,0c0.2,0,0.3,0,0.5,0.1c0.1,0,0.2,0.2,0.3,0.3c0,0.2,0,0.3,0.1,0.5v0.5c0,0.1,0,0.3-0.1,0.4
		c-0.1,0.1-0.3,0.1-0.4,0.1l-0.4,0.1L69.2,382.7z M67.5,382.9c-0.2,0-0.3,0-0.6,0c-0.2,0-0.4,0-0.6,0.1c-0.4,0-0.8,0.2-1.1,0.4
		c-0.2,0.2-0.3,0.3-0.3,0.5c0,0.1,0.1,0.2,0.2,0.2c0.1,0.1,0.3,0.2,0.4,0.2c0.2,0.1,0.3,0.1,0.5,0.2c0.2,0,0.4,0.1,0.6,0.1l0.6,0.1
		h0.5c0-0.3-0.1-0.6-0.1-0.9L67.5,382.9z"/>
	<path class="st11" d="M66.9,375l0.5,0.2l0.5,0.3l0,0H68c0.3,0.1,0.5,0.4,0.5,0.7c0,0.1,0,0.2,0,0.3s0,0.2,0,0.3
		c0,0.1,0,0.2-0.1,0.3c-0.1,0.1-0.1,0.1-0.2,0.2c-0.2,0.1-0.4,0.2-0.6,0.3c-0.2,0.1-0.4,0.2-0.5,0.3c-0.1,0-0.1,0.1-0.1,0.1
		s0.1,0,0.3,0l2.3-0.1h0.1c0.2,0,0.4,0,0.6,0.1c0.1,0.2,0.2,0.4,0.2,0.6c0,0.1,0,0.3,0,0.4s0,0.2,0,0.4c0,0.1-0.1,0.3-0.2,0.4
		c-0.1,0.1-0.3,0.2-0.4,0.1h-1.6l-2.5,0.1l-2.5,0.1H63c-0.1,0-0.3,0-0.4-0.1c-0.1-0.1-0.2-0.2-0.2-0.4c0-0.1,0-0.3,0-0.4
		c0-0.1,0-0.3,0-0.4c0-0.1,0-0.2,0.1-0.3c0.1-0.1,0.1-0.2,0.2-0.2l1.2-0.8l1.2-0.7c0,0,0.1,0,0.1,0l0.1-0.1c0.1-0.1,0.2-0.2,0.2-0.2
		s-0.1-0.1-0.2-0.2l-0.1-0.1l-0.1-0.1c-0.3-0.1-0.6-0.3-0.9-0.4l-0.9-0.4l-0.3-0.1l-0.3-0.1c-0.1,0-0.2-0.1-0.3-0.2
		c-0.1-0.1-0.1-0.2-0.1-0.3c0-0.1,0-0.3,0-0.4c0-0.1,0-0.3,0-0.4c0-0.3,0.2-0.6,0.6-0.6H63h0.2l1.8,0l1.8-0.1h0.7h0.7h0.7h0.7
		c0.1,0,0.3,0,0.4,0.1c0.1,0,0.1,0.2,0.2,0.4s0,0.3,0,0.4v0.4c0,0.2,0,0.3-0.1,0.5c-0.1,0.1-0.3,0.2-0.4,0.2l-0.6,0h-0.7l-0.7,0.1
		L66.9,375L66.9,375L66.9,375L66.9,375z"/>
	<path class="st11" d="M64.5,367.4c0.1,0.1,0.2,0.2,0.3,0.3c0.1,0.1,0.1,0.2,0.2,0.4c0,0.1,0,0.2,0,0.4c-0.1,0.1-0.2,0.2-0.3,0.3
		l-0.3,0.2l-0.3,0.2c-0.1,0.1-0.2,0.2-0.2,0.3c-0.1,0.2-0.1,0.4,0,0.5c0.1,0.1,0.1,0.2,0.2,0.2c0.1,0,0.2,0.1,0.3,0
		c0.1,0,0.2,0,0.3-0.1c0.1,0,0.2-0.1,0.2-0.2c0.1-0.1,0.2-0.3,0.3-0.4s0.2-0.3,0.3-0.4s0.2-0.4,0.3-0.5c0.1-0.2,0.2-0.4,0.3-0.5
		c0.2-0.3,0.5-0.5,0.8-0.7c0.3-0.1,0.7-0.2,1-0.2c0.3,0,0.5,0,0.8,0.1c0.2,0.1,0.5,0.2,0.7,0.4c0.3,0.3,0.6,0.6,0.7,1
		c0.1,0.4,0.2,0.9,0,1.3c-0.1,0.3-0.2,0.7-0.3,1c-0.2,0.3-0.4,0.6-0.6,0.8c-0.1,0.1-0.3,0.3-0.5,0.4c-0.2,0.1-0.4,0.2-0.6,0.2
		c-0.2,0-0.4,0-0.6-0.1c-0.2-0.1-0.3-0.2-0.4-0.3c-0.1-0.1-0.2-0.3-0.2-0.5c0-0.1,0-0.3,0-0.4c0-0.1,0.1-0.3,0.3-0.3l0.2-0.1
		l0.3-0.1c0.2-0.1,0.3-0.2,0.4-0.4c0.1-0.1,0.2-0.3,0.2-0.4c0-0.1,0-0.3-0.1-0.4c-0.1-0.1-0.2-0.2-0.3-0.2c-0.1,0-0.3,0-0.4,0.1
		c-0.1,0.1-0.3,0.2-0.3,0.3l-0.3,0.5c-0.1,0.2-0.2,0.3-0.3,0.5c-0.3,0.5-0.6,1-1.1,1.4c-0.3,0.2-0.6,0.3-0.9,0.4
		c-0.3,0-0.6,0-0.9-0.1c-0.3-0.1-0.6-0.2-0.8-0.5c-0.2-0.2-0.4-0.5-0.5-0.8c-0.1-0.3-0.2-0.7-0.2-1.1c0-0.3,0-0.6,0.1-1
		c0.1-0.2,0.2-0.5,0.3-0.7c0.2-0.2,0.3-0.4,0.6-0.6c0.2-0.2,0.4-0.3,0.7-0.3C64,367.2,64.3,367.3,64.5,367.4z"/>
</g>
<path class="st12" d="M352.7,539.1c-1.1-4.3-1.5-5.2-1-6c0.5-0.8,1.6-1,2.3-0.6c0.4,0.3,0.5,0.8,0.7,1.8c0.6,3.6,0.7,4.5,1.3,4.8
	c0.4,0.2,0.8,0,1.4-0.2c0.5-0.2,1.1-0.4,1.4-0.9c0.4-0.6-0.1-1.3-0.5-3.4c-0.5-2.3-0.2-2.8-0.1-3c0.3-0.5,1-0.8,1.5-0.6
	c1.1,0.3,1,2.1,2.2,6.8c0.5,2.2,0.8,4.4,1.5,6.5c0.2,0.6,0.7,2,0.2,2.7c-0.3,0.5-1,0.7-1.1,0.7c-0.3,0.1-0.7,0.1-1,0.1
	c-1.5-0.4-1.1-6-2.4-6.2c-0.2,0-0.3,0-0.6,0.2c-1.1,0.6-3.4,1.4-4.6,0.6C353.4,542.2,353.4,541.8,352.7,539.1z"/>
<path d="M370.5,545"/>
</svg>
