<svg xmlns="http://www.w3.org/2000/svg" viewBox="0 0 676.36 603.72"><defs><style>.cls-1,.cls-12{fill:#662d91;}.cls-1,.cls-10,.cls-11,.cls-2,.cls-3,.cls-4,.cls-6,.cls-7,.cls-8,.cls-9{stroke:#231f20;stroke-miterlimit:10;stroke-width:10px;}.cls-2{fill:#ed1c24;}.cls-3{fill:#ed5479;}.cls-4{fill:#28858e;}.cls-5,.cls-9{fill:#231f20;}.cls-6{fill:#ee8522;}.cls-7{fill:#f6e108;}.cls-8{fill:#67cada;}.cls-10{fill:none;}.cls-11{fill:#0ab26a;}</style></defs><g id="Layer_1" data-name="Layer 1"><polygon class="cls-1" points="229.55 51.63 224.66 16.33 368.06 41.41 358.12 79.56 229.55 51.63"/><path class="cls-1" d="M276.07,294l363.52,96.83s-45,18.51-47.34,39.27,2.58,67.05-11.63,66.51L276.07,294"/><path class="cls-2" d="M276.07,294l328,87.37S569.37,397.07,567,417.83s-6.31,52.19-20.51,51.66L276.07,294"/><path class="cls-3" d="M276.07,295.68l276.49,73.1s-29.26,13.1-31.25,30.47S516,442.92,504,442.47L276.07,295.68"/><path class="cls-2" d="M228.45,41.41l20.41,188.5a187.82,187.82,0,0,1,67.72,1.62L364.47,56.32C325,48.34,269.9,44.68,228.45,41.41Z"/><path class="cls-2" d="M49.13,225.82,202,294a194.08,194.08,0,0,1,37.65-58.81L87.65,76.16C59.48,106.74,64.69,186.63,49.13,225.82Z"/><path class="cls-3" d="M233.31,84.36l15.55,145.55a187.82,187.82,0,0,1,67.72,1.62L354.15,85.91A331.26,331.26,0,0,0,233.31,84.36Z"/><path class="cls-3" d="M79.37,234.36,202,294a194.08,194.08,0,0,1,37.65-58.81l-108.53-110C103,155.75,97,195.4,79.37,234.36Z"/><path class="cls-2" d="M530.93,60.12,356.34,181a289.43,289.43,0,0,1,33,94.26l263.28-56.94C642.22,158.56,560.44,111,530.93,60.12Z"/><path class="cls-3" d="M495.24,84.83l-138.9,96.85a289.46,289.46,0,0,1,33,94.25l202.2-47.85C581.14,168.32,524.74,135.7,495.24,84.83Z"/><path class="cls-4" d="M471.57,399.61h-391v38.46h0c-.53,35.69,103.45,79.49,194.61,79.49,89.32,0,195.36-47.22,196.37-79.49h0Z"/><path class="cls-5" d="M149.7,522.64a3.1,3.1,0,0,1-1,.32,2.11,2.11,0,0,1-.91,0,1.27,1.27,0,0,1-.66-.45,1.39,1.39,0,0,1-.24-.91c0-.26,0-.51,0-.76s0-.5-.06-.74a2.24,2.24,0,0,0-.27-.76.92.92,0,0,0-1.06-.58,1.12,1.12,0,0,0-.61.22,1.32,1.32,0,0,0-.38.47,1.79,1.79,0,0,0-.17.6,1.24,1.24,0,0,0,.11.6c.16.33.33.67.51,1s.36.65.55,1,.45.79.7,1.17a10.65,10.65,0,0,1,.67,1.15,4.71,4.71,0,0,1,.54,2.22,5,5,0,0,1-.6,2.19,5.3,5.3,0,0,1-1,1.36,4.25,4.25,0,0,1-1.43.88,5.15,5.15,0,0,1-2.71.28,5.64,5.64,0,0,1-2.46-1.15A6.21,6.21,0,0,1,137.7,529a9.13,9.13,0,0,1-.95-2,4.63,4.63,0,0,1-.2-1.31,6.16,6.16,0,0,1,.15-1.33,2,2,0,0,1,.77-1.1,3.56,3.56,0,0,1,1-.51,2.1,2.1,0,0,1,1.14,0,1.54,1.54,0,0,1,.84.48,1.37,1.37,0,0,1,.37.87c0,.23,0,.44,0,.65s0,.43,0,.65a2.08,2.08,0,0,0,.27,1.09,2.59,2.59,0,0,0,.66.81,1.37,1.37,0,0,0,.82.29.86.86,0,0,0,.72-.47,1.65,1.65,0,0,0,.22-.83,2,2,0,0,0-.24-1l-.61-1.07a12.14,12.14,0,0,0-.65-1,10.87,10.87,0,0,1-1.56-3.51,4.09,4.09,0,0,1,.17-2.07A4.58,4.58,0,0,1,141.7,516a4.3,4.3,0,0,1,1.7-1,4.47,4.47,0,0,1,2.1-.17,8.72,8.72,0,0,1,2.27.68,5.15,5.15,0,0,1,1.71,1.2,7.37,7.37,0,0,1,.94,1.38,5.68,5.68,0,0,1,.59,1.69,3.44,3.44,0,0,1-.11,1.66A2.26,2.26,0,0,1,149.7,522.64Z"/><path class="cls-5" d="M155.27,525.51c-.32.72-.61,1.46-.88,2.22a6,6,0,0,0-.57,1.9,3.91,3.91,0,0,0,.1,1.52,2.42,2.42,0,0,0,.62,1.07,2,2,0,0,0,2.11.52,2.89,2.89,0,0,0,1.17-.68,8.12,8.12,0,0,0,1.36-1.81c.43-.76.83-1.57,1.21-2.43s.7-1.71,1-2.55.54-1.56.74-2.16a1.08,1.08,0,0,1,1.27-.8,4.58,4.58,0,0,1,2.17.91,1.34,1.34,0,0,1,.44.51,1,1,0,0,1,0,.67q-.37,1.5-.93,3.24a27.94,27.94,0,0,1-1.34,3.38,19.25,19.25,0,0,1-1.81,3.09,10,10,0,0,1-2.3,2.34,6.41,6.41,0,0,1-6.31.7,7.09,7.09,0,0,1-2.16-1.22,5.87,5.87,0,0,1-1.34-1.67,6.63,6.63,0,0,1-.66-2,8.76,8.76,0,0,1-.09-2.18,14,14,0,0,1,.37-2.32c.2-.77.42-1.53.68-2.28s.53-1.49.83-2.23l.86-2.14q.1-.28.3-.75a5.46,5.46,0,0,1,.46-.86,3.46,3.46,0,0,1,.57-.67.75.75,0,0,1,.68-.19,6.82,6.82,0,0,1,1.39.38,11.24,11.24,0,0,1,1.31.63,1.27,1.27,0,0,1,.58.67,1.56,1.56,0,0,1-.1.92q-.18.53-.39,1c-.14.33-.27.67-.41,1h0C155.9,524.06,155.58,524.79,155.27,525.51Z"/><path class="cls-5" d="M175.09,536.91l-.91.84c-.29.27-.6.55-.9.84l-.12.08a.32.32,0,0,0-.1.1,1.56,1.56,0,0,1-1.84.45,3.15,3.15,0,0,0-.65-.23l-.67-.19a1.11,1.11,0,0,1-.52-.39,1.8,1.8,0,0,1-.24-.6,8.66,8.66,0,0,1-.17-1.38,7.22,7.22,0,0,0-.17-1.32c-.05-.23-.11-.36-.18-.4s-.17.13-.29.51l-1.5,4.64-.06.21a2,2,0,0,1-.74,1.17,1.91,1.91,0,0,1-1.35,0q-.42-.12-.81-.27l-.77-.33a1.26,1.26,0,0,1-.62-.67,1.38,1.38,0,0,1,0-1c.07-.21.16-.46.27-.76s.22-.6.34-.91.22-.61.32-.91.19-.56.27-.78q.87-2.7,1.68-5.27c.55-1.71,1.11-3.48,1.69-5.29l.05-.15a1.44,1.44,0,0,1,.52-.79,1.32,1.32,0,0,1,.92,0,7.76,7.76,0,0,1,.89.3l.88.37a1.19,1.19,0,0,1,.5.4,1.61,1.61,0,0,1,.24.6c.24,1,.46,2,.69,2.94s.43,1.95.63,2.94a1.39,1.39,0,0,0,.06.19,1.46,1.46,0,0,1,.07.19c.09.3.2.46.32.5s.3,0,.54-.22l.24-.16.23-.2c.52-.54,1-1,1.55-1.52s1-1,1.55-1.52c.18-.16.34-.32.49-.48s.32-.32.49-.48a1,1,0,0,1,.67-.36,2.34,2.34,0,0,1,.75,0c.28.06.55.13.83.21a6.64,6.64,0,0,1,.81.3,1.4,1.4,0,0,1,.9,1.67c0,.17-.06.33-.1.5a3.14,3.14,0,0,1-.15.49c-.42,1.25-.83,2.47-1.22,3.65s-.8,2.41-1.21,3.68c-.14.43-.29.9-.44,1.4s-.31,1-.47,1.53-.31,1-.47,1.52-.3,1-.44,1.41a1.26,1.26,0,0,1-.43.77,1.33,1.33,0,0,1-.91,0l-.84-.2-.82-.24a1.31,1.31,0,0,1-.82-.6,1.62,1.62,0,0,1,0-1c.11-.39.24-.83.38-1.31s.27-1,.42-1.45.27-1,.4-1.44.25-.91.37-1.32a.36.36,0,0,0,0-.11l0-.11s-.05,0-.05,0Z"/><path class="cls-5" d="M191.66,541.53l-.86.89-.86.89-.11.09a.52.52,0,0,0-.1.11,1.54,1.54,0,0,1-1.8.55,3.41,3.41,0,0,0-.67-.2l-.67-.15a1.15,1.15,0,0,1-.55-.36,1.7,1.7,0,0,1-.28-.59,8.77,8.77,0,0,1-.24-1.37,7.09,7.09,0,0,0-.24-1.3c-.06-.23-.13-.36-.2-.4s-.16.14-.27.53l-1.23,4.72-.06.22a1.39,1.39,0,0,1-2,1.26,6.7,6.7,0,0,1-.83-.22l-.79-.29a1.22,1.22,0,0,1-.65-.63,1.41,1.41,0,0,1-.05-1c.06-.21.13-.47.23-.77s.19-.61.29-.93.19-.62.27-.93.16-.57.22-.79c.48-1.83,1-3.62,1.39-5.36s.92-3.53,1.4-5.37l0-.15a1.38,1.38,0,0,1,.47-.82,1.26,1.26,0,0,1,.92-.07,7.55,7.55,0,0,1,.9.25l.91.31a1.18,1.18,0,0,1,.51.38,1.49,1.49,0,0,1,.28.58l.85,2.91c.27,1,.54,1.91.8,2.89a.7.7,0,0,0,.06.19l.09.19c.1.29.22.45.34.48s.3,0,.53-.25l.23-.18a1,1,0,0,0,.21-.21c.5-.56,1-1.1,1.47-1.6s1-1,1.46-1.61c.17-.17.32-.33.47-.5s.29-.34.46-.51a1.06,1.06,0,0,1,.65-.4,2.69,2.69,0,0,1,.75,0,7.6,7.6,0,0,1,.83.16,6.68,6.68,0,0,1,.84.25,1.39,1.39,0,0,1,1,1.62,4.43,4.43,0,0,1-.06.51,3.51,3.51,0,0,1-.13.49l-1,3.71c-.33,1.2-.66,2.45-1,3.74-.12.44-.24.92-.36,1.43l-.39,1.55c-.12.52-.25,1-.38,1.55s-.25,1-.36,1.43a1.26,1.26,0,0,1-.39.79,1.31,1.31,0,0,1-.91.07q-.43-.06-.84-.15c-.28-.06-.55-.12-.84-.2a1.28,1.28,0,0,1-.85-.55,1.67,1.67,0,0,1,0-1.05l.3-1.33c.12-.48.23-1,.34-1.47s.23-1,.33-1.46.2-.93.29-1.34a.36.36,0,0,0,0-.11.36.36,0,0,1,0-.11l0,0Z"/><path class="cls-5" d="M204.61,547.91c.84.16,1.18.61,1,1.38-.07.37-.14.69-.22,1s-.18.58-.28.93a.86.86,0,0,1-1.08.6c-1.31-.26-2.55-.49-3.73-.7a18.06,18.06,0,0,1-3.33-.89,1.27,1.27,0,0,1-.68-.56,1.24,1.24,0,0,1-.13-.88c.44-2.37.9-4.65,1.36-6.84s.9-4.26,1.31-6.18c.07-.3.14-.6.22-.91a3.35,3.35,0,0,1,.33-.82,1.45,1.45,0,0,1,.52-.55,1.27,1.27,0,0,1,.84-.09c.38.06.75.14,1.13.23s.74.17,1.12.23.47.1.7.14l.68.1,1.37.21,1.31.22a2,2,0,0,1,.8.39,1,1,0,0,1,.44.71,4.18,4.18,0,0,1-.32,2.21,1.6,1.6,0,0,1-.56.75,1.07,1.07,0,0,1-1,.12l-1.09-.3-1.08-.29a6.15,6.15,0,0,0-1.16-.16,1,1,0,0,0-.58.12,1,1,0,0,0-.32.44,5.14,5.14,0,0,0-.22.78c-.06.33-.15.72-.27,1.2a.45.45,0,0,0,.21.53,2.67,2.67,0,0,0,.59.23l1,.23a6.82,6.82,0,0,1,1,.28,1,1,0,0,1,.46.32.72.72,0,0,1,.11.57c-.05.29-.09.58-.13.87a8.2,8.2,0,0,1-.18.86,1,1,0,0,1-1.29.73A4.77,4.77,0,0,1,203,545l-.48-.15-.55-.15a3.15,3.15,0,0,0-.55-.11.65.65,0,0,0-.41,0,.55.55,0,0,0-.19.35c-.05.25-.11.49-.17.72s-.11.48-.15.74a.9.9,0,0,0,0,.6,1,1,0,0,0,.54.25l1.38.29.95.19.66.11C204.27,547.84,204.44,547.88,204.61,547.91Z"/><path class="cls-5" d="M214.22,547.89a2.6,2.6,0,0,1,.25.36,1.54,1.54,0,0,0,.25.32c.25.25.51.49.77.72s.54.46.83.69a3,3,0,0,0,.47.35c.16.09.32.2.48.3a1.08,1.08,0,0,1,.52,1.44,3,3,0,0,1-.83,1.46,1.54,1.54,0,0,1-1.64.36,4.76,4.76,0,0,1-1.28-.58,4,4,0,0,1-1-1c-.27-.36-.53-.73-.77-1.11s-.49-.76-.73-1.14c-.08-.13-.16-.26-.22-.38a1.58,1.58,0,0,0-.29-.36c0,.26-.07.53-.1.8a6,6,0,0,1-.12.82q0,.3-.09.63a4.34,4.34,0,0,1-.16.62.86.86,0,0,1-1,.72l-.94-.1a6.14,6.14,0,0,1-.93-.19,1,1,0,0,1-.82-1.24c0-.28,0-.56.07-.83s.07-.54.12-.82c.37-2.3.74-4.54,1.12-6.7s.81-4.34,1.29-6.5a.84.84,0,0,1,.07-.24,1.28,1.28,0,0,1,.11-.24.74.74,0,0,1,.75-.44,11.5,11.5,0,0,1,3,.54l.67.2c.22.06.45.14.69.23a6.61,6.61,0,0,1,3.65,3.11,6.06,6.06,0,0,1,.19,4.63,5.75,5.75,0,0,1-1.64,2.56A4,4,0,0,1,214.22,547.89Zm-2.31-3.34.18.08a.35.35,0,0,0,.13,0,2.65,2.65,0,0,0,1.26-.15,2.55,2.55,0,0,0,1-.65,2.21,2.21,0,0,0,.55-1,2.15,2.15,0,0,0,0-1.18,1.72,1.72,0,0,0-.31-.62,2.46,2.46,0,0,0-.55-.52,3.16,3.16,0,0,0-.69-.34,1.8,1.8,0,0,0-.71-.1Z"/><path class="cls-5" d="M239.94,545.56a3,3,0,0,1-.81.61,2.12,2.12,0,0,1-.88.24,1.24,1.24,0,0,1-.77-.22,1.4,1.4,0,0,1-.52-.78q-.11-.37-.24-.72a7,7,0,0,0-.29-.68,2.14,2.14,0,0,0-.49-.64.93.93,0,0,0-1.2-.22,1.05,1.05,0,0,0-.5.4,1.38,1.38,0,0,0-.22.57,2.15,2.15,0,0,0,0,.62,1.2,1.2,0,0,0,.29.53c.26.27.53.53.8.79s.54.51.82.75.68.6,1,.88a9.72,9.72,0,0,1,1,.89,4.75,4.75,0,0,1,1.21,1.94,5,5,0,0,1,.12,2.26,5.53,5.53,0,0,1-.55,1.62,4.25,4.25,0,0,1-1.09,1.28,5.12,5.12,0,0,1-2.48,1.11,5.7,5.7,0,0,1-2.7-.31,6.27,6.27,0,0,1-1.95-1.08,8.79,8.79,0,0,1-1.54-1.62,4.87,4.87,0,0,1-.6-1.18,5.55,5.55,0,0,1-.28-1.31,2,2,0,0,1,.38-1.28,3.46,3.46,0,0,1,.81-.81,2.11,2.11,0,0,1,1.08-.37,1.56,1.56,0,0,1,1,.2,1.39,1.39,0,0,1,.62.71,4.92,4.92,0,0,1,.23.6c.06.21.12.41.19.63a2.15,2.15,0,0,0,.59.95,2.51,2.51,0,0,0,.89.55,1.28,1.28,0,0,0,.86,0,.87.87,0,0,0,.54-.68,1.62,1.62,0,0,0-.06-.86,2,2,0,0,0-.52-.83l-.92-.83c-.3-.27-.62-.53-.94-.78a10.82,10.82,0,0,1-2.59-2.84,4.11,4.11,0,0,1-.48-2,4.69,4.69,0,0,1,.47-1.93,4.27,4.27,0,0,1,1.29-1.52,4.4,4.4,0,0,1,1.94-.82,9.06,9.06,0,0,1,2.37-.07,5.1,5.1,0,0,1,2,.61,6.94,6.94,0,0,1,1.32,1,5.61,5.61,0,0,1,1.1,1.41,3.48,3.48,0,0,1,.41,1.62A2.25,2.25,0,0,1,239.94,545.56Z"/><path class="cls-5" d="M246.53,558.16a6.53,6.53,0,0,1-2.66-.89,5.87,5.87,0,0,1-1.71-1.65,6.29,6.29,0,0,1-.93-2.17,11.77,11.77,0,0,1-.29-2.48,14.61,14.61,0,0,1,.2-2.55,21.58,21.58,0,0,1,.55-2.39,6.91,6.91,0,0,1,.71-1.65,9,9,0,0,1,1.15-1.55,7.28,7.28,0,0,1,1.48-1.24,5,5,0,0,1,1.75-.7,4.74,4.74,0,0,1,1.95,0,5.83,5.83,0,0,1,1.78.74,5.4,5.4,0,0,1,1.38,1.27,4.51,4.51,0,0,1,.8,1.63,2.32,2.32,0,0,1,0,1.17,1.65,1.65,0,0,1-.68.93,1.91,1.91,0,0,1-1,.39,2.72,2.72,0,0,1-1.1-.16,1,1,0,0,1-.7-.8,2.56,2.56,0,0,1-.05-.27,1.74,1.74,0,0,0-.07-.29,1.33,1.33,0,0,0-.69-.85,1.26,1.26,0,0,0-1.09,0,3.53,3.53,0,0,0-.32.21,1.33,1.33,0,0,0-.26.27,5.2,5.2,0,0,0-.37.43,3.94,3.94,0,0,0-.31.48,11.08,11.08,0,0,0-.81,2.46,6.64,6.64,0,0,0,0,2.59,6.11,6.11,0,0,0,.58,2.08,1.74,1.74,0,0,0,1,.93,1.69,1.69,0,0,0,1.33-.31,5.54,5.54,0,0,0,1.52-1.61,1.38,1.38,0,0,1,.53-.46,1,1,0,0,1,.7,0,5.05,5.05,0,0,1,.61.23,5.59,5.59,0,0,1,.6.3,1,1,0,0,1,.48.4,1.25,1.25,0,0,1,.14.52,2.38,2.38,0,0,1-.08.58c-.06.19-.11.37-.17.54a6.56,6.56,0,0,1-.9,1.61,6.3,6.3,0,0,1-1.34,1.29,5.24,5.24,0,0,1-1.69.79A4.81,4.81,0,0,1,246.53,558.16Z"/><path class="cls-5" d="M259.75,549.45l1.35.13c.48,0,.95.06,1.39.07s.79,0,1,0c.15-1.14.26-2.25.34-3.33s.19-2.17.32-3.27a1,1,0,0,1,.46-.8,2.22,2.22,0,0,1,.95-.31,4.87,4.87,0,0,1,1.14,0c.39,0,.73.1,1,.16a.76.76,0,0,1,.48.31,1.3,1.3,0,0,1,.2.53,2,2,0,0,1,0,.59c0,.2-.05.37-.07.52-.09,1-.17,2.1-.25,3.18s-.15,2.17-.2,3.26-.11,2.17-.14,3.22-.06,2.07-.07,3c0,.56,0,1,0,1.34a1.39,1.39,0,0,1-.26.78,1.27,1.27,0,0,1-.75.38,8.57,8.57,0,0,1-1.48.12,3.54,3.54,0,0,1-1.18-.16,1.41,1.41,0,0,1-.69-.52,2,2,0,0,1-.32-.88,6.23,6.23,0,0,1,0-1.25c0-.23,0-.49,0-.79s0-.59,0-.91,0-.62,0-.92,0-.58,0-.83c-.8-.08-1.6-.13-2.37-.13a22.14,22.14,0,0,1-2.4-.16c0,.16,0,.31-.05.47s0,.29,0,.43c0,.57-.08,1.2-.12,1.9s-.07,1.31-.1,1.85a1.57,1.57,0,0,1-.4,1,1.29,1.29,0,0,1-.95.41c-.33,0-.63,0-.93,0a5.18,5.18,0,0,1-.87-.11,1.55,1.55,0,0,1-1-.46,1.21,1.21,0,0,1-.24-.86q.1-2,.24-3.93c.09-1.3.18-2.57.27-3.8s.16-2.4.23-3.53.12-2.18.16-3.17.43-1.48,1.55-1.48c.3,0,.6,0,.9,0s.63,0,1,.07a1.68,1.68,0,0,1,1,.34,1.15,1.15,0,0,1,.24.91c-.05,1-.11,2-.17,3s-.12,2-.17,3l0,.4A5.33,5.33,0,0,0,259.75,549.45Z"/><path class="cls-5" d="M282.29,550.38a13.55,13.55,0,0,1-.42,3.39,10,10,0,0,1-1.24,2.85,7,7,0,0,1-1.89,2,6.13,6.13,0,0,1-1.78.84,5.19,5.19,0,0,1-1.83.18,5,5,0,0,1-1.78-.49,6.25,6.25,0,0,1-1.62-1.15,8.08,8.08,0,0,1-1.52-2,9.54,9.54,0,0,1-.84-2.39,12,12,0,0,1-.23-3.81,10.9,10.9,0,0,1,1.05-3.64,10.16,10.16,0,0,1,1-1.56,7.5,7.5,0,0,1,1.3-1.28,5.91,5.91,0,0,1,1.8-.92,4.94,4.94,0,0,1,3.67.29,6.37,6.37,0,0,1,1.67,1.18,7.72,7.72,0,0,1,1.53,2.06,10.09,10.09,0,0,1,.83,2.43,9.68,9.68,0,0,1,.19,1.14C282.23,549.87,282.26,550.16,282.29,550.38Zm-9,.78a5.48,5.48,0,0,0,1.37,3.93,1.67,1.67,0,0,0,1.15.55,1.52,1.52,0,0,0,1.14-.49c.13-.11.26-.24.39-.37a1.71,1.71,0,0,0,.3-.44,6.71,6.71,0,0,0,.08-6.42,2.23,2.23,0,0,0-.36-.56,5.75,5.75,0,0,0-.49-.5,1.5,1.5,0,0,0-.92-.37,1.72,1.72,0,0,0-1,.28,3.58,3.58,0,0,0-.56.54,4.22,4.22,0,0,0-.42.62A6.38,6.38,0,0,0,273.33,551.16Z"/><path class="cls-5" d="M296.62,549.89a13.58,13.58,0,0,1-.26,3.4,9.84,9.84,0,0,1-1.11,2.9,6.8,6.8,0,0,1-1.79,2.14,6.35,6.35,0,0,1-1.74.92,5.13,5.13,0,0,1-3.62-.14,6.35,6.35,0,0,1-1.68-1.07,8.54,8.54,0,0,1-1.6-2,9.92,9.92,0,0,1-1-2.35,12.1,12.1,0,0,1-.4-3.8,10.81,10.81,0,0,1,.88-3.69,10.08,10.08,0,0,1,.94-1.59,7.56,7.56,0,0,1,1.24-1.35,6.17,6.17,0,0,1,1.75-1,5,5,0,0,1,1.85-.3,5.07,5.07,0,0,1,1.84.42,6.58,6.58,0,0,1,1.72,1.1,7.62,7.62,0,0,1,1.62,2,10.26,10.26,0,0,1,.94,2.39c.1.39.18.77.24,1.13S296.59,549.67,296.62,549.89Zm-8.91,1.19a4.87,4.87,0,0,0,.13,1.3,5.3,5.3,0,0,0,.49,1.27,5,5,0,0,0,.93,1.29,1.63,1.63,0,0,0,1.17.49,1.54,1.54,0,0,0,1.12-.53c.13-.13.25-.25.37-.39a1.78,1.78,0,0,0,.28-.45,6.69,6.69,0,0,0-.22-6.42,1.87,1.87,0,0,0-.38-.55l-.51-.48a1.51,1.51,0,0,0-.94-.32,1.69,1.69,0,0,0-1,.33,4,4,0,0,0-.53.56,3.77,3.77,0,0,0-.39.64A6.38,6.38,0,0,0,287.71,551.08Z"/><path class="cls-5" d="M303.32,554.26l.43-.07.4-.05,1.17-.1,1.17-.07a.78.78,0,0,1,.6.16,1.22,1.22,0,0,1,.35.55,5.43,5.43,0,0,1,.21,2.53,1.06,1.06,0,0,1-.31.67,1.41,1.41,0,0,1-.67.33l-.39.07-.37.06q-1.38.17-2.73.36a15.47,15.47,0,0,1-2.72.17,1.62,1.62,0,0,1-1.57-1.31,7.2,7.2,0,0,1-.16-.78l-.15-.78c-.21-2.13-.42-4.31-.63-6.52s-.43-4.38-.63-6.51a2,2,0,0,1,.08-.77.61.61,0,0,1,.54-.45q.81-.13,1.65-.21c.57,0,1.13-.08,1.68-.09a.7.7,0,0,1,.5.21,1,1,0,0,1,.23.5c.05.29.1.58.14.87s.07.59.09.9c.18,1.45.35,3,.51,4.54s.32,3.1.47,4.56a3.05,3.05,0,0,1,.06.6C303.28,553.83,303.3,554,303.32,554.26Z"/><path class="cls-5" d="M324,551.51l1-.23L326,551l.46-.09.46,0a.73.73,0,0,1,.57.14.92.92,0,0,1,.3.51c.06.17.11.34.16.51a3.11,3.11,0,0,1,.11.49c.08.41.14.8.19,1.2a1.78,1.78,0,0,1-.12,1.17,1.49,1.49,0,0,1-1,.62l-1.16.25c-.39.08-.79.15-1.18.21l-2,.25c-.67.09-1.35.17-2,.24a.89.89,0,0,1-.28,0h-.28a.9.9,0,0,1-1-.74,11.55,11.55,0,0,1-.35-1.28,8,8,0,0,1-.15-1.28,5.37,5.37,0,0,1,.11-1.26,4.93,4.93,0,0,1,.47-1.24,5.12,5.12,0,0,1,.56-1c.22-.3.44-.6.64-.9s.51-.67.81-1.09a12.28,12.28,0,0,0,.83-1.33,7,7,0,0,0,.56-1.39,2.3,2.3,0,0,0,0-1.3,1,1,0,0,0-.55-.62.77.77,0,0,0-.75.11,1.32,1.32,0,0,0-.61.69,2.31,2.31,0,0,0-.11,1,5,5,0,0,0,0,.67,5.15,5.15,0,0,1,0,.68.87.87,0,0,1-.28.62,1.87,1.87,0,0,1-.66.42,3.21,3.21,0,0,1-.84.18,3.06,3.06,0,0,1-.86,0,2.13,2.13,0,0,1-.71-.25.75.75,0,0,1-.36-.48,10.4,10.4,0,0,1-.3-2.68,5.06,5.06,0,0,1,.76-2.51,4.82,4.82,0,0,1,3.16-2.29,5.49,5.49,0,0,1,1.59-.15,3.21,3.21,0,0,1,1.51.49,5.75,5.75,0,0,1,1.75,1.64,6,6,0,0,1,.92,2.31,6.82,6.82,0,0,1,0,2.12,10.82,10.82,0,0,1-.53,2.16,12.32,12.32,0,0,1-.94,2,11.51,11.51,0,0,1-1.16,1.64l.05,0A.05.05,0,0,1,324,551.51Z"/><path class="cls-5" d="M328.64,540a5.26,5.26,0,0,1,1.43-1.92,4.82,4.82,0,0,1,1.95-1,4.67,4.67,0,0,1,2.17,0,4.77,4.77,0,0,1,2.05,1,5.19,5.19,0,0,1,1.12,1.36,13.46,13.46,0,0,1,.95,1.9,16.83,16.83,0,0,1,.73,2.21c.21.78.38,1.54.51,2.29a19.31,19.31,0,0,1,.26,2.15,11.82,11.82,0,0,1,0,1.78,6.12,6.12,0,0,1-.82,2.62,3.83,3.83,0,0,1-2,1.66,6.2,6.2,0,0,1-3.88.18,4.91,4.91,0,0,1-2.9-2.42A14.91,14.91,0,0,1,329,549a18.91,18.91,0,0,1-.72-3.15,17.46,17.46,0,0,1-.16-3.12A9.41,9.41,0,0,1,328.64,540Zm4.68,1.47a1.22,1.22,0,0,0-.78.94,5.4,5.4,0,0,0-.14,1.8,12.89,12.89,0,0,0,.34,2.18,12.17,12.17,0,0,0,.69,2,5.22,5.22,0,0,0,.91,1.4.79.79,0,0,0,1,.28,1.37,1.37,0,0,0,.69-1,6.51,6.51,0,0,0,.16-1.77,13.16,13.16,0,0,0-.27-2.09,10.59,10.59,0,0,0-.63-2,4.67,4.67,0,0,0-.88-1.42A1,1,0,0,0,333.32,541.43Z"/><path class="cls-5" d="M347.62,546.82l1-.31,1-.33a2.46,2.46,0,0,1,.45-.11l.45-.07a.71.71,0,0,1,.59.09,1.06,1.06,0,0,1,.34.48c.06.17.13.33.19.5s.11.33.15.48c.1.4.2.79.27,1.18a1.77,1.77,0,0,1,0,1.18,1.51,1.51,0,0,1-.93.7l-1.13.33-1.17.29-2,.41-2,.39-.27,0a1.34,1.34,0,0,0-.28,0,.91.91,0,0,1-1.06-.66,11.6,11.6,0,0,1-.44-1.25,7.31,7.31,0,0,1-.25-1.27,5.41,5.41,0,0,1,0-1.27,4.59,4.59,0,0,1,.37-1.27,5.45,5.45,0,0,1,.49-1c.2-.31.39-.63.57-.94s.45-.71.73-1.15a12.19,12.19,0,0,0,.72-1.39,6.25,6.25,0,0,0,.46-1.43,2.23,2.23,0,0,0-.08-1.29,1,1,0,0,0-.6-.58.77.77,0,0,0-.74.17,1.25,1.25,0,0,0-.56.73,2.39,2.39,0,0,0,0,1,5,5,0,0,0,.1.66,3.91,3.91,0,0,1,.07.67.85.85,0,0,1-.23.65,2,2,0,0,1-.63.46,3,3,0,0,1-.82.25,4.17,4.17,0,0,1-.86,0,2.11,2.11,0,0,1-.72-.19.75.75,0,0,1-.4-.46,10.48,10.48,0,0,1-.5-2.65,5.12,5.12,0,0,1,.57-2.56,4.85,4.85,0,0,1,3-2.52,5.52,5.52,0,0,1,1.58-.27,3.37,3.37,0,0,1,1.54.38,5.82,5.82,0,0,1,1.87,1.5,5.92,5.92,0,0,1,1.08,2.24,6.68,6.68,0,0,1,.19,2.11,11.12,11.12,0,0,1-.37,2.2,12.25,12.25,0,0,1-.78,2.07,11.19,11.19,0,0,1-1,1.72s0,0,.06,0A.06.06,0,0,1,347.62,546.82Z"/><path class="cls-5" d="M358.8,544l1-.34,1-.36a3.81,3.81,0,0,1,.45-.13l.45-.08a.76.76,0,0,1,.59.07,1,1,0,0,1,.35.47c.07.16.15.33.21.49a3.38,3.38,0,0,1,.16.48c.12.39.23.78.32,1.17a1.88,1.88,0,0,1,0,1.18,1.51,1.51,0,0,1-.92.72l-1.11.37c-.39.12-.77.23-1.16.33l-2,.48-2,.45a1,1,0,0,1-.28,0,1.47,1.47,0,0,0-.28,0,.91.91,0,0,1-1.08-.63,11.5,11.5,0,0,1-.47-1.23,6.37,6.37,0,0,1-.29-1.26,5.39,5.39,0,0,1,0-1.27,4.93,4.93,0,0,1,.33-1.28,5.41,5.41,0,0,1,.46-1c.19-.33.37-.65.54-1l.69-1.17a13,13,0,0,0,.68-1.41,7.36,7.36,0,0,0,.41-1.45,2.27,2.27,0,0,0-.13-1.28,1,1,0,0,0-.62-.57.77.77,0,0,0-.73.2,1.27,1.27,0,0,0-.53.75,2.42,2.42,0,0,0,0,1q0,.33.12.66a4.92,4.92,0,0,1,.1.67.9.9,0,0,1-.22.65,2,2,0,0,1-.61.48,3,3,0,0,1-.81.27,3.17,3.17,0,0,1-.86.06,1.82,1.82,0,0,1-.73-.17.7.7,0,0,1-.41-.43,10.19,10.19,0,0,1-.58-2.64,5.13,5.13,0,0,1,3.38-5.2,5.47,5.47,0,0,1,1.56-.31,3.24,3.24,0,0,1,1.56.32,5.66,5.66,0,0,1,3.07,3.64,6.68,6.68,0,0,1,.25,2.11,11.07,11.07,0,0,1-.29,2.21,12,12,0,0,1-.72,2.09,11.13,11.13,0,0,1-1,1.76l.05,0S358.79,544,358.8,544Z"/><path class="cls-5" d="M372.2,538.45a2.31,2.31,0,1,1,2.9,1.47A2.28,2.28,0,0,1,372.2,538.45Z"/><path class="cls-5" d="M390,529.34a5.5,5.5,0,0,1,2,1.33,6.17,6.17,0,0,1,1.25,2,3.62,3.62,0,0,1,.17,1.92,5.15,5.15,0,0,1-.7,1.8,6.29,6.29,0,0,1-1.26,1.51,6.19,6.19,0,0,1-1.54,1l-1.71.72-1.72.72a1.92,1.92,0,0,1-.48.15l-.49.09a1.54,1.54,0,0,1-1.69-1.06c-.11-.3-.21-.59-.29-.87s-.18-.57-.29-.86-.27-.81-.41-1.22-.29-.81-.44-1.21c-.31-.82-.62-1.63-.92-2.44l-.95-2.43c-.26-.63-.53-1.26-.82-1.87l-.85-1.85a5.54,5.54,0,0,1-.25-.91,1.51,1.51,0,0,1,.05-.68,1.28,1.28,0,0,1,.37-.54,2.63,2.63,0,0,1,.74-.47l1.71-.6a14.73,14.73,0,0,1,1.77-.51,12.1,12.1,0,0,1,1.74-.28,6.88,6.88,0,0,1,1.64.06,4.82,4.82,0,0,1,1.45.45,3.92,3.92,0,0,1,1.14.87,3.84,3.84,0,0,1,.77,1.22,4.24,4.24,0,0,1,.31,1.47,10.21,10.21,0,0,1,0,1.26,3.07,3.07,0,0,1-.07.6C390.11,528.91,390.06,529.12,390,529.34Zm-5.92,0a3,3,0,0,0,.7-.25,2.53,2.53,0,0,0,.62-.43,1.48,1.48,0,0,0,.36-.58,1,1,0,0,0,0-.7,1.62,1.62,0,0,0-.53-.61.82.82,0,0,0-.67-.11,3.08,3.08,0,0,0-.54.16l-.51.22a.33.33,0,0,0-.17.46q.21.43.39.9C383.82,528.69,384,529,384.1,529.32Zm2.45,6.28a2.25,2.25,0,0,0,.91-.38,4.62,4.62,0,0,0,.74-.67,1.37,1.37,0,0,0,.26-.49.81.81,0,0,0-.09-.59,1,1,0,0,0-1-.63,3.91,3.91,0,0,0-.91.11,1.8,1.8,0,0,0-.79.45l.68,1.86a.75.75,0,0,0,.08.18A.83.83,0,0,1,386.55,535.6Z"/><path class="cls-5" d="M404.88,523.2a13.54,13.54,0,0,1,.91,3.28,9.84,9.84,0,0,1-.07,3.11,6.94,6.94,0,0,1-1,2.62,6.38,6.38,0,0,1-1.32,1.45,5,5,0,0,1-1.63.87,4.85,4.85,0,0,1-1.83.22,6.1,6.1,0,0,1-1.94-.44,8.11,8.11,0,0,1-2.18-1.31,10,10,0,0,1-1.69-1.9,11.85,11.85,0,0,1-1.67-3.43,11.18,11.18,0,0,1-.42-3.76,11,11,0,0,1,.35-1.83,7.5,7.5,0,0,1,.71-1.68,6.17,6.17,0,0,1,1.31-1.54,5.11,5.11,0,0,1,1.64-.91,5.25,5.25,0,0,1,1.87-.22,6.35,6.35,0,0,1,2,.45,7.74,7.74,0,0,1,2.2,1.33,10.11,10.11,0,0,1,1.69,1.92,11.1,11.1,0,0,1,.61,1Zm-8,4.13a5.09,5.09,0,0,0,.56,1.18,5.15,5.15,0,0,0,.89,1,5,5,0,0,0,1.31.9,1.67,1.67,0,0,0,1.27.07,1.54,1.54,0,0,0,.87-.88c.08-.16.15-.33.22-.49a1.86,1.86,0,0,0,.11-.52,6.72,6.72,0,0,0-2.37-6,2.12,2.12,0,0,0-.55-.39c-.21-.1-.42-.19-.64-.27a1.49,1.49,0,0,0-1,0,1.66,1.66,0,0,0-.78.63,2.79,2.79,0,0,0-.31.71,3.82,3.82,0,0,0-.16.73A6.43,6.43,0,0,0,396.9,527.33Z"/><path class="cls-5" d="M414.89,515.92a3.08,3.08,0,0,1-.37.94,2.08,2.08,0,0,1-.62.66,1.28,1.28,0,0,1-.78.21,1.38,1.38,0,0,1-.85-.4l-.58-.49-.6-.43a2.11,2.11,0,0,0-.76-.29.92.92,0,0,0-1.13.44,1.08,1.08,0,0,0-.22.6,1.34,1.34,0,0,0,.11.6,1.6,1.6,0,0,0,.35.51,1.15,1.15,0,0,0,.52.31l1.09.26c.37.08.73.15,1.1.21s.89.16,1.35.21a12.51,12.51,0,0,1,1.3.24,4.59,4.59,0,0,1,2,1,4.83,4.83,0,0,1,1.28,1.87,5.14,5.14,0,0,1,.37,1.67,4,4,0,0,1-.26,1.66,5.08,5.08,0,0,1-1.54,2.24,5.77,5.77,0,0,1-2.46,1.14,6.54,6.54,0,0,1-2.24.09,8.9,8.9,0,0,1-2.16-.59,4.89,4.89,0,0,1-1.12-.69,5.39,5.39,0,0,1-.92-1,2,2,0,0,1-.34-1.29,3.35,3.35,0,0,1,.27-1.11,2.1,2.1,0,0,1,.73-.88,1.59,1.59,0,0,1,.91-.32,1.4,1.4,0,0,1,.9.28,4.3,4.3,0,0,1,.51.4l.49.44a2.19,2.19,0,0,0,1,.5,2.44,2.44,0,0,0,1,0,1.29,1.29,0,0,0,.75-.43.85.85,0,0,0,.11-.85,1.58,1.58,0,0,0-.5-.71,2,2,0,0,0-.88-.44l-1.21-.23c-.4-.07-.81-.13-1.21-.18a10.58,10.58,0,0,1-3.69-1.08,4.14,4.14,0,0,1-1.47-1.47,4.79,4.79,0,0,1-.59-1.9,4.3,4.3,0,0,1,.31-2,4.35,4.35,0,0,1,1.23-1.71,9.56,9.56,0,0,1,2-1.3,5.11,5.11,0,0,1,2-.51,6.78,6.78,0,0,1,1.66.17,5.68,5.68,0,0,1,1.67.64,3.42,3.42,0,0,1,1.19,1.17A2.21,2.21,0,0,1,414.89,515.92Z"/><path class="cls-5" d="M422.31,510.77c.1.21.2.42.3.61s.2.39.3.57l1.78,3.51c.61,1.18,1.21,2.35,1.81,3.49.19.37.39.72.58,1.07s.38.7.56,1.07a2,2,0,0,1,.19.55c0,.19.07.39.1.59a.76.76,0,0,1-.12.52,1,1,0,0,1-.43.36c-.25.12-.49.24-.72.37s-.47.23-.72.34a2.67,2.67,0,0,1-.5.17,1.48,1.48,0,0,1-.85,0,1.31,1.31,0,0,1-.5-.67l-1.6-3.34c-.52-1.1-1.06-2.22-1.61-3.34-.26-.56-.55-1.15-.88-1.76s-.63-1.21-.93-1.77a1.82,1.82,0,0,0-.15-.27,1.58,1.58,0,0,1-.15-.24l-.9.44c-.28.14-.56.28-.83.43a5.82,5.82,0,0,1-.76.33.78.78,0,0,1-.5,0,.87.87,0,0,1-.4-.3,7,7,0,0,1-.41-.68,6.45,6.45,0,0,1-.31-.58c-.1-.19-.19-.38-.28-.57a1.27,1.27,0,0,1-.17-.72,1.12,1.12,0,0,1,.4-.61l.46-.36c.15-.11.32-.22.5-.33l1.83-1,1.85-1,1.56-.75,1.54-.72a1,1,0,0,1,.27-.1l.29-.06a.94.94,0,0,1,1.07.48c.17.29.34.59.49.89s.29.62.43.93a1,1,0,0,1,.09.72,1.18,1.18,0,0,1-.5.5l-1.08.61Z"/><path class="cls-5" d="M439.63,506a13.85,13.85,0,0,1,1.29,3.16,10.06,10.06,0,0,1,.3,3.1,6.88,6.88,0,0,1-.65,2.71,6.09,6.09,0,0,1-1.14,1.6,5,5,0,0,1-1.51,1,5.07,5.07,0,0,1-1.79.44,6.2,6.2,0,0,1-2-.21,8.29,8.29,0,0,1-2.32-1,9.72,9.72,0,0,1-1.91-1.68,12,12,0,0,1-2.05-3.21,10.84,10.84,0,0,1-.87-3.69,11.27,11.27,0,0,1,.13-1.85,7.71,7.71,0,0,1,.51-1.76,6.24,6.24,0,0,1,1.12-1.68,5,5,0,0,1,1.52-1.09,5,5,0,0,1,1.83-.45,6.26,6.26,0,0,1,2,.22,7.65,7.65,0,0,1,2.34,1.05,10.29,10.29,0,0,1,1.91,1.72,9.45,9.45,0,0,1,.72.9Zm-7.44,5a5,5,0,0,0,.7,1.11,5.22,5.22,0,0,0,1,.92,4.83,4.83,0,0,0,1.4.73,1.62,1.62,0,0,0,1.27-.08,1.51,1.51,0,0,0,.76-1c.06-.16.11-.33.16-.51a1.91,1.91,0,0,0,.05-.53,6.72,6.72,0,0,0-3.07-5.65,2,2,0,0,0-.58-.31c-.22-.08-.44-.14-.67-.2a1.56,1.56,0,0,0-1,.12,1.73,1.73,0,0,0-.71.73,3.71,3.71,0,0,0-.22.74,3.81,3.81,0,0,0-.07.75A6.31,6.31,0,0,0,432.19,511.09Z"/><path class="cls-5" d="M444.64,504c.58.83,1.14,1.66,1.69,2.47l1.66,2.47c.16.23.3.47.44.71l.39.71a.8.8,0,0,1-.18,1.08l-.23.22a2.27,2.27,0,0,1-.25.18l-.74.42-.71.41a1.24,1.24,0,0,1-1.76-.41,7.42,7.42,0,0,1-.44-.7c-.13-.24-.26-.48-.4-.72-.27-.49-.54-1-.82-1.47l-.83-1.47-1.23-2.16c-.4-.72-.82-1.42-1.26-2.12s-.83-1.35-1.29-2-.91-1.36-1.35-2a1.67,1.67,0,0,1-.39-.94c0-.24.21-.5.6-.77a9.46,9.46,0,0,1,1.89-1.05,1,1,0,0,1,.71-.08c.24.06.49.14.74.23l.6.27.59.31c1,.59,2,1.21,3,1.85a30.55,30.55,0,0,0,3,1.65q-.3-.48-.6-1c-.21-.34-.42-.67-.63-1-.38-.61-.8-1.27-1.25-2s-.86-1.34-1.23-1.94a1.18,1.18,0,0,1,.26-1.67,5.65,5.65,0,0,1,.83-.65,3.86,3.86,0,0,1,.95-.43,1.29,1.29,0,0,1,1.68.48c.25.36.54.78.85,1.27s.59.92.83,1.31c.42.62.83,1.24,1.23,1.88s.79,1.27,1.19,1.9q.42.64.84,1.32c.28.45.56.88.85,1.31l1,1.59,1,1.58a2.59,2.59,0,0,1,.34.74.71.71,0,0,1-.21.71,4.71,4.71,0,0,1-1,.88l-1.07.67a1.27,1.27,0,0,1-.8.29,1.69,1.69,0,0,1-.8-.25l-.42-.25-.38-.24a19.39,19.39,0,0,0-1.63-1.1,14.25,14.25,0,0,0-1.75-.87,12.08,12.08,0,0,1-1.7-.81,17.38,17.38,0,0,0-1.67-.84.19.19,0,0,1-.08,0,.19.19,0,0,0-.09,0s0,0,0,0Z"/><path class="cls-5" d="M460.45,501.43a3,3,0,0,1,.45,1.06,4.91,4.91,0,0,1,.12,1.22,1.8,1.8,0,0,1-1.08,1.77.72.72,0,0,1-1-.35.52.52,0,0,1-.06-.16,1.45,1.45,0,0,1-.06-.19,2.27,2.27,0,0,0-1-1.3,1.56,1.56,0,0,1-.76-1.2,1.52,1.52,0,0,1,.57-1.27,2,2,0,0,1,1.52-.64A1.85,1.85,0,0,1,460.45,501.43Z"/><path class="cls-5" d="M474.41,482.81c.11.41.21.8.31,1.2s.2.79.31,1.19a.77.77,0,0,1,0,.15.28.28,0,0,0,0,.13,1.56,1.56,0,0,1-.48,1.83,4.51,4.51,0,0,0-.51.46c-.15.17-.32.34-.49.5a1.16,1.16,0,0,1-.58.28,1.85,1.85,0,0,1-.65-.07,10.2,10.2,0,0,1-1.29-.51,8.57,8.57,0,0,0-1.24-.48.69.69,0,0,0-.44,0c-.07.05,0,.21.31.5l3.38,3.52.15.16a2,2,0,0,1,.68,1.19,1.87,1.87,0,0,1-.65,1.19,7,7,0,0,1-.63.59l-.65.52a1.27,1.27,0,0,1-.88.23,1.44,1.44,0,0,1-.85-.47c-.15-.16-.33-.35-.53-.59s-.43-.48-.64-.73l-.65-.72c-.21-.23-.4-.44-.56-.6l-3.84-4q-1.87-1.93-3.86-4l-.11-.11a1.49,1.49,0,0,1-.45-.83,1.36,1.36,0,0,1,.42-.82c.22-.22.44-.43.69-.64l.74-.6a1.13,1.13,0,0,1,.59-.25,1.6,1.6,0,0,1,.64.07l2.92.8c.95.26,1.92.54,2.89.83l.19,0,.21,0c.3.06.49.05.58,0s.11-.28.07-.58l0-.29c0-.1,0-.19-.07-.29-.22-.72-.42-1.41-.6-2.09s-.38-1.37-.61-2.09c-.05-.22-.12-.45-.18-.65a6.36,6.36,0,0,1-.19-.66,1,1,0,0,1,0-.76,2.36,2.36,0,0,1,.38-.65c.18-.21.38-.42.58-.63a7,7,0,0,1,.64-.57,1.39,1.39,0,0,1,1.9,0c.14.1.27.21.4.32a3,3,0,0,1,.35.37l2.64,2.81,2.66,2.8,1,1.06,1.12,1.13,1.12,1.14,1,1a.9.9,0,0,1,.06,1.56c-.19.23-.38.44-.57.64s-.39.41-.6.61a1.31,1.31,0,0,1-.92.44,1.69,1.69,0,0,1-.92-.5l-1-1-1.08-1.05-1.08-1.05-1-.95-.08-.07-.09-.07,0,0Z"/><path class="cls-5" d="M487.06,472.35c-.26.64-.53,1.26-.79,1.86s-.53,1.22-.8,1.84l.61.4.61.37a1.24,1.24,0,0,1,.64.73,1.74,1.74,0,0,1,0,.93,8.84,8.84,0,0,1-.88,1.8.93.93,0,0,1-.65.49,1.34,1.34,0,0,1-.84-.14c-.95-.45-2-1-3.14-1.56a37.25,37.25,0,0,1-3.32-2,22.32,22.32,0,0,1-2.94-2.33,8.69,8.69,0,0,1-2-2.68,6.78,6.78,0,0,1-.63-2.22,4.22,4.22,0,0,1,.3-2.17,3.74,3.74,0,0,1,1-1.5,4.73,4.73,0,0,1,1.5-.89,6.92,6.92,0,0,1,1.8-.35,13.51,13.51,0,0,1,1.91,0,14.61,14.61,0,0,1,1.83.28,14,14,0,0,1,1.58.44,31.26,31.26,0,0,1,3.66,1.52c1.18.57,2.35,1.17,3.53,1.81a4.27,4.27,0,0,1,.79.61.79.79,0,0,1,.19.87c-.12.33-.26.66-.4,1s-.3.67-.47,1-.38.54-.59.59a1.55,1.55,0,0,1-.94-.16l-.82-.3Zm-3.52-1.42c-.31-.16-.68-.33-1.1-.5s-.85-.35-1.3-.5a6.14,6.14,0,0,0-2.51-.43c-.6.07-.94.26-1,.57a1,1,0,0,0,.14.68,4.49,4.49,0,0,0,.56.83,8.57,8.57,0,0,0,.85.86c.32.29.66.56,1,.82s.67.49,1,.7a5.55,5.55,0,0,0,.88.47c.27-.61.53-1.21.76-1.78Z"/><circle class="cls-6" cx="276.07" cy="295.34" r="175.21"/><circle class="cls-7" cx="276.07" cy="295.34" r="99.77"/><path class="cls-8" d="M463.21,379.72c-36.76-26.07-80.34-43.79-188-43.79-108.56,0-162.41,17.72-188,43.79-36.3,36.95,84.18,93.78,188,93.78S505.46,409.68,463.21,379.72Z"/><path class="cls-7" d="M262.39,394.48l102.08-52.85c-23.94-3.68-53-5.7-89.28-5.7-36,0-66,2-90.95,5.52Z"/><path class="cls-7" d="M133.23,167l66.26,58.82a118.85,118.85,0,0,1,34-23.78L193.41,124A208.63,208.63,0,0,0,133.23,167Z"/><path class="cls-9" d="M214.58,499.75a43,43,0,0,0,6.94,17.89c4.19,5.89,55.58,21.91,59.39-6.21,0,0-7.73-82.27-8.82-93l-8.17-4.91s-31.61,9-51.2.83l-5.83,7.76Z"/><path class="cls-10" d="M447.84,304.06s20.07,2.22,26.23,8.71c0,0,20.13,47.32-43.58,73.16"/><path class="cls-10" d="M479.84,335.37s32.69-7.49,27.34,8c-5.91,17.19-27.56,74.9,0,79.13"/><path class="cls-10" d="M466.81,304.06s12-43.61,2.23-75.76c0,0,20.16,2.73,25.06-7.63s108.45-6.9,92.11,116.25"/><path class="cls-10" d="M486.37,226.94s-34.67-95.84-85.89-55"/><circle class="cls-7" cx="586.21" cy="335.93" r="22.93"/><circle class="cls-6" cx="516.74" cy="433.37" r="22.93"/><circle class="cls-2" cx="406.64" cy="395.11" r="25.55"/><path class="cls-10" d="M567,249.43s-23.33,14.65-40.83,17.71c0,0,3.9,10-4,24.91"/><circle class="cls-11" cx="522.17" cy="301.86" r="19.57"/><path class="cls-10" d="M463.4,185.1s17.43-4.75,16.44-16.73c0,0,33.35,23.27,47.24,8.36"/><circle class="cls-8" cx="536.31" cy="178.73" r="14.14"/><path class="cls-7" d="M382.2,142.76l-48.44,68.37a110.51,110.51,0,0,1,23.7,24.5l66.35-48.72A194.21,194.21,0,0,0,382.2,142.76Z"/><path class="cls-7" d="M456.34,328.2a158.68,158.68,0,0,0,3.44-32.86c0-5.2-.27-10.34-.76-15.43l-83.65,4.81a90.23,90.23,0,0,1-1,27.56Z"/><path class="cls-5" d="M214.22,343.25c13.6-2.14,27.26-3.54,40.95-4.58s27.39-1.67,41.23-1.58c3.47,0,6.94.13,10.47.33.89.05,1.77.1,2.67.18s1.8.15,2.73.28c.47.06.92.11,1.4.19l1.48.26a25.65,25.65,0,0,1,3,.75,8.33,8.33,0,0,1,1.21.47,5.87,5.87,0,0,1,1.31.83,4.88,4.88,0,0,1,.63.62c.13.15.25.31.37.47a5.14,5.14,0,0,1,.46.83,4.6,4.6,0,0,1,.34,1.08,5.25,5.25,0,0,1,.09,1.42,5.12,5.12,0,0,1-.3,1.33,4.34,4.34,0,0,1-.48,1,5.16,5.16,0,0,1-.55.73l-.39.38c-.13.12-.31.26-.4.33l-.27.18-.28.18-.19.1-.37.18a7.74,7.74,0,0,1-.9.33c-.45.13-.78.2-1.08.26-1.17.23-2.06.32-3,.43-1.81.2-3.54.32-5.26.44l-10.21.7c-6.76.45-13.46,1-20,1.92-3.28.47-6.53,1-9.68,1.72a43,43,0,0,0-8.77,2.87l-2-7.62c2.86.11,5.56.3,8.33.6s5.49.66,8.23,1.18a63.87,63.87,0,0,1,8.21,2,23,23,0,0,1,8,4.1l3.08,2.59-3.69,1.13c-2.57.78-5.22,1.66-7.79,2.62s-5.14,2-7.62,3.14a46.4,46.4,0,0,0-7.16,4,15.53,15.53,0,0,0-3,2.69,5.23,5.23,0,0,0-1.42,3.71,5.41,5.41,0,0,1,.88-4.09,16.51,16.51,0,0,1,2.76-3.3,43.88,43.88,0,0,1,6.83-5.11q3.6-2.25,7.4-4.16c2.54-1.27,5.07-2.47,7.74-3.56l-.61,3.72a20.53,20.53,0,0,0-6.75-2.18,70.81,70.81,0,0,0-7.67-.88c-2.6-.16-5.22-.25-7.84-.27s-5.29,0-7.82.14l-16.48.77,14.51-8.39A46.22,46.22,0,0,1,267,346.52a100.35,100.35,0,0,1,10.42-2.4c6.93-1.27,13.86-2,20.73-2.62l10.26-.79,5-.42c.77-.08,1.58-.17,2.09-.27.12,0,.21,0,.17,0a1.66,1.66,0,0,0-.3.11l-.22.11-.12.07-.22.13-.2.14-.34.27-.32.33a4.37,4.37,0,0,0-.51.67,5.44,5.44,0,0,0-.45.91,4.66,4.66,0,0,0-.27,1.26,5.05,5.05,0,0,0,.07,1.34,4.92,4.92,0,0,0,.32,1,4.28,4.28,0,0,0,.43.76,2.59,2.59,0,0,0,.32.42,3.6,3.6,0,0,0,.51.5,3.4,3.4,0,0,0,.76.5c.16.08.1,0,0,0a49.18,49.18,0,0,0-8.93-1.35c-3.29-.28-6.65-.44-10-.61-13.51-.59-27.17-.87-40.83-1.33S228,344.26,214.22,343.25Z"/></g><g id="Layer_2" data-name="Layer 2"><path class="cls-5" d="M75.4,180c.07-.43.13-.85.19-1.27C75.59,178.73,75.5,179.18,75.4,180Z"/><path class="cls-5" d="M118.7,412.08c-11.16-91.58-2.55-143.58,4.68-168.47a167.63,167.63,0,0,1,7.16-18.6c-27.48-13.51-27.48-43.33-27.48-43.33l-27.47-3-.3,2.31c0-.39.08-.74.11-1-1.89,12.62-3.45,25-4.75,37.13l0,.28h0c-14.08,132.38,5,231.85,5,231.85,3.29,21.57,27.47,33.24,27.47,33.24l33.21,10.64A663.89,663.89,0,0,1,118.7,412.08Z"/><path class="cls-5" d="M73.06,433.25s-14.58,2.92-14.58-20.78-7.36-98,0-164.66a29.72,29.72,0,0,1,24.11-22l9.57,9.83L75.59,284.72Z"/><path class="cls-5" d="M127.13,257.69s-7.36,78.53,6.54,92.54c0,0,27.31-8.87,31.63-5.6,0,0-9.29-75.19,0-85.54l-10.38-9-24.79.27Z"/><path class="cls-5" d="M147,496.2s-43.72-88-11.44-195l17.16-3.89s23.7,10.14,40.05,7.69c0,0-12.7,139.76,14.08,203.51C206.89,508.46,177,535.58,147,496.2Z"/><path class="cls-12" d="M216,414.39l-9.12,12L216,501.29s-2.2-71.32,8-68.79,41.78,6.74,50.31-.85C274.35,431.65,216.51,436.76,216,414.39Z"/><path class="cls-12" d="M82.59,200.39s2.32,15.85,20.47,21.67c0,0-9.52,47-10.64,73.16,0,0,13.07-72.9,19.3-72.23C93.14,213.65,89,214.54,82.59,200.39Z"/><path class="cls-12" d="M93.17,333.57s-7.12,78.08,16.33,137C109.5,470.55,99.58,349.72,93.17,333.57Z"/><path class="cls-12" d="M131.76,257.69s21.16,1.53,28.88.4c0,0-4.32,12.29-3.63,21.82,0,0-3.36-12.33.73-19.37C157.74,260.54,133.75,261.47,131.76,257.69Z"/><path class="cls-12" d="M133.68,332s-2.56-21.09,4.56-28.52c0,0,25.48,6.73,35,7.43,0,0-26.62.86-33-4.2C140.25,306.74,135.21,308.82,133.68,332Z"/><path class="cls-12" d="M67.9,247.81s-6.67,73.67-2.46,97.64-12.9-96.67,2.46-97.64"/><path class="cls-12" d="M136.78,379.86s-8.58,53.51,20.94,116.79C157.72,496.65,139.17,438.26,136.78,379.86Z"/><polygon class="cls-11" points="55.3 334.23 82.59 281.18 114.4 371.23 158.46 339.59 239.1 464.61 319.74 424.49 302.35 398.81 400.48 394.36 356.69 476.77 329.55 441.92 233.51 501.29 153.24 371.23 108.88 400.5 80.57 323.79 55.85 356.25 55.3 334.23"/><path class="cls-5" d="M244,250.1a57.85,57.85,0,0,0,2.86-8.72c.76-3.09,1.44-6.17,2.05-9.26s1.19-6.12,1.76-9.07a78.79,78.79,0,0,1,2-8.21c.21-.79.48-1.65.79-2.59a12.77,12.77,0,0,1,1.18-2.59,8,8,0,0,1,1.65-2,4.19,4.19,0,0,1,2.35-1c1.52-.1,3-.18,4.28-.23a35.71,35.71,0,0,1,4.12.08c.74,0,1.4.13,2,.23a2.79,2.79,0,0,1,1.41.63,2,2,0,0,1,.59,1.37,6.63,6.63,0,0,1-.39,2.4q-4.17,12.79-8.48,25.91A270,270,0,0,0,255,263.37a7.32,7.32,0,0,1-.67,1.73c-.29.52-.59,1-.9,1.57a3.83,3.83,0,0,1-3.3,2.12c-1.83.1-3.66.22-5.49.35a43.9,43.9,0,0,1-5.5,0,9.31,9.31,0,0,1-5-1.65,7.51,7.51,0,0,1-2.78-4.79q-.63-2.5-1.1-5.07t-1-5.14q-1.35-7.14-3.34-14.13t-4.2-13.9c-.68-1.94-1.34-3.87-2-5.81a33.49,33.49,0,0,1-1.33-6,5.42,5.42,0,0,1,.59-3.85,3.85,3.85,0,0,1,3.1-1.88,16.2,16.2,0,0,1,3.73-.2,25.61,25.61,0,0,0,3.81,0,3.65,3.65,0,0,1,2.59.59,5.27,5.27,0,0,1,1.65,2.16c.36.79.7,1.58,1,2.4a21.44,21.44,0,0,1,.78,2.47c.74,2.51,1.42,5.33,2.05,8.44s1.25,6.3,1.88,9.54,1.3,6.41,2,9.5A67.71,67.71,0,0,0,244,250.1Z"/><path class="cls-5" d="M291.69,261.4a32.37,32.37,0,0,1-.23,3.85,3.19,3.19,0,0,1-2.91,3.07q-.71.07-1.77.15l-2.16.16c-.73.05-1.44.08-2.12.08a16.43,16.43,0,0,1-1.72-.08,5.48,5.48,0,0,1-4-1.61,6.23,6.23,0,0,1-1.25-4.2v-5.89c.05-3.46.07-7,.07-10.76s0-7.47.08-11.27.12-7.55.2-11.27.19-7.3.35-10.75v-1.46c0-.49,0-1,.08-1.53a3.5,3.5,0,0,1,.82-2.23,2.77,2.77,0,0,1,2.16-.83c.63,0,1.38,0,2.24,0s1.74,0,2.63,0l2.59.08c.84,0,1.57.07,2.2.12a3,3,0,0,1,2.16.9,4.08,4.08,0,0,1,.67,2.32,13.69,13.69,0,0,1,.08,2.47c-.05.81-.08,1.66-.08,2.55v30.63c0,3.56,0,6.55,0,9S291.69,259.47,291.69,261.4Z"/><path class="cls-5" d="M335.27,226.3a10.68,10.68,0,0,1-2.59,2.52,7.2,7.2,0,0,1-3,1.25,4.52,4.52,0,0,1-2.83-.43,5,5,0,0,1-2.2-2.55c-.37-.84-.76-1.65-1.18-2.43s-.86-1.55-1.33-2.28a7.61,7.61,0,0,0-2-2,3.32,3.32,0,0,0-4.32-.24,3.87,3.87,0,0,0-1.61,1.65,4.69,4.69,0,0,0-.51,2.12,6.24,6.24,0,0,0,.39,2.16,4,4,0,0,0,1.26,1.77c1,.83,2.1,1.65,3.18,2.43s2.16,1.55,3.26,2.28c1.3.94,2.67,1.83,4.08,2.67a37.36,37.36,0,0,1,3.92,2.67,16.77,16.77,0,0,1,5.15,6.32,17.72,17.72,0,0,1,1.45,8,18.82,18.82,0,0,1-1.22,6,14.81,14.81,0,0,1-3.26,5,18.14,18.14,0,0,1-8.28,5.07,20.56,20.56,0,0,1-9.7.12,22.93,22.93,0,0,1-7.42-2.95,31.3,31.3,0,0,1-6.16-5.06,16.64,16.64,0,0,1-2.67-3.89,20.09,20.09,0,0,1-1.57-4.52,6.85,6.85,0,0,1,.78-4.71,12.33,12.33,0,0,1,2.48-3.22,7.53,7.53,0,0,1,3.65-1.8,5.79,5.79,0,0,1,3.45.27,4.92,4.92,0,0,1,2.52,2.24,20.23,20.23,0,0,1,1.09,2c.32.68.63,1.39.95,2.12a7.61,7.61,0,0,0,2.55,3.1,8.67,8.67,0,0,0,3.38,1.57,4.65,4.65,0,0,0,3.06-.31,3.08,3.08,0,0,0,1.61-2.63,5.68,5.68,0,0,0-.59-3,7,7,0,0,0-2.24-2.71l-3.61-2.52c-1.21-.83-2.44-1.62-3.69-2.35A38.37,38.37,0,0,1,301,231.09a14.66,14.66,0,0,1-2.63-6.94,16.33,16.33,0,0,1,.83-7,15.2,15.2,0,0,1,3.85-6,15.82,15.82,0,0,1,6.51-3.77,32,32,0,0,1,8.37-1.33,18.31,18.31,0,0,1,7.34,1.25,26,26,0,0,1,5.14,3A19.35,19.35,0,0,1,335,214.8a12.37,12.37,0,0,1,2.2,5.54A8,8,0,0,1,335.27,226.3Z"/><path class="cls-5" d="M225.73,331.33c0,.73-.08,1.49-.08,2.27s0,1.55-.08,2.28a4.51,4.51,0,0,1-.74,2.2,2.64,2.64,0,0,1-2.24,1.1c-1.36.05-2.72.08-4.08.08s-2.73-.06-4.09-.16a3.22,3.22,0,0,1-3.06-3.22,5.44,5.44,0,0,1-.16-1.26v-1.33q.24-12.57.48-23.64t.23-21.83a24.24,24.24,0,0,0-.16-2.82c-.1-.95-.23-1.89-.39-2.83a4.79,4.79,0,0,1,.32-3.18,4.11,4.11,0,0,1,2.82-1.38,54.93,54.93,0,0,1,7-.51,48.19,48.19,0,0,1,7.38.51,36.91,36.91,0,0,1,7.15,1.81,25.89,25.89,0,0,1,6.28,3.3,19.26,19.26,0,0,1,5.46,6,25.09,25.09,0,0,1,2.9,7.57,27.77,27.77,0,0,1,.43,8.21,27.49,27.49,0,0,1-1.92,7.93,22.51,22.51,0,0,1-4.24,6.71,18.93,18.93,0,0,1-6.48,4.64,13.48,13.48,0,0,1-3.45,1.1,21.54,21.54,0,0,1-3.69.31h-5.58Zm.94-36.91q-.15,3.69-.23,7.22c-.06,2.36,0,4.72.15,7.07.95,0,1.84,0,2.67,0s1.71,0,2.6,0a5.87,5.87,0,0,0,3.33-1.26,4.61,4.61,0,0,0,1.69-3,10.68,10.68,0,0,0,.31-3.18,6.69,6.69,0,0,0-.94-3.1,6.82,6.82,0,0,0-5.26-3.77,9.3,9.3,0,0,0-2-.08C228.27,294.39,227.51,294.42,226.67,294.42Z"/><path class="cls-5" d="M272.28,304.75c1.51.07,3.13.14,4.85.19s3.37.05,5,0,2.8-.13,3.64-.23c.31-4.09.5-8.06.58-11.94s.25-7.77.51-11.7a3.51,3.51,0,0,1,1.49-2.94,8,8,0,0,1,3.34-1.3,17.42,17.42,0,0,1,4.05-.16c1.41.11,2.61.24,3.61.4a2.72,2.72,0,0,1,1.76,1,4.63,4.63,0,0,1,.83,1.84,7.23,7.23,0,0,1,.16,2.12c-.06.71-.11,1.32-.16,1.85-.11,3.71-.2,7.51-.28,11.38s-.11,7.76-.11,11.66,0,7.74.11,11.51.2,7.38.36,10.83c.15,2,.22,3.59.19,4.79a4.83,4.83,0,0,1-.78,2.83,4.36,4.36,0,0,1-2.58,1.49,30.66,30.66,0,0,1-5.27.71,12.23,12.23,0,0,1-4.23-.35,5.15,5.15,0,0,1-2.58-1.73,7.11,7.11,0,0,1-1.28-3.06,23.55,23.55,0,0,1-.36-4.44c0-.84,0-1.78,0-2.83s0-2.13,0-3.26v-6.24a82.85,82.85,0,0,0-8.48,0A72.36,72.36,0,0,1,268,317c-.06.58-.1,1.14-.12,1.69s0,1.06,0,1.53c-.05,2.05-.08,4.31-.08,6.8v6.63a5.77,5.77,0,0,1-1.22,3.77,4.56,4.56,0,0,1-3.33,1.65c-1.16,0-2.25.08-3.3.08a20.65,20.65,0,0,1-3.14-.24,5.56,5.56,0,0,1-3.54-1.45,4.37,4.37,0,0,1-1-3q0-7.07.12-14.06t.24-13.58c.07-4.4.13-8.61.15-12.65s0-7.8,0-11.3q-.71-5.26,5.27-5.58c1-.1,2.12-.16,3.22-.16s2.25,0,3.45.08a6.24,6.24,0,0,1,3.53,1,4.09,4.09,0,0,1,1,3.22q0,5.42,0,10.76t0,10.76v1.41A18.54,18.54,0,0,0,272.28,304.75Z"/><path class="cls-5" d="M343.52,319.15a29.51,29.51,0,0,1-2.28,6.17,24.72,24.72,0,0,1-4.2,6,26.75,26.75,0,0,1-6.28,4.86,23.92,23.92,0,0,1-8.45,2.79,38,38,0,0,1-10.12-.08,9.5,9.5,0,0,1-2.4-.78,7.36,7.36,0,0,1-2-1.41A5.51,5.51,0,0,1,306,332.5q.07-3.06.24-6.12t0-6.13q-.17-8.79-.32-16.45t-.15-15.19c.05-1.21.07-2.42.07-3.65v-3.73a4.81,4.81,0,0,1,.75-2.87,5,5,0,0,1,2.71-1.14,33.74,33.74,0,0,1,14.06.47,25.71,25.71,0,0,1,19.08,15.94A35.51,35.51,0,0,1,344.85,306,52.33,52.33,0,0,1,343.52,319.15Zm-23.17,3.62a6.16,6.16,0,0,0,2.63-.24,8.49,8.49,0,0,0,2.24-1.18,9.13,9.13,0,0,0,2.59-3,17.14,17.14,0,0,0,1.46-3.77,24.27,24.27,0,0,0,.66-4.08c.11-1.39.18-2.68.24-3.89a39.7,39.7,0,0,0-.43-5.77,16.57,16.57,0,0,0-1.57-5.07,8.15,8.15,0,0,0-3.15-3.37,7.18,7.18,0,0,0-5.06-.63,154.84,154.84,0,0,1,.78,15.47Q320.74,314.92,320.35,322.77Z"/><path class="cls-12" d="M68.16,411.26a.88.88,0,0,1-.24,0,.66.66,0,0,1-.21-.08.54.54,0,0,1-.15-.15.44.44,0,0,1,0-.24,3.62,3.62,0,0,0,.06-.46c0-.16,0-.31,0-.47a.58.58,0,0,1,.21-.41.62.62,0,0,1,.45-.07l.45,0a2.33,2.33,0,0,0,.46,0,.75.75,0,0,0,.36-.17.55.55,0,0,0,.18-.39.69.69,0,0,0-.07-.42.9.9,0,0,0-.27-.28,1.12,1.12,0,0,0-.37-.16l-.41-.09a7.16,7.16,0,0,0-1,0,10.61,10.61,0,0,0-1.1.13,9.28,9.28,0,0,0-1.07.26,5.12,5.12,0,0,0-.94.36.58.58,0,0,1-.43.06.44.44,0,0,1-.26-.31c0-.14-.08-.27-.11-.39a1.84,1.84,0,0,1-.08-.38.82.82,0,0,1,.06-.64,1,1,0,0,1,.42-.33,8.27,8.27,0,0,1,1-.32,11.39,11.39,0,0,1,1.17-.25,10.44,10.44,0,0,1,1.28-.14,7.81,7.81,0,0,1,1.29,0,5.49,5.49,0,0,1,1.18.26,2.8,2.8,0,0,1,1,.53,2.35,2.35,0,0,1,.64.87,3,3,0,0,1,.21,1.26,2.42,2.42,0,0,1-.37,1.28,2.22,2.22,0,0,1-.85.79,3.16,3.16,0,0,1-1.15.36A4.67,4.67,0,0,1,68.16,411.26Z"/><path class="cls-12" d="M70.49,405.06a.92.92,0,0,1-.37-.05.94.94,0,0,1-.32-.19,1.06,1.06,0,0,1-.22-.29,1.19,1.19,0,0,1-.09-.36.78.78,0,0,1,.06-.37.87.87,0,0,1,.18-.31.78.78,0,0,1,.29-.21.87.87,0,0,1,.36-.09.92.92,0,0,1,1,.9.7.7,0,0,1,0,.35,1,1,0,0,1-.19.3,1,1,0,0,1-.28.23A.77.77,0,0,1,70.49,405.06Z"/><path class="cls-12" d="M69.75,394.7c0,.31.07.62.09.92s.06.61.08.92l.33,0,.33,0a.57.57,0,0,1,.42.16.76.76,0,0,1,.19.38,4,4,0,0,1,0,.92.46.46,0,0,1-.16.34.63.63,0,0,1-.37.12c-.48,0-1,.05-1.61.06s-1.17,0-1.77-.08a9.18,9.18,0,0,1-1.69-.3,3.84,3.84,0,0,1-1.38-.65,3.1,3.1,0,0,1-.74-.75,1.93,1.93,0,0,1-.35-.95,1.9,1.9,0,0,1,.09-.83,2.06,2.06,0,0,1,.41-.68,3.46,3.46,0,0,1,.65-.54,7.22,7.22,0,0,1,.78-.41,6.35,6.35,0,0,1,.8-.28,6.26,6.26,0,0,1,.73-.17,16.11,16.11,0,0,1,1.81-.19c.6,0,1.2,0,1.81,0a1.77,1.77,0,0,1,.46.07.38.38,0,0,1,.27.31c0,.16,0,.32,0,.49s0,.33,0,.51a.5.5,0,0,1-.11.36.73.73,0,0,1-.42.14l-.39.06Zm-1.73.19-.55,0-.63.08a2.73,2.73,0,0,0-1.11.38c-.22.16-.32.31-.28.45a.44.44,0,0,0,.2.24,1.74,1.74,0,0,0,.41.21,5.52,5.52,0,0,0,.53.17l.58.11.56.06h.46c0-.31,0-.6-.08-.88Z"/><path class="cls-12" d="M68.2,387.29a4.12,4.12,0,0,1,.8.26,3,3,0,0,1,.79.51,3.17,3.17,0,0,1,.66.78,3.12,3.12,0,0,1,.4,1.06,4.76,4.76,0,0,1,.05,1.3,1.4,1.4,0,0,1-.09.31,1,1,0,0,1-.17.27.7.7,0,0,1-.52.25h-.79c-.27,0-.53,0-.79,0l-2.11.13c-.65,0-1.3.08-2,.1H64l-.48,0a.65.65,0,0,1-.37-.08.71.71,0,0,1-.16-.35,4.2,4.2,0,0,1,0-1.8,3.32,3.32,0,0,1,1.94-2.54,4.52,4.52,0,0,1,1.58-.38A6.83,6.83,0,0,1,68.2,387.29Zm.59,2.95a.68.68,0,0,0-.05-.33,1.11,1.11,0,0,0-.56-.6,2.67,2.67,0,0,0-.5-.17,4.35,4.35,0,0,0-.52-.06h-.5a4.53,4.53,0,0,0-.74.09,1.93,1.93,0,0,0-.64.23,1,1,0,0,0-.42.42.93.93,0,0,0,0,.65q1-.13,2-.18C67.45,390.25,68.11,390.24,68.79,390.24Z"/><path class="cls-12" d="M69.24,382.68c0,.32.07.62.09.93s0,.6.08.91l.33,0,.33,0a.53.53,0,0,1,.41.15.74.74,0,0,1,.2.38,4.08,4.08,0,0,1,0,.92.44.44,0,0,1-.16.34.63.63,0,0,1-.37.13l-1.61.05a15,15,0,0,1-1.77-.07,10.1,10.1,0,0,1-1.69-.3,4,4,0,0,1-1.38-.65,3.33,3.33,0,0,1-.74-.76,1.89,1.89,0,0,1-.35-.94,1.75,1.75,0,0,1,.09-.83,2.21,2.21,0,0,1,.41-.69,3.07,3.07,0,0,1,.65-.53,5.8,5.8,0,0,1,.78-.41c.27-.11.53-.21.8-.29a6.09,6.09,0,0,1,.73-.16,16.11,16.11,0,0,1,1.81-.19c.6,0,1.2,0,1.81,0a2.32,2.32,0,0,1,.46.07.39.39,0,0,1,.27.32c0,.16,0,.32.05.48l0,.51a.51.51,0,0,1-.11.37.73.73,0,0,1-.42.14l-.39.06Zm-1.73.2c-.16,0-.34,0-.55,0a4.52,4.52,0,0,0-.63.08,2.9,2.9,0,0,0-1.11.37c-.23.16-.32.31-.28.45a.46.46,0,0,0,.2.25,3.09,3.09,0,0,0,.41.21,3.67,3.67,0,0,0,.53.16c.19.05.39.08.58.11l.56.07h.46c0-.31-.06-.61-.08-.89Z"/><path class="cls-12" d="M66.91,375l.51.25.51.26a.1.1,0,0,1,0,0l.06,0a.71.71,0,0,1,.48.72c0,.11,0,.21,0,.32s0,.21,0,.32a.49.49,0,0,1-.08.28.7.7,0,0,1-.22.2,3.91,3.91,0,0,1-.57.3,2.77,2.77,0,0,0-.54.28c-.09.05-.14.1-.14.14s.08.05.26,0L69.5,378h.1a.94.94,0,0,1,.62.13.93.93,0,0,1,.21.58c0,.14,0,.27,0,.4s0,.25,0,.38a.54.54,0,0,1-.19.37.57.57,0,0,1-.42.15H68.18l-2.53.12-2.55.11H63a.65.65,0,0,1-.42-.1.57.57,0,0,1-.15-.39,3,3,0,0,1,0-.43c0-.14,0-.29,0-.44a.54.54,0,0,1,.09-.27.88.88,0,0,1,.22-.21l1.16-.76,1.16-.74a.18.18,0,0,0,.07-.05l.08-.06c.11-.09.16-.16.16-.22s-.06-.12-.18-.2l-.11-.07-.12-.07c-.31-.14-.62-.28-.9-.43l-.9-.42-.28-.14-.29-.13a.49.49,0,0,1-.26-.23,1.42,1.42,0,0,1-.11-.33c0-.13,0-.26,0-.39a2.67,2.67,0,0,1,0-.4.64.64,0,0,1,.58-.65l.23,0h.23l1.77-.05,1.77-.07.68,0,.72,0,.74,0,.67,0a.61.61,0,0,1,.4.07c.08.05.13.18.15.38s0,.27,0,.39l0,.4a.62.62,0,0,1-.13.45.79.79,0,0,1-.45.16l-.63.05-.68,0-.69.06-.63.05h-.1v0A0,0,0,0,0,66.91,375Z"/><path class="cls-12" d="M64.48,367.44a1.26,1.26,0,0,1,.33.32,1.05,1.05,0,0,1,.18.37.67.67,0,0,1,0,.37.66.66,0,0,1-.32.29l-.3.17-.29.18a.85.85,0,0,0-.25.28.42.42,0,0,0,0,.55.59.59,0,0,0,.22.2.56.56,0,0,0,.28.05.63.63,0,0,0,.27-.06.47.47,0,0,0,.22-.17c.11-.14.2-.28.3-.42s.19-.29.27-.43.22-.36.32-.54a5.13,5.13,0,0,1,.32-.52,2.37,2.37,0,0,1,.79-.7,2.23,2.23,0,0,1,1-.22,2.45,2.45,0,0,1,.78.12,1.86,1.86,0,0,1,.66.39,2.32,2.32,0,0,1,.69,1A2.44,2.44,0,0,1,70,370a3.18,3.18,0,0,1-.33,1,4.78,4.78,0,0,1-.62.82,2.13,2.13,0,0,1-.49.36,3,3,0,0,1-.57.23.88.88,0,0,1-.61-.08,1.6,1.6,0,0,1-.42-.3.9.9,0,0,1-.25-.46.73.73,0,0,1,0-.44.63.63,0,0,1,.28-.34l.25-.15.27-.13a.92.92,0,0,0,.38-.35,1.2,1.2,0,0,0,.19-.44.65.65,0,0,0-.06-.39.4.4,0,0,0-.35-.19.69.69,0,0,0-.38.09.89.89,0,0,0-.34.3l-.3.48a4.76,4.76,0,0,0-.28.49,5.16,5.16,0,0,1-1.08,1.38,1.85,1.85,0,0,1-.88.38,2.15,2.15,0,0,1-.91-.07,2,2,0,0,1-.78-.46,1.92,1.92,0,0,1-.52-.81,3.85,3.85,0,0,1-.22-1.07,2.44,2.44,0,0,1,.12-.95,4,4,0,0,1,.35-.68,2.68,2.68,0,0,1,.56-.6,1.53,1.53,0,0,1,.7-.31A1,1,0,0,1,64.48,367.44Z"/></g></svg>