<svg xmlns="http://www.w3.org/2000/svg" viewBox="0 0 676.36 603.72"><defs><style>.cls-1,.cls-12{fill:#662d91;}.cls-1,.cls-10,.cls-11,.cls-2,.cls-3,.cls-4,.cls-6,.cls-7,.cls-8,.cls-9{stroke:#231f20;stroke-miterlimit:10;stroke-width:10px;}.cls-2{fill:#ed1c24;}.cls-3{fill:#ed5479;}.cls-4{fill:#28858e;}.cls-5,.cls-9{fill:#231f20;}.cls-6{fill:#ee8522;}.cls-7{fill:#f6e108;}.cls-8{fill:#67cada;}.cls-10{fill:none;}.cls-11{fill:#0ab26a;}</style></defs><g id="Layer_1" data-name="Layer 1"><path class="cls-1" d="M276.07,294l363.52,96.83s-45,18.51-47.34,39.27,2.58,67.05-11.63,66.51L276.07,294"/><path class="cls-2" d="M276.07,294l328,87.37S569.37,397.07,567,417.83s-6.31,52.19-20.51,51.66L276.07,294"/><path class="cls-3" d="M276.07,295.68l276.49,73.1s-29.26,13.1-31.25,30.47S516,442.92,504,442.47L276.07,295.68"/><path class="cls-2" d="M228.45,41.41l20.41,188.5a187.82,187.82,0,0,1,67.72,1.62L364.47,56.32C325,48.34,269.9,44.68,228.45,41.41Z"/><path class="cls-2" d="M49.13,225.82,202,294a194.08,194.08,0,0,1,37.65-58.81L87.65,76.16C59.48,106.74,64.69,186.63,49.13,225.82Z"/><path class="cls-3" d="M233.31,84.36l15.55,145.55a187.82,187.82,0,0,1,67.72,1.62L354.15,85.91A331.26,331.26,0,0,0,233.31,84.36Z"/><path class="cls-3" d="M79.37,234.36,202,294a194.08,194.08,0,0,1,37.65-58.81l-108.53-110C103,155.75,97,195.4,79.37,234.36Z"/><path class="cls-2" d="M530.93,60.12,356.34,181a289.43,289.43,0,0,1,33,94.26l263.28-56.94C642.22,158.56,560.44,111,530.93,60.12Z"/><path class="cls-3" d="M495.24,84.83l-138.9,96.85a289.46,289.46,0,0,1,33,94.25l202.2-47.85C581.14,168.32,524.74,135.7,495.24,84.83Z"/><path class="cls-4" d="M471.57,399.61h-391v38.46h0c-.53,35.69,103.45,79.49,194.61,79.49,89.32,0,195.36-47.22,196.37-79.49h0Z"/><path class="cls-5" d="M149.67,522.58a3,3,0,0,1-.95.33,2.09,2.09,0,0,1-.91,0,1.27,1.27,0,0,1-.66-.45,1.39,1.39,0,0,1-.25-.91c0-.26,0-.51,0-.76s0-.49-.06-.73a2.22,2.22,0,0,0-.27-.77.94.94,0,0,0-1.07-.58,1.12,1.12,0,0,0-.6.22,1.29,1.29,0,0,0-.39.48,1.67,1.67,0,0,0-.16.59,1.12,1.12,0,0,0,.1.6l.51,1c.18.33.36.65.55,1s.45.78.71,1.17a9,9,0,0,1,.67,1.15,4.64,4.64,0,0,1,.53,2.22,4.79,4.79,0,0,1-.59,2.18,5.3,5.3,0,0,1-1,1.36,4.09,4.09,0,0,1-1.43.88,5.05,5.05,0,0,1-2.71.28,5.83,5.83,0,0,1-2.47-1.14,6.54,6.54,0,0,1-1.51-1.65,8.7,8.7,0,0,1-1-2,4.58,4.58,0,0,1-.2-1.31,5.17,5.17,0,0,1,.15-1.33,1.91,1.91,0,0,1,.76-1.09,3.52,3.52,0,0,1,1-.52,2.09,2.09,0,0,1,1.14,0,1.61,1.61,0,0,1,.84.48,1.41,1.41,0,0,1,.36.87,3.62,3.62,0,0,1,0,.65c0,.21,0,.43,0,.65a2.08,2.08,0,0,0,.27,1.09,2.26,2.26,0,0,0,.66.81,1.3,1.3,0,0,0,.81.29.87.87,0,0,0,.73-.47,1.53,1.53,0,0,0,.21-.83,1.92,1.92,0,0,0-.23-1l-.61-1.07c-.21-.36-.42-.71-.65-1a10.89,10.89,0,0,1-1.57-3.51,4.09,4.09,0,0,1,.18-2.07,4.53,4.53,0,0,1,1.06-1.68,4.26,4.26,0,0,1,1.69-1,4.5,4.5,0,0,1,2.11-.17,9.38,9.38,0,0,1,2.27.68,4.89,4.89,0,0,1,1.7,1.21,7,7,0,0,1,.94,1.37,5.44,5.44,0,0,1,.6,1.69,3.33,3.33,0,0,1-.12,1.66A2.19,2.19,0,0,1,149.67,522.58Z"/><path class="cls-5" d="M155.24,525.45q-.47,1.08-.87,2.22a6.45,6.45,0,0,0-.58,1.9,4.12,4.12,0,0,0,.1,1.52,2.46,2.46,0,0,0,.62,1.07,2.08,2.08,0,0,0,2.11.53,3,3,0,0,0,1.17-.69,7.49,7.49,0,0,0,1.36-1.8,22.17,22.17,0,0,0,1.21-2.44c.37-.86.7-1.71,1-2.55l.74-2.15a1.08,1.08,0,0,1,1.26-.81,4.61,4.61,0,0,1,2.18.91,1.31,1.31,0,0,1,.43.51,1,1,0,0,1,.05.67c-.26,1-.57,2.08-.94,3.24a28.69,28.69,0,0,1-1.33,3.39,20.76,20.76,0,0,1-1.81,3.08,9.88,9.88,0,0,1-2.31,2.34,6.35,6.35,0,0,1-6.31.7,7,7,0,0,1-2.15-1.22,5.71,5.71,0,0,1-1.34-1.67,6.38,6.38,0,0,1-.67-2,9.27,9.27,0,0,1-.08-2.18,13.18,13.18,0,0,1,.37-2.32c.19-.77.42-1.53.67-2.28s.54-1.49.83-2.23.59-1.44.86-2.14l.3-.74a5.87,5.87,0,0,1,.46-.86,3.29,3.29,0,0,1,.58-.68.77.77,0,0,1,.67-.19,6.65,6.65,0,0,1,1.39.38,9.33,9.33,0,0,1,1.31.64,1.22,1.22,0,0,1,.59.67,1.62,1.62,0,0,1-.1.91q-.18.52-.39,1c-.14.33-.28.68-.42,1h0C155.87,524,155.56,524.73,155.24,525.45Z"/><path class="cls-5" d="M175.06,536.85l-.9.84-.91.84-.12.09a.28.28,0,0,0-.1.09,1.54,1.54,0,0,1-1.83.45,4.21,4.21,0,0,0-.65-.23l-.67-.19a1.06,1.06,0,0,1-.52-.39,1.62,1.62,0,0,1-.25-.6,10,10,0,0,1-.17-1.38,7.22,7.22,0,0,0-.16-1.32c-.05-.23-.11-.36-.18-.4s-.17.13-.29.51l-1.5,4.65-.07.21a2,2,0,0,1-.73,1.16,1.86,1.86,0,0,1-1.35,0c-.28-.08-.56-.17-.81-.27l-.78-.33a1.28,1.28,0,0,1-.62-.66,1.47,1.47,0,0,1,0-1c.06-.21.15-.46.26-.76s.23-.6.34-.91.23-.61.33-.91l.26-.78,1.69-5.27c.54-1.71,1.11-3.48,1.69-5.29l.05-.15a1.44,1.44,0,0,1,.52-.79,1.32,1.32,0,0,1,.92,0,7.62,7.62,0,0,1,.88.3l.89.37a1.16,1.16,0,0,1,.49.4,1.62,1.62,0,0,1,.25.6l.68,2.94c.22,1,.43,2,.64,2.94a1.33,1.33,0,0,0,0,.19,1.19,1.19,0,0,1,.08.2c.09.29.2.45.31.49s.3,0,.55-.22l.24-.16a2.09,2.09,0,0,0,.22-.2c.53-.54,1.05-1,1.55-1.52s1-1,1.56-1.52l.49-.48c.15-.16.31-.32.49-.48a1,1,0,0,1,.67-.36,2.7,2.7,0,0,1,.75,0,8.15,8.15,0,0,1,.82.2,6.21,6.21,0,0,1,.82.3,1.38,1.38,0,0,1,.89,1.67,5,5,0,0,1-.09.51,2.46,2.46,0,0,1-.16.48c-.41,1.25-.82,2.47-1.22,3.65s-.8,2.41-1.2,3.68l-.45,1.41c-.15.5-.31,1-.46,1.52s-.32,1-.47,1.53-.3,1-.44,1.4a1.33,1.33,0,0,1-.44.78,1.31,1.31,0,0,1-.9,0l-.84-.2-.83-.24a1.34,1.34,0,0,1-.82-.6,1.69,1.69,0,0,1,0-1.05c.12-.39.24-.83.38-1.31l.42-1.45c.14-.48.28-1,.41-1.44s.25-.91.37-1.32a.52.52,0,0,1,0-.11s0-.08,0-.11l0,0Z"/><path class="cls-5" d="M191.63,541.47c-.29.31-.57.6-.86.89l-.85.89-.12.1a.28.28,0,0,0-.09.1,1.55,1.55,0,0,1-1.81.55,3.32,3.32,0,0,0-.66-.2c-.23,0-.45-.09-.68-.15a1.08,1.08,0,0,1-.54-.36,1.57,1.57,0,0,1-.28-.58,10.33,10.33,0,0,1-.25-1.38,8.23,8.23,0,0,0-.23-1.3c-.07-.23-.13-.36-.21-.39s-.16.14-.26.52l-1.24,4.72-.05.22a2,2,0,0,1-.67,1.2,1.92,1.92,0,0,1-1.35.07,6.54,6.54,0,0,1-.82-.23l-.79-.29a1.26,1.26,0,0,1-.66-.62,1.44,1.44,0,0,1,0-1c.05-.21.13-.47.22-.77s.19-.61.29-.93.19-.62.28-.93.16-.56.22-.79q.72-2.75,1.39-5.36t1.39-5.37l0-.15a1.47,1.47,0,0,1,.48-.82,1.26,1.26,0,0,1,.92-.07c.3.07.6.15.9.25l.9.32a1.18,1.18,0,0,1,.52.37,1.74,1.74,0,0,1,.28.58q.44,1.49.84,2.91c.28,1,.54,1.91.8,2.89a1.07,1.07,0,0,0,.07.19c0,.06,0,.12.08.19.11.29.22.45.34.48s.3,0,.53-.25l.23-.18a2.09,2.09,0,0,0,.22-.2c.49-.57,1-1.11,1.46-1.61s1-1,1.47-1.61c.16-.16.32-.33.46-.5s.3-.34.46-.5a1,1,0,0,1,.65-.4,2.77,2.77,0,0,1,.76,0c.27,0,.55.1.83.16a7.93,7.93,0,0,1,.83.25,1.4,1.4,0,0,1,1,1.62c0,.17,0,.34-.07.51a2.34,2.34,0,0,1-.13.49c-.34,1.27-.68,2.51-1,3.71s-.67,2.45-1,3.74c-.12.44-.24.92-.37,1.43s-.25,1-.38,1.55-.26,1-.38,1.55-.25,1-.37,1.43a1.26,1.26,0,0,1-.39.79,1.31,1.31,0,0,1-.9.08l-.85-.16c-.27,0-.55-.12-.83-.2a1.3,1.3,0,0,1-.86-.55,1.68,1.68,0,0,1,0-1l.3-1.32c.11-.49.22-1,.34-1.47s.22-1,.32-1.47.2-.92.3-1.34c0,0,0-.06,0-.11s0-.08,0-.11l0,0Z"/><path class="cls-5" d="M204.59,547.85c.84.16,1.18.62,1,1.38a7.57,7.57,0,0,1-.23,1c-.08.27-.17.58-.28.93a.86.86,0,0,1-1.08.6c-1.3-.26-2.55-.49-3.73-.69a18.89,18.89,0,0,1-3.33-.9,1.21,1.21,0,0,1-.67-.56,1.24,1.24,0,0,1-.14-.88c.45-2.37.9-4.65,1.37-6.84s.9-4.26,1.3-6.18c.07-.3.14-.6.23-.91a3.79,3.79,0,0,1,.32-.82,1.48,1.48,0,0,1,.53-.55,1.25,1.25,0,0,1,.84-.09c.38.06.75.14,1.12.23s.74.17,1.12.24l.7.13.69.1,1.36.21,1.32.22a2,2,0,0,1,.8.39,1,1,0,0,1,.44.72,4.35,4.35,0,0,1-.32,2.2,1.7,1.7,0,0,1-.56.76,1.12,1.12,0,0,1-1,.11l-1.08-.3-1.09-.28a5.41,5.41,0,0,0-1.16-.17.93.93,0,0,0-.57.12.89.89,0,0,0-.32.44,3.49,3.49,0,0,0-.22.79c-.07.32-.16.72-.27,1.19a.43.43,0,0,0,.21.53,2.26,2.26,0,0,0,.59.23l1.05.23a6.7,6.7,0,0,1,1,.28,1,1,0,0,1,.46.32.76.76,0,0,1,.12.57c0,.29-.1.58-.14.87a6.25,6.25,0,0,1-.18.86.94.94,0,0,1-1.28.73,3.8,3.8,0,0,1-.51-.13l-.49-.15a5.44,5.44,0,0,0-.54-.15,3.35,3.35,0,0,0-.55-.11.64.64,0,0,0-.41,0,.51.51,0,0,0-.19.35c-.06.25-.11.49-.17.72s-.11.48-.15.74a.83.83,0,0,0,0,.6.84.84,0,0,0,.54.25l1.37.29,1,.19.66.11Z"/><path class="cls-5" d="M214.2,547.83c.09.13.18.25.24.36a1.59,1.59,0,0,0,.26.32c.25.25.51.5.77.72s.54.46.82.69a3.08,3.08,0,0,0,.48.35l.48.3a1.48,1.48,0,0,1,.55.61,1.42,1.42,0,0,1,0,.83,2.86,2.86,0,0,1-.83,1.46,1.5,1.5,0,0,1-1.63.36,4.35,4.35,0,0,1-1.28-.58,4.09,4.09,0,0,1-1-1c-.28-.37-.54-.74-.78-1.12s-.48-.76-.73-1.13l-.22-.39a1.18,1.18,0,0,0-.29-.36l-.09.8c0,.27-.07.55-.12.82s0,.41-.09.63-.1.42-.16.62a1,1,0,0,1-.34.56,1,1,0,0,1-.63.16l-.94-.1a6.1,6.1,0,0,1-.93-.18,1.06,1.06,0,0,1-.82-1.25c0-.28.05-.56.08-.83a8.11,8.11,0,0,1,.12-.82c.36-2.3.74-4.53,1.12-6.7s.81-4.33,1.28-6.5a1.68,1.68,0,0,1,.07-.24,2.56,2.56,0,0,1,.11-.24.76.76,0,0,1,.76-.44,11.65,11.65,0,0,1,3,.54l.67.2.68.23a6.62,6.62,0,0,1,3.65,3.11,6,6,0,0,1,.19,4.63,5.74,5.74,0,0,1-1.63,2.56A4,4,0,0,1,214.2,547.83Zm-2.31-3.33.17.07a.39.39,0,0,0,.14,0,2.53,2.53,0,0,0,1.26-.15,2.69,2.69,0,0,0,1-.64,2.41,2.41,0,0,0,.55-1,2.12,2.12,0,0,0,0-1.17,1.55,1.55,0,0,0-.31-.63,2.27,2.27,0,0,0-.55-.52,2.77,2.77,0,0,0-.69-.34,2,2,0,0,0-.7-.1Z"/><path class="cls-5" d="M239.91,545.5a2.79,2.79,0,0,1-.81.61,2,2,0,0,1-.87.24,1.24,1.24,0,0,1-.77-.22,1.35,1.35,0,0,1-.52-.78q-.12-.37-.24-.72c-.09-.23-.19-.46-.29-.68a2.18,2.18,0,0,0-.5-.64.93.93,0,0,0-1.19-.22,1.15,1.15,0,0,0-.51.4,1.24,1.24,0,0,0-.21.57,1.62,1.62,0,0,0,0,.62,1.18,1.18,0,0,0,.28.53c.27.27.53.54.8.79s.55.51.83.75.68.6,1,.89a10.66,10.66,0,0,1,1,.88,4.58,4.58,0,0,1,1.32,4.2,5.25,5.25,0,0,1-.55,1.62,4.22,4.22,0,0,1-1.08,1.28,5,5,0,0,1-2.48,1.11,5.67,5.67,0,0,1-2.7-.31,6.13,6.13,0,0,1-2-1.08,8.43,8.43,0,0,1-1.53-1.62,4.57,4.57,0,0,1-.61-1.18,6,6,0,0,1-.28-1.31,1.94,1.94,0,0,1,.39-1.28,3.42,3.42,0,0,1,.8-.81,2.21,2.21,0,0,1,1.08-.37,1.64,1.64,0,0,1,1,.2,1.35,1.35,0,0,1,.62.71,5.05,5.05,0,0,1,.23.61c.07.2.13.4.19.62a2.27,2.27,0,0,0,.6,1,2.51,2.51,0,0,0,.88.56,1.34,1.34,0,0,0,.86,0,.9.9,0,0,0,.55-.68,1.62,1.62,0,0,0-.06-.86,2,2,0,0,0-.53-.83l-.91-.83c-.31-.27-.62-.53-.95-.78a10.78,10.78,0,0,1-2.58-2.84,4,4,0,0,1-.49-2,4.55,4.55,0,0,1,.48-1.93,4.33,4.33,0,0,1,1.28-1.52,4.42,4.42,0,0,1,1.95-.81,9.07,9.07,0,0,1,2.37-.08,5.22,5.22,0,0,1,2,.61,7.42,7.42,0,0,1,1.33,1,5.44,5.44,0,0,1,1.09,1.42,3.42,3.42,0,0,1,.42,1.61A2.26,2.26,0,0,1,239.91,545.5Z"/><path class="cls-5" d="M246.5,558.11a6.63,6.63,0,0,1-2.65-.9,6,6,0,0,1-1.72-1.65,6.74,6.74,0,0,1-.93-2.16,11.29,11.29,0,0,1-.28-2.48,13.74,13.74,0,0,1,.2-2.56,20,20,0,0,1,.54-2.39,6.73,6.73,0,0,1,.72-1.65,9.36,9.36,0,0,1,1.14-1.55,7.67,7.67,0,0,1,1.49-1.24,5,5,0,0,1,1.74-.7,4.62,4.62,0,0,1,2,0,5.52,5.52,0,0,1,1.77.73,5.44,5.44,0,0,1,1.39,1.27,4.51,4.51,0,0,1,.8,1.63,2.57,2.57,0,0,1,0,1.17,1.65,1.65,0,0,1-.68.93,2,2,0,0,1-1,.4,2.71,2.71,0,0,1-1.1-.17,1,1,0,0,1-.7-.8l-.06-.27a1.21,1.21,0,0,0-.07-.29,1.29,1.29,0,0,0-.68-.85,1.32,1.32,0,0,0-1.1,0l-.32.22a1,1,0,0,0-.25.26,5,5,0,0,0-.37.43,3,3,0,0,0-.31.48,11.85,11.85,0,0,0-.82,2.46,6.64,6.64,0,0,0,0,2.59,5.89,5.89,0,0,0,.58,2.08,1.66,1.66,0,0,0,1,.93,1.7,1.7,0,0,0,1.33-.31,5.9,5.9,0,0,0,1.52-1.6,1.18,1.18,0,0,1,.53-.46,1,1,0,0,1,.7,0,5.77,5.77,0,0,1,.61.23l.6.3a1.05,1.05,0,0,1,.47.4,1,1,0,0,1,.14.52,2,2,0,0,1-.08.58c-.05.19-.11.37-.17.54a6,6,0,0,1-.9,1.61,6.25,6.25,0,0,1-1.33,1.29,5.3,5.3,0,0,1-1.7.79A4.81,4.81,0,0,1,246.5,558.11Z"/><path class="cls-5" d="M259.73,549.39l1.35.13c.48,0,.94.07,1.39.08s.78,0,1,0c.15-1.14.26-2.24.34-3.33s.18-2.17.31-3.26a1,1,0,0,1,.46-.81,2.47,2.47,0,0,1,1-.31,4.77,4.77,0,0,1,1.13,0c.4.05.73.1,1,.16a.86.86,0,0,1,.48.31,1.3,1.3,0,0,1,.2.53,2,2,0,0,1,0,.6c0,.19-.05.36-.07.51-.08,1-.17,2.1-.25,3.18s-.14,2.17-.2,3.26-.1,2.17-.14,3.22-.05,2.07-.06,3a11,11,0,0,1,0,1.34,1.32,1.32,0,0,1-.26.78,1.19,1.19,0,0,1-.74.38,8.7,8.7,0,0,1-1.49.12,3.24,3.24,0,0,1-1.17-.16,1.44,1.44,0,0,1-.7-.52,2,2,0,0,1-.31-.88,6.89,6.89,0,0,1,0-1.24c0-.24,0-.5,0-.8s0-.59,0-.91,0-.62.05-.92,0-.58,0-.83c-.8-.08-1.59-.13-2.37-.13a22,22,0,0,1-2.39-.16l-.06.47c0,.15,0,.3,0,.43-.05.57-.09,1.2-.13,1.9s-.06,1.31-.09,1.85a1.68,1.68,0,0,1-.4,1,1.26,1.26,0,0,1-1,.41c-.32,0-.63,0-.92,0a5.16,5.16,0,0,1-.88-.11,1.47,1.47,0,0,1-1-.46,1.26,1.26,0,0,1-.25-.86c.07-1.32.15-2.63.25-3.93s.18-2.57.26-3.8.17-2.4.23-3.53.12-2.18.16-3.16.44-1.49,1.56-1.49c.29,0,.59,0,.9,0s.63,0,1,.07a1.74,1.74,0,0,1,1,.34,1.11,1.11,0,0,1,.23.91c-.05,1-.11,2-.17,3s-.11,2-.17,3l0,.4A5.5,5.5,0,0,0,259.73,549.39Z"/><path class="cls-5" d="M282.25,550.32a13.55,13.55,0,0,1-.42,3.39,9.78,9.78,0,0,1-1.25,2.85,6.85,6.85,0,0,1-1.88,2.05,6.13,6.13,0,0,1-1.78.84,5.19,5.19,0,0,1-1.83.18,5,5,0,0,1-1.78-.49,6.29,6.29,0,0,1-1.63-1.15,8,8,0,0,1-1.51-2,9.54,9.54,0,0,1-.84-2.39,11.73,11.73,0,0,1-.23-3.81,10.88,10.88,0,0,1,1-3.64,9.89,9.89,0,0,1,1-1.55,7.22,7.22,0,0,1,1.3-1.29,5.91,5.91,0,0,1,1.8-.92,4.94,4.94,0,0,1,1.86-.21,5,5,0,0,1,1.81.5,6.14,6.14,0,0,1,1.67,1.18,7.47,7.47,0,0,1,1.52,2.06,9.7,9.7,0,0,1,.84,2.43c.08.39.15.78.19,1.14S282.22,550.1,282.25,550.32Zm-9,.78a4.87,4.87,0,0,0,.07,1.31,5.29,5.29,0,0,0,.43,1.29,5,5,0,0,0,.87,1.33,1.67,1.67,0,0,0,1.15.55,1.53,1.53,0,0,0,1.14-.49,4.4,4.4,0,0,0,.38-.37,1.62,1.62,0,0,0,.31-.43,6.73,6.73,0,0,0,.08-6.43,2.23,2.23,0,0,0-.36-.56c-.15-.17-.32-.34-.49-.5a1.5,1.5,0,0,0-.92-.37,1.72,1.72,0,0,0-1,.28,3.58,3.58,0,0,0-.56.54,3.75,3.75,0,0,0-.42.62A6.28,6.28,0,0,0,273.29,551.1Z"/><path class="cls-5" d="M296.6,549.83a13.54,13.54,0,0,1-.26,3.4,9.86,9.86,0,0,1-1.12,2.9,6.67,6.67,0,0,1-1.79,2.14,6.21,6.21,0,0,1-1.74.92,5.14,5.14,0,0,1-1.81.27,5.23,5.23,0,0,1-1.8-.41A6.35,6.35,0,0,1,286.4,558a7.87,7.87,0,0,1-1.6-2,9.52,9.52,0,0,1-1-2.35,11.81,11.81,0,0,1-.4-3.8,9.47,9.47,0,0,1,1.81-5.28,7.56,7.56,0,0,1,1.24-1.35,6.22,6.22,0,0,1,1.76-1,4.89,4.89,0,0,1,3.68.12,6.9,6.9,0,0,1,1.73,1.1,7.79,7.79,0,0,1,1.61,2,10.28,10.28,0,0,1,1,2.39c.1.39.18.77.24,1.13S296.56,549.61,296.6,549.83ZM287.68,551a4.88,4.88,0,0,0,.14,1.3,5.88,5.88,0,0,0,1.41,2.56,1.65,1.65,0,0,0,1.18.49,1.47,1.47,0,0,0,1.11-.53,4.59,4.59,0,0,0,.37-.39,1.53,1.53,0,0,0,.28-.45,6.71,6.71,0,0,0-.21-6.42,2.08,2.08,0,0,0-.38-.55c-.16-.16-.34-.32-.52-.48a1.48,1.48,0,0,0-.93-.32,1.64,1.64,0,0,0-1,.33,3.12,3.12,0,0,0-.53.56,3.59,3.59,0,0,0-.4.64A6.38,6.38,0,0,0,287.68,551Z"/><path class="cls-5" d="M303.29,554.2l.44-.07.39,0,1.17-.1,1.18-.07a.78.78,0,0,1,.6.16,1.19,1.19,0,0,1,.34.56,5.15,5.15,0,0,1,.21,2.52,1,1,0,0,1-.31.67,1.48,1.48,0,0,1-.66.34l-.4.06-.37.07q-1.36.15-2.73.36a16.43,16.43,0,0,1-2.72.16,1.62,1.62,0,0,1-1-.37,1.69,1.69,0,0,1-.57-.94c-.06-.26-.12-.52-.16-.78s-.09-.52-.14-.78q-.31-3.2-.63-6.52t-.64-6.51a2.22,2.22,0,0,1,.08-.77.64.64,0,0,1,.55-.45q.81-.13,1.65-.21c.56,0,1.12-.08,1.68-.09a.68.68,0,0,1,.49.21.93.93,0,0,1,.23.5c0,.29.1.58.14.87s.07.59.1.9c.18,1.45.35,3,.51,4.55s.32,3.09.47,4.55q0,.3.06.6C303.26,553.77,303.27,554,303.29,554.2Z"/><path class="cls-5" d="M323.93,551.46c.34-.09.68-.17,1-.24L326,551l.47-.09.45,0a.8.8,0,0,1,.58.14,1,1,0,0,1,.3.51c.05.17.11.34.16.51a4.85,4.85,0,0,1,.11.49c.07.41.14.81.18,1.2a1.84,1.84,0,0,1-.11,1.17,1.56,1.56,0,0,1-1,.63c-.37.08-.76.17-1.15.24l-1.18.21-2,.26-2,.23a.9.9,0,0,1-.28,0h-.28a.9.9,0,0,1-1-.73,12.28,12.28,0,0,1-.34-1.29,7,7,0,0,1-.15-1.27,4.92,4.92,0,0,1,.11-1.27,4.67,4.67,0,0,1,.46-1.24,5.78,5.78,0,0,1,.57-1l.64-.9.81-1.09a12.19,12.19,0,0,0,.82-1.33,6.79,6.79,0,0,0,.57-1.39,2.3,2.3,0,0,0,0-1.3,1,1,0,0,0-.56-.62.77.77,0,0,0-.75.11,1.26,1.26,0,0,0-.6.69,2.31,2.31,0,0,0-.12,1,5,5,0,0,0,.05.67,3.87,3.87,0,0,1,0,.68.88.88,0,0,1-.29.62,1.92,1.92,0,0,1-.65.42,2.86,2.86,0,0,1-.84.18,3.15,3.15,0,0,1-.87,0,2,2,0,0,1-.7-.25.72.72,0,0,1-.37-.47,10.91,10.91,0,0,1-.29-2.69,5,5,0,0,1,.76-2.51,4.8,4.8,0,0,1,3.16-2.29,5.43,5.43,0,0,1,1.59-.15,3.24,3.24,0,0,1,1.51.49,5.56,5.56,0,0,1,2.66,3.95,6.82,6.82,0,0,1,0,2.12,10.91,10.91,0,0,1-.53,2.17,12.57,12.57,0,0,1-.93,2,11.51,11.51,0,0,1-1.16,1.64l0,0S323.92,551.43,323.93,551.46Z"/><path class="cls-5" d="M328.61,539.91A5.33,5.33,0,0,1,330,538a5,5,0,0,1,1.95-1,4.73,4.73,0,0,1,4.22,1,5.21,5.21,0,0,1,1.13,1.36,13.45,13.45,0,0,1,.94,1.9,18.47,18.47,0,0,1,.74,2.21c.2.78.37,1.54.5,2.29s.22,1.47.27,2.16a15.23,15.23,0,0,1,0,1.78,6.4,6.4,0,0,1-.82,2.61,3.91,3.91,0,0,1-2,1.66,6.31,6.31,0,0,1-3.89.19,4.94,4.94,0,0,1-2.89-2.43,14.91,14.91,0,0,1-1.19-2.79,19.93,19.93,0,0,1-.71-3.15,16.57,16.57,0,0,1-.16-3.12A9.64,9.64,0,0,1,328.61,539.91Zm4.68,1.46a1.22,1.22,0,0,0-.78,1,5.89,5.89,0,0,0-.14,1.79,12.79,12.79,0,0,0,.35,2.18,12.17,12.17,0,0,0,.69,2,5,5,0,0,0,.9,1.4c.33.34.65.44,1,.28a1.4,1.4,0,0,0,.7-1,6.09,6.09,0,0,0,.15-1.77,11.2,11.2,0,0,0-.27-2.09,10.59,10.59,0,0,0-.62-2,4.87,4.87,0,0,0-.88-1.42A1.06,1.06,0,0,0,333.29,541.37Z"/><path class="cls-5" d="M347.6,546.76l1-.31,1-.32a3.9,3.9,0,0,1,.46-.12l.45-.07a.73.73,0,0,1,.58.09.93.93,0,0,1,.34.48l.2.5a3.32,3.32,0,0,1,.14.49c.11.39.2.78.28,1.17a1.9,1.9,0,0,1,0,1.18,1.57,1.57,0,0,1-.94.7l-1.13.33-1.16.29-2,.41-2,.39-.28,0a1.36,1.36,0,0,0-.28,0,.91.91,0,0,1-1.06-.66c-.17-.41-.31-.83-.44-1.25a8.38,8.38,0,0,1-.25-1.27,5.41,5.41,0,0,1,0-1.27,4.36,4.36,0,0,1,.37-1.27,5.07,5.07,0,0,1,.49-1l.57-.95c.21-.32.45-.7.72-1.15a12.26,12.26,0,0,0,.73-1.39,7.41,7.41,0,0,0,.46-1.43,2.32,2.32,0,0,0-.09-1.29,1,1,0,0,0-.6-.58.77.77,0,0,0-.74.17,1.23,1.23,0,0,0-.55.73,2.39,2.39,0,0,0-.05,1c0,.22.06.44.1.66a3.94,3.94,0,0,1,.08.67.89.89,0,0,1-.24.65,1.83,1.83,0,0,1-.62.46,3.13,3.13,0,0,1-.82.25,4.27,4.27,0,0,1-.87,0,2.17,2.17,0,0,1-.72-.19.79.79,0,0,1-.4-.45,10.61,10.61,0,0,1-.49-2.66,5,5,0,0,1,.56-2.56,4.85,4.85,0,0,1,3-2.52,5.45,5.45,0,0,1,1.57-.27,3.41,3.41,0,0,1,1.55.38,5.78,5.78,0,0,1,1.86,1.51,6,6,0,0,1,1.09,2.23,6.68,6.68,0,0,1,.18,2.11,10.33,10.33,0,0,1-.37,2.2,12.25,12.25,0,0,1-.78,2.07,10.71,10.71,0,0,1-1,1.72l.05,0A.07.07,0,0,1,347.6,546.76Z"/><path class="cls-5" d="M358.77,543.93l1-.35,1-.36.46-.13.44-.08a.76.76,0,0,1,.59.07.94.94,0,0,1,.36.47l.21.49c.06.17.12.33.16.48.12.4.22.78.31,1.17a1.75,1.75,0,0,1,0,1.18,1.48,1.48,0,0,1-.91.72c-.36.13-.73.26-1.12.37l-1.15.34-2,.47-2,.45a.93.93,0,0,1-.27,0,1.37,1.37,0,0,0-.28,0,.9.9,0,0,1-1.08-.63,13.06,13.06,0,0,1-.48-1.23,8.18,8.18,0,0,1-.29-1.26,4.9,4.9,0,0,1,0-1.27,4.32,4.32,0,0,1,.33-1.28,5.41,5.41,0,0,1,.46-1l.54-1c.19-.32.42-.71.68-1.17a11.4,11.4,0,0,0,.68-1.41,6.2,6.2,0,0,0,.41-1.45,2.27,2.27,0,0,0-.12-1.28,1,1,0,0,0-.62-.57.79.79,0,0,0-.73.2,1.23,1.23,0,0,0-.53.75,2.25,2.25,0,0,0,0,1q0,.33.12.66a3.74,3.74,0,0,1,.1.67.89.89,0,0,1-.21.65,2.1,2.1,0,0,1-.61.48,2.73,2.73,0,0,1-.82.27,3.15,3.15,0,0,1-.86.06,2,2,0,0,1-.73-.16.8.8,0,0,1-.41-.44,10.62,10.62,0,0,1-.58-2.64,5.1,5.1,0,0,1,.48-2.57,4.83,4.83,0,0,1,2.9-2.62,5.23,5.23,0,0,1,1.57-.32,3.23,3.23,0,0,1,1.55.32,5.87,5.87,0,0,1,1.92,1.45,6,6,0,0,1,1.15,2.2,6.88,6.88,0,0,1,.26,2.1,10.4,10.4,0,0,1-.3,2.21,12,12,0,0,1-.71,2.09,11.13,11.13,0,0,1-1,1.76s0,0,.06,0S358.77,543.9,358.77,543.93Z"/><path class="cls-5" d="M372.17,538.39a2.31,2.31,0,1,1,2.9,1.48A2.29,2.29,0,0,1,372.17,538.39Z"/><path class="cls-5" d="M390,529.28a5.63,5.63,0,0,1,2,1.33,6.34,6.34,0,0,1,1.25,2,3.61,3.61,0,0,1,.16,1.92,5.39,5.39,0,0,1-.69,1.81,6.75,6.75,0,0,1-1.27,1.51,6.23,6.23,0,0,1-1.54,1c-.57.23-1.13.47-1.7.72l-1.73.72a1.73,1.73,0,0,1-.47.15l-.5.09a1.54,1.54,0,0,1-1.69-1.06l-.29-.87c-.08-.28-.18-.57-.28-.86s-.27-.81-.42-1.22l-.43-1.21q-.48-1.23-.93-2.43c-.31-.81-.62-1.62-.95-2.44-.26-.63-.53-1.26-.81-1.86l-.86-1.86a5.16,5.16,0,0,1-.24-.91,1.52,1.52,0,0,1,0-.68,1.45,1.45,0,0,1,.37-.54,3.06,3.06,0,0,1,.74-.47l1.72-.6a14.22,14.22,0,0,1,1.77-.51,13.52,13.52,0,0,1,1.73-.28,6.93,6.93,0,0,1,1.65.07,4.62,4.62,0,0,1,1.45.44,4.11,4.11,0,0,1,1.14.87,4,4,0,0,1,.77,1.22,4.49,4.49,0,0,1,.31,1.48c0,.45,0,.86,0,1.25a3.09,3.09,0,0,1-.08.6C390.08,528.86,390,529.06,390,529.28Zm-5.92,0a3.31,3.31,0,0,0,.7-.26,2.36,2.36,0,0,0,.62-.43,1.55,1.55,0,0,0,.37-.58,1,1,0,0,0-.06-.7,1.6,1.6,0,0,0-.52-.61.88.88,0,0,0-.67-.11,3.08,3.08,0,0,0-.54.16l-.52.22a.32.32,0,0,0-.16.46c.14.29.26.59.38.9S383.92,528.94,384.07,529.27Zm2.45,6.27a2.3,2.3,0,0,0,.92-.38,6.38,6.38,0,0,0,.74-.66,1.62,1.62,0,0,0,.25-.49.77.77,0,0,0-.08-.6,1,1,0,0,0-1-.63,3.82,3.82,0,0,0-.9.11,1.79,1.79,0,0,0-.79.45l.67,1.86a.76.76,0,0,0,.09.18A.8.8,0,0,1,386.52,535.54Z"/><path class="cls-5" d="M404.86,523.14a14,14,0,0,1,.9,3.28,10.13,10.13,0,0,1-.06,3.11,7,7,0,0,1-1,2.62,6,6,0,0,1-1.32,1.46,5.28,5.28,0,0,1-1.62.86,5.06,5.06,0,0,1-1.83.23,6.27,6.27,0,0,1-1.94-.45,8,8,0,0,1-2.18-1.31,10.24,10.24,0,0,1-1.7-1.89,12,12,0,0,1-1.66-3.44,10.7,10.7,0,0,1-.42-3.76,11,11,0,0,1,.34-1.83,8,8,0,0,1,.71-1.68,6,6,0,0,1,1.32-1.54,5,5,0,0,1,3.5-1.13,6.7,6.7,0,0,1,2,.45,7.77,7.77,0,0,1,2.19,1.33,10.16,10.16,0,0,1,1.7,1.92c.23.34.43.67.61,1S404.75,522.94,404.86,523.14Zm-8,4.13a4.75,4.75,0,0,0,.57,1.18,4.62,4.62,0,0,0,.89,1,4.92,4.92,0,0,0,1.3.9,1.65,1.65,0,0,0,1.28.07,1.54,1.54,0,0,0,.87-.88c.07-.16.15-.32.21-.49a1.35,1.35,0,0,0,.11-.52,6.69,6.69,0,0,0-2.37-6,2,2,0,0,0-.55-.39,6.14,6.14,0,0,0-.64-.27,1.46,1.46,0,0,0-1,0,1.64,1.64,0,0,0-.79.63,3.19,3.19,0,0,0-.31.71,3.14,3.14,0,0,0-.15.74A6.3,6.3,0,0,0,396.87,527.27Z"/><path class="cls-5" d="M414.87,515.86a3.1,3.1,0,0,1-.38.94,2,2,0,0,1-.62.66,1.25,1.25,0,0,1-.77.21,1.4,1.4,0,0,1-.86-.4l-.57-.49-.61-.43a2.26,2.26,0,0,0-.75-.29.93.93,0,0,0-1.13.44,1.09,1.09,0,0,0-.23.6,1.31,1.31,0,0,0,.11.6,1.78,1.78,0,0,0,.35.51,1.12,1.12,0,0,0,.52.31l1.1.26c.36.08.72.15,1.09.21s.89.16,1.35.22a10.51,10.51,0,0,1,1.31.23,4.69,4.69,0,0,1,2,1,5.06,5.06,0,0,1,1.28,1.87,5.41,5.41,0,0,1,.37,1.67,4.21,4.21,0,0,1-.26,1.66,5.17,5.17,0,0,1-1.54,2.24,5.81,5.81,0,0,1-2.47,1.14,6.53,6.53,0,0,1-2.24.09,9,9,0,0,1-2.15-.59,4.62,4.62,0,0,1-1.13-.69,5.34,5.34,0,0,1-.91-1,1.83,1.83,0,0,1-.34-1.29,3.61,3.61,0,0,1,.26-1.11,2.18,2.18,0,0,1,.73-.88,1.63,1.63,0,0,1,.92-.32,1.35,1.35,0,0,1,.89.28,5.47,5.47,0,0,1,.52.4l.48.44a2.24,2.24,0,0,0,1,.5,2.62,2.62,0,0,0,1,0,1.34,1.34,0,0,0,.75-.43.88.88,0,0,0,.11-.86,1.6,1.6,0,0,0-.49-.71,2.13,2.13,0,0,0-.89-.44l-1.21-.23c-.4-.07-.81-.13-1.21-.18a10.66,10.66,0,0,1-3.68-1.07,4.08,4.08,0,0,1-1.47-1.48,4.49,4.49,0,0,1-.59-1.89,4.19,4.19,0,0,1,.3-2,4.45,4.45,0,0,1,1.24-1.71,9.5,9.5,0,0,1,2-1.3,5.15,5.15,0,0,1,2-.51,7.83,7.83,0,0,1,1.65.17,5.68,5.68,0,0,1,1.67.64,3.45,3.45,0,0,1,1.2,1.17A2.26,2.26,0,0,1,414.87,515.86Z"/><path class="cls-5" d="M422.28,510.71c.11.21.21.42.3.62l.3.56,1.79,3.51c.6,1.18,1.2,2.35,1.8,3.49.19.37.39.72.58,1.07s.39.7.57,1.07a2.37,2.37,0,0,1,.18.55c0,.19.07.39.1.59a.75.75,0,0,1-.12.52,1.06,1.06,0,0,1-.42.36l-.73.37-.71.34a2.78,2.78,0,0,1-.51.17,1.49,1.49,0,0,1-.85,0,1.31,1.31,0,0,1-.5-.67l-1.59-3.34c-.53-1.1-1.06-2.21-1.61-3.34-.26-.56-.56-1.14-.88-1.76l-.93-1.77a2.26,2.26,0,0,0-.16-.26,1.28,1.28,0,0,1-.14-.25l-.9.44c-.29.14-.56.28-.83.43a7.29,7.29,0,0,1-.76.33.81.81,0,0,1-.51,0,.8.8,0,0,1-.39-.3,5.3,5.3,0,0,1-.42-.68c-.11-.19-.21-.38-.31-.58s-.19-.38-.28-.56a1.3,1.3,0,0,1-.17-.73,1.12,1.12,0,0,1,.4-.61l.46-.36.5-.33,1.84-1c.6-.33,1.22-.65,1.84-1l1.56-.75,1.54-.72a1.19,1.19,0,0,1,.28-.1l.29-.05a.92.92,0,0,1,1.06.47,9.75,9.75,0,0,1,.49.9c.15.3.29.61.43.92a1,1,0,0,1,.1.72,1.16,1.16,0,0,1-.51.5l-1.08.62Z"/><path class="cls-5" d="M439.6,506a13.61,13.61,0,0,1,1.29,3.15,10.06,10.06,0,0,1,.3,3.1,6.71,6.71,0,0,1-.65,2.71,6.09,6.09,0,0,1-1.14,1.6,5.09,5.09,0,0,1-1.5,1.05,5.17,5.17,0,0,1-1.8.44,6.25,6.25,0,0,1-2-.21,7.84,7.84,0,0,1-2.31-1.05,9.18,9.18,0,0,1-1.91-1.68,12,12,0,0,1-2.06-3.21,11.07,11.07,0,0,1-.86-3.69,10.34,10.34,0,0,1,.13-1.85,7.35,7.35,0,0,1,.5-1.76,6.19,6.19,0,0,1,1.13-1.68,5,5,0,0,1,3.34-1.54,6.29,6.29,0,0,1,2,.22,7.59,7.59,0,0,1,2.33,1.05,10.29,10.29,0,0,1,1.91,1.72c.27.3.51.61.73.9Zm-7.44,5a4.74,4.74,0,0,0,.71,1.11,5.6,5.6,0,0,0,2.4,1.65,1.64,1.64,0,0,0,1.28-.08,1.5,1.5,0,0,0,.75-1,3.8,3.8,0,0,0,.16-.51,1.57,1.57,0,0,0,.05-.53,6.69,6.69,0,0,0-3.06-5.64,1.88,1.88,0,0,0-.59-.32,6.55,6.55,0,0,0-.67-.2,1.56,1.56,0,0,0-1,.13,1.68,1.68,0,0,0-.7.72,4,4,0,0,0-.23.74,3.8,3.8,0,0,0-.06.75A6.4,6.4,0,0,0,432.16,511Z"/><path class="cls-5" d="M444.62,503.93l1.69,2.47,1.65,2.47a7.56,7.56,0,0,1,.44.71l.4.72a.79.79,0,0,1-.19,1.07l-.22.22a2,2,0,0,1-.25.18l-.74.42c-.24.14-.47.28-.72.41a1.24,1.24,0,0,1-1.76-.41,7.31,7.31,0,0,1-.43-.7c-.14-.23-.27-.48-.4-.72l-.83-1.47-.82-1.47c-.42-.72-.83-1.44-1.24-2.16s-.82-1.42-1.25-2.12-.83-1.34-1.3-2l-1.34-2a1.52,1.52,0,0,1-.39-.94c0-.24.21-.5.59-.77a9.46,9.46,0,0,1,1.89-1.05,1.09,1.09,0,0,1,.71-.08,5.77,5.77,0,0,1,.74.24c.21.08.41.17.6.26l.6.32c1,.58,2,1.2,3,1.84a29.46,29.46,0,0,0,3,1.65c-.2-.32-.41-.65-.61-1s-.41-.67-.63-1c-.38-.61-.79-1.27-1.24-2s-.87-1.34-1.24-1.94a1.18,1.18,0,0,1,.26-1.66,5.3,5.3,0,0,1,.84-.66,4.19,4.19,0,0,1,.94-.43,1.57,1.57,0,0,1,.94-.09,1.42,1.42,0,0,1,.74.57c.26.36.54.78.86,1.27l.83,1.31c.42.62.83,1.25,1.22,1.88l1.19,1.91c.28.42.56.86.84,1.31s.56.88.85,1.31l1,1.59,1,1.58a3.07,3.07,0,0,1,.33.75.69.69,0,0,1-.21.7,4.24,4.24,0,0,1-1,.88L454,508a1.3,1.3,0,0,1-.81.29,1.69,1.69,0,0,1-.8-.25l-.41-.25-.39-.24a17.89,17.89,0,0,0-1.63-1.1,14.12,14.12,0,0,0-1.74-.87,12.2,12.2,0,0,1-1.71-.81,17.21,17.21,0,0,0-1.66-.84.19.19,0,0,1-.09,0l-.09,0,0,0Z"/><path class="cls-5" d="M460.42,501.37a3,3,0,0,1,.46,1.06,5.49,5.49,0,0,1,.11,1.22,1.8,1.8,0,0,1-1.08,1.77.72.72,0,0,1-1-.35l-.06-.16a1.67,1.67,0,0,1-.05-.19,2.31,2.31,0,0,0-1-1.3,1.57,1.57,0,0,1-.77-1.2,1.53,1.53,0,0,1,.58-1.27,2,2,0,0,1,1.51-.64A1.85,1.85,0,0,1,460.42,501.37Z"/><path class="cls-5" d="M474.38,482.75c.11.41.21.81.31,1.2s.21.79.31,1.19a.77.77,0,0,1,0,.15.5.5,0,0,0,0,.13,1.54,1.54,0,0,1-.47,1.83,3.87,3.87,0,0,0-.52.47c-.15.16-.31.33-.48.49a1.11,1.11,0,0,1-.59.28,1.66,1.66,0,0,1-.65-.07,9.36,9.36,0,0,1-1.29-.51,8.84,8.84,0,0,0-1.24-.48.69.69,0,0,0-.44,0c-.07.05,0,.21.31.5l3.38,3.52.15.16a1.94,1.94,0,0,1,.68,1.2,1.88,1.88,0,0,1-.65,1.18,8.53,8.53,0,0,1-.62.59l-.66.52a1.23,1.23,0,0,1-.87.23,1.41,1.41,0,0,1-.85-.47c-.15-.16-.33-.35-.54-.59l-.64-.73c-.22-.25-.43-.49-.65-.72l-.56-.6-3.84-4q-1.87-1.93-3.86-4l-.1-.11a1.35,1.35,0,0,1-.45-.83,1.26,1.26,0,0,1,.42-.82c.21-.22.44-.43.68-.64l.74-.6A1.13,1.13,0,0,1,462,481a1.66,1.66,0,0,1,.65.07l2.91.8c1,.26,1.92.54,2.89.83l.19,0a1.52,1.52,0,0,1,.21,0c.3,0,.5,0,.59-.05s.11-.28.06-.58l0-.29a1.53,1.53,0,0,0-.07-.29c-.22-.72-.42-1.41-.6-2.09s-.38-1.36-.6-2.08c-.06-.23-.12-.45-.19-.66s-.13-.43-.19-.66a1,1,0,0,1,0-.76,2.67,2.67,0,0,1,.39-.65c.18-.21.37-.42.57-.62a6,6,0,0,1,.65-.58,1.38,1.38,0,0,1,1.9,0c.13.09.26.2.4.31a4,4,0,0,1,.35.37l2.63,2.81c.85.91,1.74,1.84,2.67,2.81l1,1,1.12,1.14,1.12,1.13,1,1.06a1.29,1.29,0,0,1,.47.74,1.33,1.33,0,0,1-.41.81c-.19.23-.38.44-.57.65l-.61.6a1.25,1.25,0,0,1-.92.44,1.61,1.61,0,0,1-.91-.5l-1-1-1.08-1.05c-.36-.36-.72-.7-1.07-1l-1-1-.09-.07-.08-.07-.05,0Z"/><path class="cls-5" d="M487,472.29c-.26.64-.52,1.26-.78,1.87s-.53,1.22-.8,1.83l.6.4c.19.12.4.25.62.37a1.24,1.24,0,0,1,.63.74,1.61,1.61,0,0,1,0,.92,9.35,9.35,0,0,1-.87,1.8.94.94,0,0,1-.66.49,1.35,1.35,0,0,1-.84-.13c-.95-.45-2-1-3.13-1.57a37.31,37.31,0,0,1-3.33-2,23,23,0,0,1-2.93-2.34,8.89,8.89,0,0,1-2-2.68,7.3,7.3,0,0,1-.63-2.22,4.23,4.23,0,0,1,.3-2.17,3.92,3.92,0,0,1,1-1.5,4.48,4.48,0,0,1,1.51-.88,6.54,6.54,0,0,1,1.8-.36,13.53,13.53,0,0,1,1.91,0,15.19,15.19,0,0,1,1.83.28,16.27,16.27,0,0,1,1.57.44,34.06,34.06,0,0,1,3.67,1.52c1.17.57,2.35,1.17,3.52,1.81a4,4,0,0,1,.79.61.8.8,0,0,1,.2.88c-.13.33-.26.65-.41,1s-.3.67-.47,1-.37.54-.59.59a1.55,1.55,0,0,1-.94-.16l-.82-.3Zm-3.51-1.42c-.32-.16-.69-.32-1.11-.5s-.85-.35-1.29-.5a6.19,6.19,0,0,0-2.51-.43q-.92.1-1,.57a1.07,1.07,0,0,0,.14.68,4.49,4.49,0,0,0,.56.83,9.79,9.79,0,0,0,.85.86c.33.29.66.56,1,.82s.68.49,1,.7a6.14,6.14,0,0,0,.88.48c.27-.62.52-1.22.76-1.79S483.27,471.45,483.52,470.87Z"/><circle class="cls-6" cx="276.07" cy="295.34" r="175.21"/><circle class="cls-7" cx="276.07" cy="295.34" r="99.77"/><path class="cls-8" d="M463.21,379.72c-36.76-26.07-80.34-43.79-188-43.79-108.56,0-162.41,17.72-188,43.79-36.3,36.95,84.18,93.78,188,93.78S505.46,409.68,463.21,379.72Z"/><path class="cls-7" d="M262.39,394.48l102.08-52.85c-23.94-3.68-53-5.7-89.28-5.7-36,0-66,2-90.95,5.52Z"/><path class="cls-7" d="M133.23,167l66.26,58.82a118.85,118.85,0,0,1,34-23.78L193.41,124A208.63,208.63,0,0,0,133.23,167Z"/><path class="cls-9" d="M214.58,499.75a43,43,0,0,0,6.94,17.89c4.19,5.89,55.58,21.91,59.39-6.21,0,0-7.73-82.27-8.82-93l-8.17-4.91s-31.61,9-51.2.83l-5.83,7.76Z"/><path class="cls-10" d="M447.84,304.06s20.07,2.22,26.23,8.71c0,0,20.13,47.32-43.58,73.16"/><path class="cls-10" d="M479.84,335.37s32.69-7.49,27.34,8c-5.91,17.19-27.56,74.9,0,79.13"/><path class="cls-10" d="M466.81,304.06s12-43.61,2.23-75.76c0,0,20.16,2.73,25.06-7.63s108.45-6.9,92.11,116.25"/><path class="cls-10" d="M486.37,226.94s-34.67-95.84-85.89-55"/><circle class="cls-7" cx="586.21" cy="335.93" r="22.93"/><circle class="cls-6" cx="516.74" cy="433.37" r="22.93"/><circle class="cls-2" cx="406.64" cy="395.11" r="25.55"/><path class="cls-10" d="M567,249.43s-23.33,14.65-40.83,17.71c0,0,3.9,10-4,24.91"/><circle class="cls-11" cx="522.17" cy="301.86" r="19.57"/><path class="cls-10" d="M463.4,185.1s17.43-4.75,16.44-16.73c0,0,33.35,23.27,47.24,8.36"/><circle class="cls-8" cx="536.31" cy="178.73" r="14.14"/><path class="cls-7" d="M382.2,142.76l-48.44,68.37a110.51,110.51,0,0,1,23.7,24.5l66.35-48.72A194.21,194.21,0,0,0,382.2,142.76Z"/><path class="cls-7" d="M456.34,328.2a158.68,158.68,0,0,0,3.44-32.86c0-5.2-.27-10.34-.76-15.43l-83.65,4.81a90.23,90.23,0,0,1-1,27.56Z"/><path class="cls-5" d="M214.22,343.25c13.6-2.14,27.26-3.54,40.95-4.58s27.39-1.67,41.23-1.58c3.47,0,6.94.13,10.47.33.89.05,1.77.1,2.67.18s1.8.15,2.73.28c.47.06.92.11,1.4.19l1.48.26a25.65,25.65,0,0,1,3,.75,8.33,8.33,0,0,1,1.21.47,5.87,5.87,0,0,1,1.31.83,4.88,4.88,0,0,1,.63.62c.13.15.25.31.37.47a5.14,5.14,0,0,1,.46.83,4.6,4.6,0,0,1,.34,1.08,5.25,5.25,0,0,1,.09,1.42,5.12,5.12,0,0,1-.3,1.33,4.34,4.34,0,0,1-.48,1,5.16,5.16,0,0,1-.55.73l-.39.38c-.13.12-.31.26-.4.33l-.27.18-.28.18-.19.1-.37.18a7.74,7.74,0,0,1-.9.33c-.45.13-.78.2-1.08.26-1.17.23-2.06.32-3,.43-1.81.2-3.54.32-5.26.44l-10.21.7c-6.76.45-13.46,1-20,1.92-3.28.47-6.53,1-9.68,1.72a43,43,0,0,0-8.77,2.87l-2-7.62c2.86.11,5.56.3,8.33.6s5.49.66,8.23,1.18a63.87,63.87,0,0,1,8.21,2,23,23,0,0,1,8,4.1l3.08,2.59-3.69,1.13c-2.57.78-5.22,1.66-7.79,2.62s-5.14,2-7.62,3.14a46.4,46.4,0,0,0-7.16,4,15.53,15.53,0,0,0-3,2.69,5.23,5.23,0,0,0-1.42,3.71,5.41,5.41,0,0,1,.88-4.09,16.51,16.51,0,0,1,2.76-3.3,43.88,43.88,0,0,1,6.83-5.11q3.6-2.25,7.4-4.16c2.54-1.27,5.07-2.47,7.74-3.56l-.61,3.72a20.53,20.53,0,0,0-6.75-2.18,70.81,70.81,0,0,0-7.67-.88c-2.6-.16-5.22-.25-7.84-.27s-5.29,0-7.82.14l-16.48.77,14.51-8.39A46.22,46.22,0,0,1,267,346.52a100.35,100.35,0,0,1,10.42-2.4c6.93-1.27,13.86-2,20.73-2.62l10.26-.79,5-.42c.77-.08,1.58-.17,2.09-.27.12,0,.21,0,.17,0a1.66,1.66,0,0,0-.3.11l-.22.11-.12.07-.22.13-.2.14-.34.27-.32.33a4.37,4.37,0,0,0-.51.67,5.44,5.44,0,0,0-.45.91,4.66,4.66,0,0,0-.27,1.26,5.05,5.05,0,0,0,.07,1.34,4.92,4.92,0,0,0,.32,1,4.28,4.28,0,0,0,.43.76,2.59,2.59,0,0,0,.32.42,3.6,3.6,0,0,0,.51.5,3.4,3.4,0,0,0,.76.5c.16.08.1,0,0,0a49.18,49.18,0,0,0-8.93-1.35c-3.29-.28-6.65-.44-10-.61-13.51-.59-27.17-.87-40.83-1.33S228,344.26,214.22,343.25Z"/></g><g id="Layer_2" data-name="Layer 2"><path class="cls-5" d="M75.4,180c.07-.43.13-.85.19-1.27C75.59,178.73,75.5,179.18,75.4,180Z"/><path class="cls-5" d="M118.7,412.08c-11.16-91.58-2.55-143.58,4.68-168.47a167.63,167.63,0,0,1,7.16-18.6c-27.48-13.51-27.48-43.33-27.48-43.33l-27.47-3-.3,2.31c0-.39.08-.74.11-1-1.89,12.62-3.45,25-4.75,37.13l0,.28h0c-14.08,132.38,5,231.85,5,231.85,3.29,21.57,27.47,33.24,27.47,33.24l33.21,10.64A663.89,663.89,0,0,1,118.7,412.08Z"/><path class="cls-5" d="M73.06,433.25s-14.58,2.92-14.58-20.78-7.36-98,0-164.66a29.72,29.72,0,0,1,24.11-22l9.57,9.83L75.59,284.72Z"/><path class="cls-5" d="M127.13,257.69s-7.36,78.53,6.54,92.54c0,0,27.31-8.87,31.63-5.6,0,0-9.29-75.19,0-85.54l-10.38-9-24.79.27Z"/><path class="cls-5" d="M147,496.2s-43.72-88-11.44-195l17.16-3.89s23.7,10.14,40.05,7.69c0,0-12.7,139.76,14.08,203.51C206.89,508.46,177,535.58,147,496.2Z"/><path class="cls-12" d="M212.72,414.39l-5.83,7.76,5.83,48.4s-1.41-46.09,5.13-44.46,26.7,4.36,32.15-.54C250,425.55,213,428.85,212.72,414.39Z"/><path class="cls-12" d="M82.59,200.39s2.32,15.85,20.47,21.67c0,0-9.52,47-10.64,73.16,0,0,13.07-72.9,19.3-72.23C93.14,213.65,89,214.54,82.59,200.39Z"/><path class="cls-12" d="M92.66,333.57s-3.53,56.82,8.09,99.68C100.75,433.25,95.84,345.32,92.66,333.57Z"/><path class="cls-12" d="M131.76,257.69s21.16,1.53,28.88.4c0,0-4.32,12.29-3.63,21.82,0,0-3.36-12.33.73-19.37C157.74,260.54,133.75,261.47,131.76,257.69Z"/><path class="cls-12" d="M133.68,332s-2.56-21.09,4.56-28.52c0,0,25.48,6.73,35,7.43,0,0-26.62.86-33-4.2C140.25,306.74,135.21,308.82,133.68,332Z"/><path class="cls-12" d="M67.9,247.81s-6.67,73.67-2.46,97.64-12.9-96.67,2.46-97.64"/><polygon class="cls-11" points="55.3 334.23 82.59 281.18 114.4 371.23 158.46 339.59 239.1 464.61 319.74 424.49 302.35 398.81 400.48 394.36 356.69 476.77 329.55 441.92 233.51 501.29 153.24 371.23 108.88 400.5 80.57 323.79 55.85 356.25 55.3 334.23"/><path class="cls-5" d="M244,250.1a57.85,57.85,0,0,0,2.86-8.72c.76-3.09,1.44-6.17,2.05-9.26s1.19-6.12,1.76-9.07a78.79,78.79,0,0,1,2-8.21c.21-.79.48-1.65.79-2.59a12.77,12.77,0,0,1,1.18-2.59,8,8,0,0,1,1.65-2,4.19,4.19,0,0,1,2.35-1c1.52-.1,3-.18,4.28-.23a35.71,35.71,0,0,1,4.12.08c.74,0,1.4.13,2,.23a2.79,2.79,0,0,1,1.41.63,2,2,0,0,1,.59,1.37,6.63,6.63,0,0,1-.39,2.4q-4.17,12.79-8.48,25.91A270,270,0,0,0,255,263.37a7.32,7.32,0,0,1-.67,1.73c-.29.52-.59,1-.9,1.57a3.83,3.83,0,0,1-3.3,2.12c-1.83.1-3.66.22-5.49.35a43.9,43.9,0,0,1-5.5,0,9.31,9.31,0,0,1-5-1.65,7.51,7.51,0,0,1-2.78-4.79q-.63-2.5-1.1-5.07t-1-5.14q-1.35-7.14-3.34-14.13t-4.2-13.9c-.68-1.94-1.34-3.87-2-5.81a33.49,33.49,0,0,1-1.33-6,5.42,5.42,0,0,1,.59-3.85,3.85,3.85,0,0,1,3.1-1.88,16.2,16.2,0,0,1,3.73-.2,25.61,25.61,0,0,0,3.81,0,3.65,3.65,0,0,1,2.59.59,5.27,5.27,0,0,1,1.65,2.16c.36.79.7,1.58,1,2.4a21.44,21.44,0,0,1,.78,2.47c.74,2.51,1.42,5.33,2.05,8.44s1.25,6.3,1.88,9.54,1.3,6.41,2,9.5A67.71,67.71,0,0,0,244,250.1Z"/><path class="cls-5" d="M291.69,261.4a32.37,32.37,0,0,1-.23,3.85,3.19,3.19,0,0,1-2.91,3.07q-.71.07-1.77.15l-2.16.16c-.73.05-1.44.08-2.12.08a16.43,16.43,0,0,1-1.72-.08,5.48,5.48,0,0,1-4-1.61,6.23,6.23,0,0,1-1.25-4.2v-5.89c.05-3.46.07-7,.07-10.76s0-7.47.08-11.27.12-7.55.2-11.27.19-7.3.35-10.75v-1.46c0-.49,0-1,.08-1.53a3.5,3.5,0,0,1,.82-2.23,2.77,2.77,0,0,1,2.16-.83c.63,0,1.38,0,2.24,0s1.74,0,2.63,0l2.59.08c.84,0,1.57.07,2.2.12a3,3,0,0,1,2.16.9,4.08,4.08,0,0,1,.67,2.32,13.69,13.69,0,0,1,.08,2.47c-.05.81-.08,1.66-.08,2.55v30.63c0,3.56,0,6.55,0,9S291.69,259.47,291.69,261.4Z"/><path class="cls-5" d="M335.27,226.3a10.68,10.68,0,0,1-2.59,2.52,7.2,7.2,0,0,1-3,1.25,4.52,4.52,0,0,1-2.83-.43,5,5,0,0,1-2.2-2.55c-.37-.84-.76-1.65-1.18-2.43s-.86-1.55-1.33-2.28a7.61,7.61,0,0,0-2-2,3.32,3.32,0,0,0-4.32-.24,3.87,3.87,0,0,0-1.61,1.65,4.69,4.69,0,0,0-.51,2.12,6.24,6.24,0,0,0,.39,2.16,4,4,0,0,0,1.26,1.77c1,.83,2.1,1.65,3.18,2.43s2.16,1.55,3.26,2.28c1.3.94,2.67,1.83,4.08,2.67a37.36,37.36,0,0,1,3.92,2.67,16.77,16.77,0,0,1,5.15,6.32,17.72,17.72,0,0,1,1.45,8,18.82,18.82,0,0,1-1.22,6,14.81,14.81,0,0,1-3.26,5,18.14,18.14,0,0,1-8.28,5.07,20.56,20.56,0,0,1-9.7.12,22.93,22.93,0,0,1-7.42-2.95,31.3,31.3,0,0,1-6.16-5.06,16.64,16.64,0,0,1-2.67-3.89,20.09,20.09,0,0,1-1.57-4.52,6.85,6.85,0,0,1,.78-4.71,12.33,12.33,0,0,1,2.48-3.22,7.53,7.53,0,0,1,3.65-1.8,5.79,5.79,0,0,1,3.45.27,4.92,4.92,0,0,1,2.52,2.24,20.23,20.23,0,0,1,1.09,2c.32.68.63,1.39.95,2.12a7.61,7.61,0,0,0,2.55,3.1,8.67,8.67,0,0,0,3.38,1.57,4.65,4.65,0,0,0,3.06-.31,3.08,3.08,0,0,0,1.61-2.63,5.68,5.68,0,0,0-.59-3,7,7,0,0,0-2.24-2.71l-3.61-2.52c-1.21-.83-2.44-1.62-3.69-2.35A38.37,38.37,0,0,1,301,231.09a14.66,14.66,0,0,1-2.63-6.94,16.33,16.33,0,0,1,.83-7,15.2,15.2,0,0,1,3.85-6,15.82,15.82,0,0,1,6.51-3.77,32,32,0,0,1,8.37-1.33,18.31,18.31,0,0,1,7.34,1.25,26,26,0,0,1,5.14,3A19.35,19.35,0,0,1,335,214.8a12.37,12.37,0,0,1,2.2,5.54A8,8,0,0,1,335.27,226.3Z"/><path class="cls-5" d="M225.73,331.33c0,.73-.08,1.49-.08,2.27s0,1.55-.08,2.28a4.51,4.51,0,0,1-.74,2.2,2.64,2.64,0,0,1-2.24,1.1c-1.36.05-2.72.08-4.08.08s-2.73-.06-4.09-.16a3.22,3.22,0,0,1-3.06-3.22,5.44,5.44,0,0,1-.16-1.26v-1.33q.24-12.57.48-23.64t.23-21.83a24.24,24.24,0,0,0-.16-2.82c-.1-.95-.23-1.89-.39-2.83a4.79,4.79,0,0,1,.32-3.18,4.11,4.11,0,0,1,2.82-1.38,54.93,54.93,0,0,1,7-.51,48.19,48.19,0,0,1,7.38.51,36.91,36.91,0,0,1,7.15,1.81,25.89,25.89,0,0,1,6.28,3.3,19.26,19.26,0,0,1,5.46,6,25.09,25.09,0,0,1,2.9,7.57,27.77,27.77,0,0,1,.43,8.21,27.49,27.49,0,0,1-1.92,7.93,22.51,22.51,0,0,1-4.24,6.71,18.93,18.93,0,0,1-6.48,4.64,13.48,13.48,0,0,1-3.45,1.1,21.54,21.54,0,0,1-3.69.31h-5.58Zm.94-36.91q-.15,3.69-.23,7.22c-.06,2.36,0,4.72.15,7.07.95,0,1.84,0,2.67,0s1.71,0,2.6,0a5.87,5.87,0,0,0,3.33-1.26,4.61,4.61,0,0,0,1.69-3,10.68,10.68,0,0,0,.31-3.18,6.69,6.69,0,0,0-.94-3.1,6.82,6.82,0,0,0-5.26-3.77,9.3,9.3,0,0,0-2-.08C228.27,294.39,227.51,294.42,226.67,294.42Z"/><path class="cls-5" d="M272.28,304.75c1.51.07,3.13.14,4.85.19s3.37.05,5,0,2.8-.13,3.64-.23c.31-4.09.5-8.06.58-11.94s.25-7.77.51-11.7a3.51,3.51,0,0,1,1.49-2.94,8,8,0,0,1,3.34-1.3,17.42,17.42,0,0,1,4.05-.16c1.41.11,2.61.24,3.61.4a2.72,2.72,0,0,1,1.76,1,4.63,4.63,0,0,1,.83,1.84,7.23,7.23,0,0,1,.16,2.12c-.06.71-.11,1.32-.16,1.85-.11,3.71-.2,7.51-.28,11.38s-.11,7.76-.11,11.66,0,7.74.11,11.51.2,7.38.36,10.83c.15,2,.22,3.59.19,4.79a4.83,4.83,0,0,1-.78,2.83,4.36,4.36,0,0,1-2.58,1.49,30.66,30.66,0,0,1-5.27.71,12.23,12.23,0,0,1-4.23-.35,5.15,5.15,0,0,1-2.58-1.73,7.11,7.11,0,0,1-1.28-3.06,23.55,23.55,0,0,1-.36-4.44c0-.84,0-1.78,0-2.83s0-2.13,0-3.26v-6.24a82.85,82.85,0,0,0-8.48,0A72.36,72.36,0,0,1,268,317c-.06.58-.1,1.14-.12,1.69s0,1.06,0,1.53c-.05,2.05-.08,4.31-.08,6.8v6.63a5.77,5.77,0,0,1-1.22,3.77,4.56,4.56,0,0,1-3.33,1.65c-1.16,0-2.25.08-3.3.08a20.65,20.65,0,0,1-3.14-.24,5.56,5.56,0,0,1-3.54-1.45,4.37,4.37,0,0,1-1-3q0-7.07.12-14.06t.24-13.58c.07-4.4.13-8.61.15-12.65s0-7.8,0-11.3q-.71-5.26,5.27-5.58c1-.1,2.12-.16,3.22-.16s2.25,0,3.45.08a6.24,6.24,0,0,1,3.53,1,4.09,4.09,0,0,1,1,3.22q0,5.42,0,10.76t0,10.76v1.41A18.54,18.54,0,0,0,272.28,304.75Z"/><path class="cls-5" d="M343.52,319.15a29.51,29.51,0,0,1-2.28,6.17,24.72,24.72,0,0,1-4.2,6,26.75,26.75,0,0,1-6.28,4.86,23.92,23.92,0,0,1-8.45,2.79,38,38,0,0,1-10.12-.08,9.5,9.5,0,0,1-2.4-.78,7.36,7.36,0,0,1-2-1.41A5.51,5.51,0,0,1,306,332.5q.07-3.06.24-6.12t0-6.13q-.17-8.79-.32-16.45t-.15-15.19c.05-1.21.07-2.42.07-3.65v-3.73a4.81,4.81,0,0,1,.75-2.87,5,5,0,0,1,2.71-1.14,33.74,33.74,0,0,1,14.06.47,25.71,25.71,0,0,1,19.08,15.94A35.51,35.51,0,0,1,344.85,306,52.33,52.33,0,0,1,343.52,319.15Zm-23.17,3.62a6.16,6.16,0,0,0,2.63-.24,8.49,8.49,0,0,0,2.24-1.18,9.13,9.13,0,0,0,2.59-3,17.14,17.14,0,0,0,1.46-3.77,24.27,24.27,0,0,0,.66-4.08c.11-1.39.18-2.68.24-3.89a39.7,39.7,0,0,0-.43-5.77,16.57,16.57,0,0,0-1.57-5.07,8.15,8.15,0,0,0-3.15-3.37,7.18,7.18,0,0,0-5.06-.63,154.84,154.84,0,0,1,.78,15.47Q320.74,314.92,320.35,322.77Z"/></g></svg>